G04 #@! TF.FileFunction,Copper,L1,Top,Signal*
%FSLAX46Y46*%
G04 Gerber Fmt 4.6, Leading zero omitted, Abs format (unit mm)*
G04 Created by KiCad (PCBNEW 4.0.0-2.201512091501+6195~38~ubuntu14.04.1-stable) date Wed 16 Dec 2015 16:01:55 GMT*
%MOMM*%
G01*
G04 APERTURE LIST*
%ADD10C,0.100000*%
%ADD11C,1.800000*%
%ADD12C,3.500000*%
%ADD13R,1.300000X0.700000*%
%ADD14C,2.100000*%
%ADD15C,1.300000*%
%ADD16C,4.500000*%
%ADD17R,2.032000X1.727200*%
%ADD18O,2.032000X1.727200*%
%ADD19R,1.500000X3.500000*%
%ADD20C,0.889000*%
%ADD21C,1.000000*%
%ADD22C,1.016000*%
%ADD23C,0.508000*%
%ADD24C,0.381000*%
%ADD25C,2.000000*%
%ADD26C,0.762000*%
%ADD27C,0.254000*%
G04 APERTURE END LIST*
D10*
D11*
X142621000Y-108712000D03*
X140081000Y-108712000D03*
X145161000Y-108712000D03*
X137541000Y-108712000D03*
X138811000Y-111252000D03*
X136271000Y-111252000D03*
X141351000Y-111252000D03*
X143891000Y-111252000D03*
D12*
X135001000Y-102362000D03*
X146431000Y-102362000D03*
D13*
X131064000Y-142682000D03*
X131064000Y-140782000D03*
X133604000Y-142682000D03*
X133604000Y-140782000D03*
X136144000Y-142682000D03*
X136144000Y-140782000D03*
X138684000Y-142682000D03*
X138684000Y-140782000D03*
D11*
X142530000Y-145522000D03*
X147030000Y-145522000D03*
D14*
X141280000Y-143022000D03*
X148280000Y-143022000D03*
D11*
X136906000Y-147828000D03*
X139446000Y-147828000D03*
X134366000Y-147828000D03*
X131826000Y-147828000D03*
X139446000Y-145288000D03*
X136906000Y-145288000D03*
X134366000Y-145288000D03*
X131826000Y-145288000D03*
D15*
X120654000Y-103124000D03*
X118364000Y-103124000D03*
X116074000Y-103124000D03*
X113784000Y-103124000D03*
X111494000Y-103124000D03*
X119514000Y-105664000D03*
X117224000Y-105664000D03*
X114934000Y-105664000D03*
X112644000Y-105664000D03*
X110354000Y-105664000D03*
X120654000Y-108204000D03*
X118364000Y-108204000D03*
X116074000Y-108204000D03*
X113784000Y-108204000D03*
X111494000Y-108204000D03*
D16*
X103329000Y-105664000D03*
X128319000Y-105664000D03*
D17*
X104140000Y-115316000D03*
D18*
X104140000Y-117856000D03*
X104140000Y-120396000D03*
X104140000Y-122936000D03*
X104140000Y-125476000D03*
X104140000Y-128016000D03*
X104140000Y-130556000D03*
X104140000Y-133096000D03*
X104140000Y-135636000D03*
X104140000Y-138176000D03*
X104140000Y-140716000D03*
X104140000Y-143256000D03*
X104140000Y-145796000D03*
X104140000Y-148336000D03*
D17*
X106680000Y-115316000D03*
D18*
X106680000Y-117856000D03*
X106680000Y-120396000D03*
X106680000Y-122936000D03*
X106680000Y-125476000D03*
X106680000Y-128016000D03*
X106680000Y-130556000D03*
X106680000Y-133096000D03*
X106680000Y-135636000D03*
X106680000Y-138176000D03*
X106680000Y-140716000D03*
X106680000Y-143256000D03*
X106680000Y-145796000D03*
X106680000Y-148336000D03*
D19*
X111125000Y-139700000D03*
X112395000Y-144740000D03*
X113665000Y-139740000D03*
X114935000Y-144740000D03*
X116205000Y-139740000D03*
X117475000Y-144740000D03*
X118745000Y-139740000D03*
X120015000Y-144740000D03*
X121285000Y-139700000D03*
X122555000Y-144740000D03*
X123825000Y-139700000D03*
X125095000Y-144780000D03*
X126365000Y-139700000D03*
X127635000Y-144780000D03*
D17*
X146812000Y-131572000D03*
D18*
X146812000Y-134112000D03*
X146812000Y-136652000D03*
X146812000Y-139192000D03*
D17*
X144272000Y-131572000D03*
D18*
X144272000Y-134112000D03*
X144272000Y-136652000D03*
X144272000Y-139192000D03*
D20*
X142748000Y-119634000D03*
X146558000Y-119634000D03*
D21*
X133096000Y-143764000D03*
X114935000Y-144740000D03*
X117856000Y-146304000D03*
X122555000Y-144740000D03*
X124968000Y-143256000D03*
X126365000Y-139700000D03*
X127635000Y-144780000D03*
D22*
X110354000Y-105664000D02*
X101600000Y-114418000D01*
X101600000Y-114418000D02*
X101600000Y-117856000D01*
X104140000Y-143256000D02*
X102362000Y-145034000D01*
X102362000Y-146558000D02*
X104140000Y-148336000D01*
X102362000Y-145034000D02*
X102362000Y-146558000D01*
X106680000Y-140716000D02*
X108712000Y-138684000D01*
X108712000Y-135128000D02*
X106680000Y-133096000D01*
X108712000Y-138684000D02*
X108712000Y-135128000D01*
X106680000Y-122936000D02*
X108712000Y-124968000D01*
X108712000Y-128524000D02*
X106680000Y-130556000D01*
X108712000Y-124968000D02*
X108712000Y-128524000D01*
X101600000Y-117856000D02*
X104140000Y-120396000D01*
X111494000Y-103124000D02*
X111494000Y-104394000D01*
X111494000Y-104394000D02*
X110354000Y-105534000D01*
X110354000Y-105534000D02*
X110354000Y-105664000D01*
D23*
X142621000Y-108712000D02*
X144145000Y-107188000D01*
X143530000Y-145522000D02*
X142530000Y-145522000D01*
X149098000Y-139954000D02*
X143530000Y-145522000D01*
X149098000Y-119634000D02*
X149098000Y-139954000D01*
X149098000Y-116586000D02*
X149098000Y-119634000D01*
X149098000Y-110490000D02*
X149098000Y-116586000D01*
X145796000Y-107188000D02*
X149098000Y-110490000D01*
X144145000Y-107188000D02*
X145796000Y-107188000D01*
D24*
X136144000Y-140782000D02*
X138684000Y-140782000D01*
X138684000Y-140782000D02*
X141798000Y-140782000D01*
X142748000Y-141732000D02*
X142748000Y-145304000D01*
X141798000Y-140782000D02*
X142748000Y-141732000D01*
X142748000Y-145304000D02*
X142530000Y-145522000D01*
X131064000Y-140782000D02*
X133604000Y-140782000D01*
X133604000Y-140782000D02*
X136144000Y-140782000D01*
X106680000Y-148336000D02*
X107696000Y-149352000D01*
X142530000Y-148554000D02*
X142530000Y-145522000D01*
X141732000Y-149352000D02*
X142530000Y-148554000D01*
X107696000Y-149352000D02*
X141732000Y-149352000D01*
D25*
X104140000Y-140716000D02*
X106680000Y-143256000D01*
X104140000Y-140716000D02*
X104140000Y-143256000D01*
X104140000Y-130556000D02*
X106680000Y-133096000D01*
X104140000Y-130556000D02*
X104140000Y-133096000D01*
X104140000Y-120396000D02*
X106680000Y-122936000D01*
X104140000Y-120396000D02*
X104140000Y-122936000D01*
X106680000Y-120396000D02*
X104140000Y-120396000D01*
X106680000Y-122936000D02*
X106680000Y-120396000D01*
X104140000Y-122936000D02*
X106680000Y-122936000D01*
X106680000Y-130556000D02*
X104140000Y-130556000D01*
X106680000Y-133096000D02*
X106680000Y-130556000D01*
X104140000Y-133096000D02*
X106680000Y-133096000D01*
X106680000Y-140716000D02*
X104140000Y-140716000D01*
X106680000Y-143256000D02*
X106680000Y-140716000D01*
X104140000Y-143256000D02*
X106680000Y-143256000D01*
X106680000Y-148336000D02*
X104140000Y-148336000D01*
D22*
X122428000Y-105664000D02*
X128319000Y-105664000D01*
D26*
X111494000Y-104394000D02*
X121158000Y-104394000D01*
D22*
X121158000Y-104394000D02*
X122428000Y-105664000D01*
X103329000Y-105664000D02*
X110354000Y-105664000D01*
D24*
X142748000Y-117602000D02*
X142748000Y-119634000D01*
X136271000Y-111252000D02*
X142748000Y-117602000D01*
X149098000Y-119634000D02*
X146558000Y-119634000D01*
D25*
X104140000Y-115316000D02*
X106680000Y-117856000D01*
X106680000Y-117856000D02*
X106680000Y-117856000D01*
X106680000Y-117856000D02*
X106680000Y-115316000D01*
X104140000Y-117856000D02*
X106680000Y-117856000D01*
X104140000Y-117856000D02*
X104140000Y-115316000D01*
X106680000Y-115316000D02*
X104140000Y-115316000D01*
D24*
X111125000Y-139700000D02*
X111125000Y-110109000D01*
X110236000Y-107696000D02*
X112268000Y-105664000D01*
X110236000Y-109220000D02*
X110236000Y-107696000D01*
X111125000Y-110109000D02*
X110236000Y-109220000D01*
X112268000Y-105664000D02*
X112644000Y-105664000D01*
X112395000Y-144740000D02*
X112395000Y-145923000D01*
X112395000Y-145923000D02*
X113792000Y-147320000D01*
X113792000Y-147320000D02*
X128524000Y-147320000D01*
X128524000Y-147320000D02*
X130556000Y-145288000D01*
X131064000Y-143764000D02*
X130556000Y-144272000D01*
X130556000Y-144272000D02*
X130556000Y-145288000D01*
X130556000Y-145288000D02*
X130556000Y-146558000D01*
X130556000Y-146558000D02*
X131826000Y-147828000D01*
X131064000Y-142682000D02*
X131064000Y-143764000D01*
X113665000Y-139740000D02*
X113665000Y-110109000D01*
X112776000Y-107188000D02*
X114300000Y-105664000D01*
X112776000Y-109220000D02*
X112776000Y-107188000D01*
X113665000Y-110109000D02*
X112776000Y-109220000D01*
X114300000Y-105664000D02*
X114934000Y-105664000D01*
X133604000Y-143256000D02*
X133096000Y-143764000D01*
X133096000Y-143764000D02*
X133096000Y-146558000D01*
X133096000Y-146558000D02*
X134366000Y-147828000D01*
X133604000Y-142682000D02*
X133604000Y-143256000D01*
X116840000Y-105664000D02*
X114808000Y-107696000D01*
X116205000Y-110109000D02*
X114808000Y-108712000D01*
X114808000Y-108712000D02*
X114808000Y-107696000D01*
X116205000Y-110109000D02*
X116205000Y-139740000D01*
X116840000Y-105664000D02*
X117224000Y-105664000D01*
X117475000Y-145923000D02*
X117856000Y-146304000D01*
X117475000Y-144740000D02*
X117475000Y-145923000D01*
X135636000Y-146558000D02*
X136906000Y-147828000D01*
X135636000Y-144272000D02*
X135636000Y-146558000D01*
X136144000Y-143764000D02*
X135636000Y-144272000D01*
X136144000Y-142682000D02*
X136144000Y-143764000D01*
X118745000Y-139740000D02*
X118745000Y-110109000D01*
X117348000Y-107696000D02*
X119380000Y-105664000D01*
X117348000Y-108712000D02*
X117348000Y-107696000D01*
X118745000Y-110109000D02*
X117348000Y-108712000D01*
X119380000Y-105664000D02*
X119514000Y-105664000D01*
X120396000Y-142240000D02*
X128524000Y-142240000D01*
X120015000Y-142621000D02*
X120396000Y-142240000D01*
X120015000Y-144740000D02*
X120015000Y-142621000D01*
X137734000Y-141732000D02*
X138684000Y-142682000D01*
X129032000Y-141732000D02*
X137734000Y-141732000D01*
X128524000Y-142240000D02*
X129032000Y-141732000D01*
X138684000Y-143764000D02*
X138176000Y-144272000D01*
X138176000Y-144272000D02*
X138176000Y-146558000D01*
X138176000Y-146558000D02*
X139446000Y-147828000D01*
X138684000Y-142682000D02*
X138684000Y-143764000D01*
X121285000Y-139700000D02*
X121285000Y-108835000D01*
X121285000Y-108835000D02*
X120654000Y-108204000D01*
X123825000Y-139700000D02*
X123825000Y-108585000D01*
X120396000Y-106680000D02*
X118872000Y-108204000D01*
X121920000Y-106680000D02*
X120396000Y-106680000D01*
X123825000Y-108585000D02*
X121920000Y-106680000D01*
X118872000Y-108204000D02*
X118364000Y-108204000D01*
X125095000Y-143383000D02*
X124968000Y-143256000D01*
X140081000Y-109982000D02*
X141351000Y-111252000D01*
X129032000Y-102108000D02*
X119380000Y-102108000D01*
X136906000Y-109982000D02*
X129032000Y-102108000D01*
X118364000Y-103124000D02*
X119380000Y-102108000D01*
X136906000Y-109982000D02*
X140081000Y-109982000D01*
X116332000Y-100584000D02*
X130048000Y-100584000D01*
X130048000Y-100584000D02*
X136652000Y-107188000D01*
X136652000Y-107188000D02*
X138557000Y-107188000D01*
X138557000Y-107188000D02*
X140081000Y-108712000D01*
X113792000Y-103124000D02*
X116332000Y-100584000D01*
X146812000Y-136652000D02*
X144272000Y-136652000D01*
X145288000Y-110744000D02*
X144526000Y-109982000D01*
X144526000Y-109982000D02*
X141351000Y-109982000D01*
X141351000Y-109982000D02*
X140081000Y-108712000D01*
X144272000Y-136652000D02*
X142494000Y-134874000D01*
X142494000Y-130810000D02*
X145288000Y-128016000D01*
X142494000Y-134874000D02*
X142494000Y-130810000D01*
X145288000Y-128016000D02*
X145288000Y-110744000D01*
X117856000Y-101346000D02*
X116074000Y-103124000D01*
X129540000Y-101346000D02*
X117856000Y-101346000D01*
X136906000Y-108712000D02*
X129540000Y-101346000D01*
X137541000Y-108712000D02*
X136906000Y-108712000D01*
D27*
G36*
X113909458Y-101839108D02*
X113529519Y-101838777D01*
X113057057Y-102033995D01*
X112695265Y-102395155D01*
X112645891Y-102514060D01*
X112623611Y-102460271D01*
X112393016Y-102404590D01*
X111673605Y-103124000D01*
X112393016Y-103843410D01*
X112623611Y-103787729D01*
X112643847Y-103729577D01*
X112693995Y-103850943D01*
X113055155Y-104212735D01*
X113527276Y-104408777D01*
X114038481Y-104409223D01*
X114510943Y-104214005D01*
X114872735Y-103852845D01*
X114928896Y-103717594D01*
X114983995Y-103850943D01*
X115345155Y-104212735D01*
X115817276Y-104408777D01*
X116328481Y-104409223D01*
X116800943Y-104214005D01*
X117162735Y-103852845D01*
X117218896Y-103717594D01*
X117273995Y-103850943D01*
X117635155Y-104212735D01*
X118107276Y-104408777D01*
X118618481Y-104409223D01*
X119090943Y-104214005D01*
X119452735Y-103852845D01*
X119508896Y-103717594D01*
X119563995Y-103850943D01*
X119925155Y-104212735D01*
X120397276Y-104408777D01*
X120908481Y-104409223D01*
X121380943Y-104214005D01*
X121742735Y-103852845D01*
X121938777Y-103380724D01*
X121939167Y-102933500D01*
X127366323Y-102933500D01*
X126694375Y-103211831D01*
X126443138Y-103608533D01*
X128319000Y-105484395D01*
X128333143Y-105470253D01*
X128512748Y-105649858D01*
X128498605Y-105664000D01*
X130374467Y-107539862D01*
X130771169Y-107288625D01*
X131206227Y-106226554D01*
X131203171Y-105446605D01*
X135608931Y-109852364D01*
X135456852Y-109915357D01*
X135370446Y-110171841D01*
X136271000Y-111072395D01*
X136285143Y-111058253D01*
X136464748Y-111237858D01*
X136450605Y-111252000D01*
X137351159Y-112152554D01*
X137501327Y-112101965D01*
X137508932Y-112120371D01*
X137940357Y-112552551D01*
X138504330Y-112786733D01*
X139114991Y-112787265D01*
X139679371Y-112554068D01*
X140081323Y-112152818D01*
X140480357Y-112552551D01*
X141044330Y-112786733D01*
X141654991Y-112787265D01*
X142219371Y-112554068D01*
X142621323Y-112152818D01*
X143020357Y-112552551D01*
X143584330Y-112786733D01*
X144194991Y-112787265D01*
X144462500Y-112676733D01*
X144462500Y-127674067D01*
X141910283Y-130226283D01*
X141731337Y-130494094D01*
X141731337Y-130494095D01*
X141668500Y-130810000D01*
X141668500Y-134874000D01*
X141731337Y-135189906D01*
X141910283Y-135457717D01*
X142674250Y-136221684D01*
X142588655Y-136652000D01*
X142702729Y-137225489D01*
X143027585Y-137711670D01*
X143342366Y-137922000D01*
X143027585Y-138132330D01*
X142702729Y-138618511D01*
X142588655Y-139192000D01*
X142702729Y-139765489D01*
X143027585Y-140251670D01*
X143513766Y-140576526D01*
X144087255Y-140690600D01*
X144456745Y-140690600D01*
X145030234Y-140576526D01*
X145516415Y-140251670D01*
X145542000Y-140213379D01*
X145567585Y-140251670D01*
X146053766Y-140576526D01*
X146627255Y-140690600D01*
X146996745Y-140690600D01*
X147570234Y-140576526D01*
X148056415Y-140251670D01*
X148381271Y-139765489D01*
X148495345Y-139192000D01*
X148381271Y-138618511D01*
X148056415Y-138132330D01*
X147741634Y-137922000D01*
X148056415Y-137711670D01*
X148381271Y-137225489D01*
X148495345Y-136652000D01*
X148381271Y-136078511D01*
X148056415Y-135592330D01*
X147741634Y-135382000D01*
X148056415Y-135171670D01*
X148381271Y-134685489D01*
X148495345Y-134112000D01*
X148381271Y-133538511D01*
X148056415Y-133052330D01*
X148042087Y-133042757D01*
X148063317Y-133038762D01*
X148279441Y-132899690D01*
X148424431Y-132687490D01*
X148475440Y-132435600D01*
X148475440Y-130708400D01*
X148431162Y-130473083D01*
X148292090Y-130256959D01*
X148079890Y-130111969D01*
X147828000Y-130060960D01*
X145796000Y-130060960D01*
X145560683Y-130105238D01*
X145544901Y-130115393D01*
X145539890Y-130111969D01*
X145288000Y-130060960D01*
X144410474Y-130060960D01*
X145871714Y-128599719D01*
X145871717Y-128599717D01*
X146050663Y-128331905D01*
X146113501Y-128016000D01*
X146113500Y-128015995D01*
X146113500Y-110744005D01*
X146113501Y-110744000D01*
X146050663Y-110428095D01*
X145999448Y-110351446D01*
X145871717Y-110160283D01*
X145871714Y-110160281D01*
X145814347Y-110102914D01*
X146029371Y-110014068D01*
X146461551Y-109582643D01*
X146695733Y-109018670D01*
X146696265Y-108408009D01*
X146463068Y-107843629D01*
X146031643Y-107411449D01*
X145467670Y-107177267D01*
X144857009Y-107176735D01*
X144292629Y-107409932D01*
X143860449Y-107841357D01*
X143851797Y-107862194D01*
X143701159Y-107811446D01*
X142800605Y-108712000D01*
X142814748Y-108726143D01*
X142635143Y-108905748D01*
X142621000Y-108891605D01*
X142606858Y-108905748D01*
X142427253Y-108726143D01*
X142441395Y-108712000D01*
X141540841Y-107811446D01*
X141390673Y-107862035D01*
X141383068Y-107843629D01*
X141171650Y-107631841D01*
X141720446Y-107631841D01*
X142621000Y-108532395D01*
X143521554Y-107631841D01*
X143435148Y-107375357D01*
X142861664Y-107165542D01*
X142251540Y-107191161D01*
X141806852Y-107375357D01*
X141720446Y-107631841D01*
X141171650Y-107631841D01*
X140951643Y-107411449D01*
X140387670Y-107177267D01*
X139777009Y-107176735D01*
X139731834Y-107195401D01*
X139140717Y-106604283D01*
X138872906Y-106425337D01*
X138557000Y-106362500D01*
X136993933Y-106362500D01*
X135378764Y-104747330D01*
X135473325Y-104747413D01*
X136350229Y-104385084D01*
X137021726Y-103714758D01*
X137385585Y-102838487D01*
X137386413Y-101889675D01*
X137024084Y-101012771D01*
X136772752Y-100761000D01*
X144658950Y-100761000D01*
X144410274Y-101009242D01*
X144046415Y-101885513D01*
X144045587Y-102834325D01*
X144407916Y-103711229D01*
X145078242Y-104382726D01*
X145954513Y-104746585D01*
X146903325Y-104747413D01*
X147780229Y-104385084D01*
X148451726Y-103714758D01*
X148815585Y-102838487D01*
X148816413Y-101889675D01*
X148454084Y-101012771D01*
X148202752Y-100761000D01*
X149175000Y-100761000D01*
X149175000Y-141569146D01*
X148616638Y-141337293D01*
X147946303Y-141336708D01*
X147326771Y-141592694D01*
X146852360Y-142066278D01*
X146595293Y-142685362D01*
X146594708Y-143355697D01*
X146850694Y-143975229D01*
X146862298Y-143986854D01*
X146726009Y-143986735D01*
X146161629Y-144219932D01*
X145729449Y-144651357D01*
X145495267Y-145215330D01*
X145494735Y-145825991D01*
X145727932Y-146390371D01*
X146159357Y-146822551D01*
X146723330Y-147056733D01*
X147333991Y-147057265D01*
X147898371Y-146824068D01*
X148330551Y-146392643D01*
X148564733Y-145828670D01*
X148565265Y-145218009D01*
X148354148Y-144707065D01*
X148613697Y-144707292D01*
X149175000Y-144475366D01*
X149175000Y-149175000D01*
X140205627Y-149175000D01*
X140314371Y-149130068D01*
X140746551Y-148698643D01*
X140980733Y-148134670D01*
X140981265Y-147524009D01*
X140748068Y-146959629D01*
X140391223Y-146602159D01*
X141629446Y-146602159D01*
X141715852Y-146858643D01*
X142289336Y-147068458D01*
X142899460Y-147042839D01*
X143344148Y-146858643D01*
X143430554Y-146602159D01*
X142530000Y-145701605D01*
X141629446Y-146602159D01*
X140391223Y-146602159D01*
X140346818Y-146557677D01*
X140746551Y-146158643D01*
X140980733Y-145594670D01*
X140981265Y-144984009D01*
X140850806Y-144668274D01*
X140943362Y-144706707D01*
X141196101Y-144706928D01*
X141193357Y-144707852D01*
X140983542Y-145281336D01*
X141009161Y-145891460D01*
X141193357Y-146336148D01*
X141449841Y-146422554D01*
X142350395Y-145522000D01*
X142709605Y-145522000D01*
X143610159Y-146422554D01*
X143866643Y-146336148D01*
X144076458Y-145762664D01*
X144050839Y-145152540D01*
X143866643Y-144707852D01*
X143610159Y-144621446D01*
X142709605Y-145522000D01*
X142350395Y-145522000D01*
X142336253Y-145507858D01*
X142515858Y-145328253D01*
X142530000Y-145342395D01*
X143430554Y-144441841D01*
X143344148Y-144185357D01*
X142770664Y-143975542D01*
X142707152Y-143978209D01*
X142707640Y-143977722D01*
X142964707Y-143358638D01*
X142965292Y-142688303D01*
X142709306Y-142068771D01*
X142235722Y-141594360D01*
X141616638Y-141337293D01*
X140946303Y-141336708D01*
X140326771Y-141592694D01*
X139892081Y-142026626D01*
X139798090Y-141880559D01*
X139585890Y-141735569D01*
X139552510Y-141728809D01*
X139693699Y-141670327D01*
X139872327Y-141491698D01*
X139969000Y-141258309D01*
X139969000Y-141067750D01*
X139810250Y-140909000D01*
X138811000Y-140909000D01*
X138811000Y-140929000D01*
X138557000Y-140929000D01*
X138557000Y-140909000D01*
X137746568Y-140909000D01*
X137734000Y-140906500D01*
X129032000Y-140906500D01*
X128716095Y-140969337D01*
X128448283Y-141148283D01*
X128448281Y-141148286D01*
X128182066Y-141414500D01*
X127762440Y-141414500D01*
X127762440Y-140305691D01*
X129779000Y-140305691D01*
X129779000Y-140496250D01*
X129937750Y-140655000D01*
X130937000Y-140655000D01*
X130937000Y-139955750D01*
X131191000Y-139955750D01*
X131191000Y-140655000D01*
X132190250Y-140655000D01*
X132334000Y-140511250D01*
X132477750Y-140655000D01*
X133477000Y-140655000D01*
X133477000Y-139955750D01*
X133731000Y-139955750D01*
X133731000Y-140655000D01*
X134730250Y-140655000D01*
X134874000Y-140511250D01*
X135017750Y-140655000D01*
X136017000Y-140655000D01*
X136017000Y-139955750D01*
X136271000Y-139955750D01*
X136271000Y-140655000D01*
X137270250Y-140655000D01*
X137414000Y-140511250D01*
X137557750Y-140655000D01*
X138557000Y-140655000D01*
X138557000Y-139955750D01*
X138811000Y-139955750D01*
X138811000Y-140655000D01*
X139810250Y-140655000D01*
X139969000Y-140496250D01*
X139969000Y-140305691D01*
X139872327Y-140072302D01*
X139693699Y-139893673D01*
X139460310Y-139797000D01*
X138969750Y-139797000D01*
X138811000Y-139955750D01*
X138557000Y-139955750D01*
X138398250Y-139797000D01*
X137907690Y-139797000D01*
X137674301Y-139893673D01*
X137495673Y-140072302D01*
X137414000Y-140269478D01*
X137332327Y-140072302D01*
X137153699Y-139893673D01*
X136920310Y-139797000D01*
X136429750Y-139797000D01*
X136271000Y-139955750D01*
X136017000Y-139955750D01*
X135858250Y-139797000D01*
X135367690Y-139797000D01*
X135134301Y-139893673D01*
X134955673Y-140072302D01*
X134874000Y-140269478D01*
X134792327Y-140072302D01*
X134613699Y-139893673D01*
X134380310Y-139797000D01*
X133889750Y-139797000D01*
X133731000Y-139955750D01*
X133477000Y-139955750D01*
X133318250Y-139797000D01*
X132827690Y-139797000D01*
X132594301Y-139893673D01*
X132415673Y-140072302D01*
X132334000Y-140269478D01*
X132252327Y-140072302D01*
X132073699Y-139893673D01*
X131840310Y-139797000D01*
X131349750Y-139797000D01*
X131191000Y-139955750D01*
X130937000Y-139955750D01*
X130778250Y-139797000D01*
X130287690Y-139797000D01*
X130054301Y-139893673D01*
X129875673Y-140072302D01*
X129779000Y-140305691D01*
X127762440Y-140305691D01*
X127762440Y-137950000D01*
X127718162Y-137714683D01*
X127579090Y-137498559D01*
X127366890Y-137353569D01*
X127115000Y-137302560D01*
X125615000Y-137302560D01*
X125379683Y-137346838D01*
X125163559Y-137485910D01*
X125095266Y-137585860D01*
X125039090Y-137498559D01*
X124826890Y-137353569D01*
X124650500Y-137317849D01*
X124650500Y-112332159D01*
X135370446Y-112332159D01*
X135456852Y-112588643D01*
X136030336Y-112798458D01*
X136640460Y-112772839D01*
X137085148Y-112588643D01*
X137171554Y-112332159D01*
X136271000Y-111431605D01*
X135370446Y-112332159D01*
X124650500Y-112332159D01*
X124650500Y-111011336D01*
X134724542Y-111011336D01*
X134750161Y-111621460D01*
X134934357Y-112066148D01*
X135190841Y-112152554D01*
X136091395Y-111252000D01*
X135190841Y-110351446D01*
X134934357Y-110437852D01*
X134724542Y-111011336D01*
X124650500Y-111011336D01*
X124650500Y-108585005D01*
X124650501Y-108585000D01*
X124587663Y-108269095D01*
X124408717Y-108001283D01*
X124126901Y-107719467D01*
X126443138Y-107719467D01*
X126694375Y-108116169D01*
X127756446Y-108551227D01*
X128904162Y-108546730D01*
X129943625Y-108116169D01*
X130194862Y-107719467D01*
X128319000Y-105843605D01*
X126443138Y-107719467D01*
X124126901Y-107719467D01*
X122503717Y-106096283D01*
X122235906Y-105917337D01*
X121920000Y-105854500D01*
X120798835Y-105854500D01*
X120799223Y-105409519D01*
X120671930Y-105101446D01*
X125431773Y-105101446D01*
X125436270Y-106249162D01*
X125866831Y-107288625D01*
X126263533Y-107539862D01*
X128139395Y-105664000D01*
X126263533Y-103788138D01*
X125866831Y-104039375D01*
X125431773Y-105101446D01*
X120671930Y-105101446D01*
X120604005Y-104937057D01*
X120242845Y-104575265D01*
X119770724Y-104379223D01*
X119259519Y-104378777D01*
X118787057Y-104573995D01*
X118425265Y-104935155D01*
X118369104Y-105070406D01*
X118314005Y-104937057D01*
X117952845Y-104575265D01*
X117480724Y-104379223D01*
X116969519Y-104378777D01*
X116497057Y-104573995D01*
X116135265Y-104935155D01*
X116079104Y-105070406D01*
X116024005Y-104937057D01*
X115662845Y-104575265D01*
X115190724Y-104379223D01*
X114679519Y-104378777D01*
X114207057Y-104573995D01*
X113845265Y-104935155D01*
X113811390Y-105016734D01*
X113776547Y-105040016D01*
X113734005Y-104937057D01*
X113372845Y-104575265D01*
X112900724Y-104379223D01*
X112389519Y-104378777D01*
X111917057Y-104573995D01*
X111555265Y-104935155D01*
X111505891Y-105054060D01*
X111483611Y-105000271D01*
X111253016Y-104944590D01*
X110533605Y-105664000D01*
X110547748Y-105678142D01*
X110368142Y-105857748D01*
X110354000Y-105843605D01*
X109634590Y-106563016D01*
X109690271Y-106793611D01*
X109898495Y-106866071D01*
X109652283Y-107112283D01*
X109473337Y-107380094D01*
X109425561Y-107620283D01*
X109410500Y-107696000D01*
X109410500Y-109220000D01*
X109473337Y-109535906D01*
X109652283Y-109803717D01*
X110299500Y-110450934D01*
X110299500Y-137316766D01*
X110139683Y-137346838D01*
X109923559Y-137485910D01*
X109778569Y-137698110D01*
X109727560Y-137950000D01*
X109727560Y-141450000D01*
X109771838Y-141685317D01*
X109910910Y-141901441D01*
X110123110Y-142046431D01*
X110375000Y-142097440D01*
X111875000Y-142097440D01*
X112110317Y-142053162D01*
X112326441Y-141914090D01*
X112381478Y-141833541D01*
X112450910Y-141941441D01*
X112663110Y-142086431D01*
X112915000Y-142137440D01*
X114415000Y-142137440D01*
X114650317Y-142093162D01*
X114866441Y-141954090D01*
X114934734Y-141854140D01*
X114990910Y-141941441D01*
X115203110Y-142086431D01*
X115455000Y-142137440D01*
X116955000Y-142137440D01*
X117190317Y-142093162D01*
X117406441Y-141954090D01*
X117474734Y-141854140D01*
X117530910Y-141941441D01*
X117743110Y-142086431D01*
X117995000Y-142137440D01*
X119364360Y-142137440D01*
X119252337Y-142305094D01*
X119244102Y-142346492D01*
X119029683Y-142386838D01*
X118813559Y-142525910D01*
X118745266Y-142625860D01*
X118689090Y-142538559D01*
X118476890Y-142393569D01*
X118225000Y-142342560D01*
X116725000Y-142342560D01*
X116489683Y-142386838D01*
X116273559Y-142525910D01*
X116205266Y-142625860D01*
X116149090Y-142538559D01*
X115936890Y-142393569D01*
X115685000Y-142342560D01*
X114185000Y-142342560D01*
X113949683Y-142386838D01*
X113733559Y-142525910D01*
X113665266Y-142625860D01*
X113609090Y-142538559D01*
X113396890Y-142393569D01*
X113145000Y-142342560D01*
X111645000Y-142342560D01*
X111409683Y-142386838D01*
X111193559Y-142525910D01*
X111048569Y-142738110D01*
X110997560Y-142990000D01*
X110997560Y-146490000D01*
X111041838Y-146725317D01*
X111180910Y-146941441D01*
X111393110Y-147086431D01*
X111645000Y-147137440D01*
X112442006Y-147137440D01*
X113208281Y-147903714D01*
X113208283Y-147903717D01*
X113317920Y-147976974D01*
X113476094Y-148082663D01*
X113792000Y-148145500D01*
X128524000Y-148145500D01*
X128839906Y-148082663D01*
X129107717Y-147903717D01*
X129931201Y-147080233D01*
X129972283Y-147141717D01*
X130309056Y-147478490D01*
X130291267Y-147521330D01*
X130290735Y-148131991D01*
X130523932Y-148696371D01*
X130955357Y-149128551D01*
X131067219Y-149175000D01*
X108061097Y-149175000D01*
X108284709Y-148710791D01*
X108287358Y-148695026D01*
X108166217Y-148463000D01*
X106807000Y-148463000D01*
X106807000Y-148483000D01*
X106553000Y-148483000D01*
X106553000Y-148463000D01*
X104267000Y-148463000D01*
X104267000Y-148483000D01*
X104013000Y-148483000D01*
X104013000Y-148463000D01*
X102653783Y-148463000D01*
X102532642Y-148695026D01*
X102535291Y-148710791D01*
X102758903Y-149175000D01*
X100761000Y-149175000D01*
X100761000Y-145796000D01*
X102456655Y-145796000D01*
X102570729Y-146369489D01*
X102895585Y-146855670D01*
X103205069Y-147062461D01*
X102789268Y-147433964D01*
X102535291Y-147961209D01*
X102532642Y-147976974D01*
X102653783Y-148209000D01*
X104013000Y-148209000D01*
X104013000Y-148189000D01*
X104267000Y-148189000D01*
X104267000Y-148209000D01*
X106553000Y-148209000D01*
X106553000Y-148189000D01*
X106807000Y-148189000D01*
X106807000Y-148209000D01*
X108166217Y-148209000D01*
X108287358Y-147976974D01*
X108284709Y-147961209D01*
X108030732Y-147433964D01*
X107614931Y-147062461D01*
X107924415Y-146855670D01*
X108249271Y-146369489D01*
X108363345Y-145796000D01*
X108249271Y-145222511D01*
X107924415Y-144736330D01*
X107614931Y-144529539D01*
X108030732Y-144158036D01*
X108284709Y-143630791D01*
X108287358Y-143615026D01*
X108166217Y-143383000D01*
X106807000Y-143383000D01*
X106807000Y-143403000D01*
X106553000Y-143403000D01*
X106553000Y-143383000D01*
X104267000Y-143383000D01*
X104267000Y-143403000D01*
X104013000Y-143403000D01*
X104013000Y-143383000D01*
X102653783Y-143383000D01*
X102532642Y-143615026D01*
X102535291Y-143630791D01*
X102789268Y-144158036D01*
X103205069Y-144529539D01*
X102895585Y-144736330D01*
X102570729Y-145222511D01*
X102456655Y-145796000D01*
X100761000Y-145796000D01*
X100761000Y-141075026D01*
X102532642Y-141075026D01*
X102535291Y-141090791D01*
X102789268Y-141618036D01*
X103201108Y-141986000D01*
X102789268Y-142353964D01*
X102535291Y-142881209D01*
X102532642Y-142896974D01*
X102653783Y-143129000D01*
X104013000Y-143129000D01*
X104013000Y-140843000D01*
X104267000Y-140843000D01*
X104267000Y-143129000D01*
X106553000Y-143129000D01*
X106553000Y-140843000D01*
X106807000Y-140843000D01*
X106807000Y-143129000D01*
X108166217Y-143129000D01*
X108287358Y-142896974D01*
X108284709Y-142881209D01*
X108030732Y-142353964D01*
X107618892Y-141986000D01*
X108030732Y-141618036D01*
X108284709Y-141090791D01*
X108287358Y-141075026D01*
X108166217Y-140843000D01*
X106807000Y-140843000D01*
X106553000Y-140843000D01*
X104267000Y-140843000D01*
X104013000Y-140843000D01*
X102653783Y-140843000D01*
X102532642Y-141075026D01*
X100761000Y-141075026D01*
X100761000Y-135636000D01*
X102456655Y-135636000D01*
X102570729Y-136209489D01*
X102895585Y-136695670D01*
X103210366Y-136906000D01*
X102895585Y-137116330D01*
X102570729Y-137602511D01*
X102456655Y-138176000D01*
X102570729Y-138749489D01*
X102895585Y-139235670D01*
X103205069Y-139442461D01*
X102789268Y-139813964D01*
X102535291Y-140341209D01*
X102532642Y-140356974D01*
X102653783Y-140589000D01*
X104013000Y-140589000D01*
X104013000Y-140569000D01*
X104267000Y-140569000D01*
X104267000Y-140589000D01*
X106553000Y-140589000D01*
X106553000Y-140569000D01*
X106807000Y-140569000D01*
X106807000Y-140589000D01*
X108166217Y-140589000D01*
X108287358Y-140356974D01*
X108284709Y-140341209D01*
X108030732Y-139813964D01*
X107614931Y-139442461D01*
X107924415Y-139235670D01*
X108249271Y-138749489D01*
X108363345Y-138176000D01*
X108249271Y-137602511D01*
X107924415Y-137116330D01*
X107609634Y-136906000D01*
X107924415Y-136695670D01*
X108249271Y-136209489D01*
X108363345Y-135636000D01*
X108249271Y-135062511D01*
X107924415Y-134576330D01*
X107614931Y-134369539D01*
X108030732Y-133998036D01*
X108284709Y-133470791D01*
X108287358Y-133455026D01*
X108166217Y-133223000D01*
X106807000Y-133223000D01*
X106807000Y-133243000D01*
X106553000Y-133243000D01*
X106553000Y-133223000D01*
X104267000Y-133223000D01*
X104267000Y-133243000D01*
X104013000Y-133243000D01*
X104013000Y-133223000D01*
X102653783Y-133223000D01*
X102532642Y-133455026D01*
X102535291Y-133470791D01*
X102789268Y-133998036D01*
X103205069Y-134369539D01*
X102895585Y-134576330D01*
X102570729Y-135062511D01*
X102456655Y-135636000D01*
X100761000Y-135636000D01*
X100761000Y-130915026D01*
X102532642Y-130915026D01*
X102535291Y-130930791D01*
X102789268Y-131458036D01*
X103201108Y-131826000D01*
X102789268Y-132193964D01*
X102535291Y-132721209D01*
X102532642Y-132736974D01*
X102653783Y-132969000D01*
X104013000Y-132969000D01*
X104013000Y-130683000D01*
X104267000Y-130683000D01*
X104267000Y-132969000D01*
X106553000Y-132969000D01*
X106553000Y-130683000D01*
X106807000Y-130683000D01*
X106807000Y-132969000D01*
X108166217Y-132969000D01*
X108287358Y-132736974D01*
X108284709Y-132721209D01*
X108030732Y-132193964D01*
X107618892Y-131826000D01*
X108030732Y-131458036D01*
X108284709Y-130930791D01*
X108287358Y-130915026D01*
X108166217Y-130683000D01*
X106807000Y-130683000D01*
X106553000Y-130683000D01*
X104267000Y-130683000D01*
X104013000Y-130683000D01*
X102653783Y-130683000D01*
X102532642Y-130915026D01*
X100761000Y-130915026D01*
X100761000Y-125476000D01*
X102456655Y-125476000D01*
X102570729Y-126049489D01*
X102895585Y-126535670D01*
X103210366Y-126746000D01*
X102895585Y-126956330D01*
X102570729Y-127442511D01*
X102456655Y-128016000D01*
X102570729Y-128589489D01*
X102895585Y-129075670D01*
X103205069Y-129282461D01*
X102789268Y-129653964D01*
X102535291Y-130181209D01*
X102532642Y-130196974D01*
X102653783Y-130429000D01*
X104013000Y-130429000D01*
X104013000Y-130409000D01*
X104267000Y-130409000D01*
X104267000Y-130429000D01*
X106553000Y-130429000D01*
X106553000Y-130409000D01*
X106807000Y-130409000D01*
X106807000Y-130429000D01*
X108166217Y-130429000D01*
X108287358Y-130196974D01*
X108284709Y-130181209D01*
X108030732Y-129653964D01*
X107614931Y-129282461D01*
X107924415Y-129075670D01*
X108249271Y-128589489D01*
X108363345Y-128016000D01*
X108249271Y-127442511D01*
X107924415Y-126956330D01*
X107609634Y-126746000D01*
X107924415Y-126535670D01*
X108249271Y-126049489D01*
X108363345Y-125476000D01*
X108249271Y-124902511D01*
X107924415Y-124416330D01*
X107614931Y-124209539D01*
X108030732Y-123838036D01*
X108284709Y-123310791D01*
X108287358Y-123295026D01*
X108166217Y-123063000D01*
X106807000Y-123063000D01*
X106807000Y-123083000D01*
X106553000Y-123083000D01*
X106553000Y-123063000D01*
X104267000Y-123063000D01*
X104267000Y-123083000D01*
X104013000Y-123083000D01*
X104013000Y-123063000D01*
X102653783Y-123063000D01*
X102532642Y-123295026D01*
X102535291Y-123310791D01*
X102789268Y-123838036D01*
X103205069Y-124209539D01*
X102895585Y-124416330D01*
X102570729Y-124902511D01*
X102456655Y-125476000D01*
X100761000Y-125476000D01*
X100761000Y-120755026D01*
X102532642Y-120755026D01*
X102535291Y-120770791D01*
X102789268Y-121298036D01*
X103201108Y-121666000D01*
X102789268Y-122033964D01*
X102535291Y-122561209D01*
X102532642Y-122576974D01*
X102653783Y-122809000D01*
X104013000Y-122809000D01*
X104013000Y-120523000D01*
X104267000Y-120523000D01*
X104267000Y-122809000D01*
X106553000Y-122809000D01*
X106553000Y-120523000D01*
X106807000Y-120523000D01*
X106807000Y-122809000D01*
X108166217Y-122809000D01*
X108287358Y-122576974D01*
X108284709Y-122561209D01*
X108030732Y-122033964D01*
X107618892Y-121666000D01*
X108030732Y-121298036D01*
X108284709Y-120770791D01*
X108287358Y-120755026D01*
X108166217Y-120523000D01*
X106807000Y-120523000D01*
X106553000Y-120523000D01*
X104267000Y-120523000D01*
X104013000Y-120523000D01*
X102653783Y-120523000D01*
X102532642Y-120755026D01*
X100761000Y-120755026D01*
X100761000Y-117856000D01*
X102456655Y-117856000D01*
X102570729Y-118429489D01*
X102895585Y-118915670D01*
X102938670Y-118944459D01*
X102983880Y-119012120D01*
X103181086Y-119143889D01*
X102789268Y-119493964D01*
X102535291Y-120021209D01*
X102532642Y-120036974D01*
X102653783Y-120269000D01*
X104013000Y-120269000D01*
X104013000Y-120249000D01*
X104267000Y-120249000D01*
X104267000Y-120269000D01*
X106553000Y-120269000D01*
X106553000Y-120249000D01*
X106807000Y-120249000D01*
X106807000Y-120269000D01*
X108166217Y-120269000D01*
X108287358Y-120036974D01*
X108284709Y-120021209D01*
X108030732Y-119493964D01*
X107638914Y-119143889D01*
X107836120Y-119012120D01*
X107881330Y-118944459D01*
X107924415Y-118915670D01*
X108249271Y-118429489D01*
X108363345Y-117856000D01*
X108315000Y-117612953D01*
X108315000Y-116320041D01*
X108343440Y-116179600D01*
X108343440Y-114452400D01*
X108299162Y-114217083D01*
X108160090Y-114000959D01*
X107947890Y-113855969D01*
X107696000Y-113804960D01*
X107303188Y-113804960D01*
X106680000Y-113681000D01*
X104140005Y-113681000D01*
X104140000Y-113680999D01*
X103516811Y-113804960D01*
X103124000Y-113804960D01*
X102888683Y-113849238D01*
X102672559Y-113988310D01*
X102527569Y-114200510D01*
X102476560Y-114452400D01*
X102476560Y-116179600D01*
X102505000Y-116330745D01*
X102505000Y-117612953D01*
X102456655Y-117856000D01*
X100761000Y-117856000D01*
X100761000Y-107719467D01*
X101453138Y-107719467D01*
X101704375Y-108116169D01*
X102766446Y-108551227D01*
X103914162Y-108546730D01*
X104953625Y-108116169D01*
X105204862Y-107719467D01*
X103329000Y-105843605D01*
X101453138Y-107719467D01*
X100761000Y-107719467D01*
X100761000Y-107008985D01*
X100876831Y-107288625D01*
X101273533Y-107539862D01*
X103149395Y-105664000D01*
X103508605Y-105664000D01*
X105384467Y-107539862D01*
X105781169Y-107288625D01*
X106216227Y-106226554D01*
X106213314Y-105483078D01*
X109056378Y-105483078D01*
X109085917Y-105993428D01*
X109224389Y-106327729D01*
X109454984Y-106383410D01*
X110174395Y-105664000D01*
X109454984Y-104944590D01*
X109224389Y-105000271D01*
X109056378Y-105483078D01*
X106213314Y-105483078D01*
X106211730Y-105078838D01*
X106081728Y-104764984D01*
X109634590Y-104764984D01*
X110354000Y-105484395D01*
X111073410Y-104764984D01*
X111017729Y-104534389D01*
X110534922Y-104366378D01*
X110024572Y-104395917D01*
X109690271Y-104534389D01*
X109634590Y-104764984D01*
X106081728Y-104764984D01*
X105781169Y-104039375D01*
X105755339Y-104023016D01*
X110774590Y-104023016D01*
X110830271Y-104253611D01*
X111313078Y-104421622D01*
X111823428Y-104392083D01*
X112157729Y-104253611D01*
X112213410Y-104023016D01*
X111494000Y-103303605D01*
X110774590Y-104023016D01*
X105755339Y-104023016D01*
X105384467Y-103788138D01*
X103508605Y-105664000D01*
X103149395Y-105664000D01*
X101273533Y-103788138D01*
X100876831Y-104039375D01*
X100761000Y-104322144D01*
X100761000Y-103608533D01*
X101453138Y-103608533D01*
X103329000Y-105484395D01*
X105204862Y-103608533D01*
X104953625Y-103211831D01*
X104297541Y-102943078D01*
X110196378Y-102943078D01*
X110225917Y-103453428D01*
X110364389Y-103787729D01*
X110594984Y-103843410D01*
X111314395Y-103124000D01*
X110594984Y-102404590D01*
X110364389Y-102460271D01*
X110196378Y-102943078D01*
X104297541Y-102943078D01*
X103891554Y-102776773D01*
X102743838Y-102781270D01*
X101704375Y-103211831D01*
X101453138Y-103608533D01*
X100761000Y-103608533D01*
X100761000Y-102224984D01*
X110774590Y-102224984D01*
X111494000Y-102944395D01*
X112213410Y-102224984D01*
X112157729Y-101994389D01*
X111674922Y-101826378D01*
X111164572Y-101855917D01*
X110830271Y-101994389D01*
X110774590Y-102224984D01*
X100761000Y-102224984D01*
X100761000Y-100761000D01*
X114987567Y-100761000D01*
X113909458Y-101839108D01*
X113909458Y-101839108D01*
G37*
X113909458Y-101839108D02*
X113529519Y-101838777D01*
X113057057Y-102033995D01*
X112695265Y-102395155D01*
X112645891Y-102514060D01*
X112623611Y-102460271D01*
X112393016Y-102404590D01*
X111673605Y-103124000D01*
X112393016Y-103843410D01*
X112623611Y-103787729D01*
X112643847Y-103729577D01*
X112693995Y-103850943D01*
X113055155Y-104212735D01*
X113527276Y-104408777D01*
X114038481Y-104409223D01*
X114510943Y-104214005D01*
X114872735Y-103852845D01*
X114928896Y-103717594D01*
X114983995Y-103850943D01*
X115345155Y-104212735D01*
X115817276Y-104408777D01*
X116328481Y-104409223D01*
X116800943Y-104214005D01*
X117162735Y-103852845D01*
X117218896Y-103717594D01*
X117273995Y-103850943D01*
X117635155Y-104212735D01*
X118107276Y-104408777D01*
X118618481Y-104409223D01*
X119090943Y-104214005D01*
X119452735Y-103852845D01*
X119508896Y-103717594D01*
X119563995Y-103850943D01*
X119925155Y-104212735D01*
X120397276Y-104408777D01*
X120908481Y-104409223D01*
X121380943Y-104214005D01*
X121742735Y-103852845D01*
X121938777Y-103380724D01*
X121939167Y-102933500D01*
X127366323Y-102933500D01*
X126694375Y-103211831D01*
X126443138Y-103608533D01*
X128319000Y-105484395D01*
X128333143Y-105470253D01*
X128512748Y-105649858D01*
X128498605Y-105664000D01*
X130374467Y-107539862D01*
X130771169Y-107288625D01*
X131206227Y-106226554D01*
X131203171Y-105446605D01*
X135608931Y-109852364D01*
X135456852Y-109915357D01*
X135370446Y-110171841D01*
X136271000Y-111072395D01*
X136285143Y-111058253D01*
X136464748Y-111237858D01*
X136450605Y-111252000D01*
X137351159Y-112152554D01*
X137501327Y-112101965D01*
X137508932Y-112120371D01*
X137940357Y-112552551D01*
X138504330Y-112786733D01*
X139114991Y-112787265D01*
X139679371Y-112554068D01*
X140081323Y-112152818D01*
X140480357Y-112552551D01*
X141044330Y-112786733D01*
X141654991Y-112787265D01*
X142219371Y-112554068D01*
X142621323Y-112152818D01*
X143020357Y-112552551D01*
X143584330Y-112786733D01*
X144194991Y-112787265D01*
X144462500Y-112676733D01*
X144462500Y-127674067D01*
X141910283Y-130226283D01*
X141731337Y-130494094D01*
X141731337Y-130494095D01*
X141668500Y-130810000D01*
X141668500Y-134874000D01*
X141731337Y-135189906D01*
X141910283Y-135457717D01*
X142674250Y-136221684D01*
X142588655Y-136652000D01*
X142702729Y-137225489D01*
X143027585Y-137711670D01*
X143342366Y-137922000D01*
X143027585Y-138132330D01*
X142702729Y-138618511D01*
X142588655Y-139192000D01*
X142702729Y-139765489D01*
X143027585Y-140251670D01*
X143513766Y-140576526D01*
X144087255Y-140690600D01*
X144456745Y-140690600D01*
X145030234Y-140576526D01*
X145516415Y-140251670D01*
X145542000Y-140213379D01*
X145567585Y-140251670D01*
X146053766Y-140576526D01*
X146627255Y-140690600D01*
X146996745Y-140690600D01*
X147570234Y-140576526D01*
X148056415Y-140251670D01*
X148381271Y-139765489D01*
X148495345Y-139192000D01*
X148381271Y-138618511D01*
X148056415Y-138132330D01*
X147741634Y-137922000D01*
X148056415Y-137711670D01*
X148381271Y-137225489D01*
X148495345Y-136652000D01*
X148381271Y-136078511D01*
X148056415Y-135592330D01*
X147741634Y-135382000D01*
X148056415Y-135171670D01*
X148381271Y-134685489D01*
X148495345Y-134112000D01*
X148381271Y-133538511D01*
X148056415Y-133052330D01*
X148042087Y-133042757D01*
X148063317Y-133038762D01*
X148279441Y-132899690D01*
X148424431Y-132687490D01*
X148475440Y-132435600D01*
X148475440Y-130708400D01*
X148431162Y-130473083D01*
X148292090Y-130256959D01*
X148079890Y-130111969D01*
X147828000Y-130060960D01*
X145796000Y-130060960D01*
X145560683Y-130105238D01*
X145544901Y-130115393D01*
X145539890Y-130111969D01*
X145288000Y-130060960D01*
X144410474Y-130060960D01*
X145871714Y-128599719D01*
X145871717Y-128599717D01*
X146050663Y-128331905D01*
X146113501Y-128016000D01*
X146113500Y-128015995D01*
X146113500Y-110744005D01*
X146113501Y-110744000D01*
X146050663Y-110428095D01*
X145999448Y-110351446D01*
X145871717Y-110160283D01*
X145871714Y-110160281D01*
X145814347Y-110102914D01*
X146029371Y-110014068D01*
X146461551Y-109582643D01*
X146695733Y-109018670D01*
X146696265Y-108408009D01*
X146463068Y-107843629D01*
X146031643Y-107411449D01*
X145467670Y-107177267D01*
X144857009Y-107176735D01*
X144292629Y-107409932D01*
X143860449Y-107841357D01*
X143851797Y-107862194D01*
X143701159Y-107811446D01*
X142800605Y-108712000D01*
X142814748Y-108726143D01*
X142635143Y-108905748D01*
X142621000Y-108891605D01*
X142606858Y-108905748D01*
X142427253Y-108726143D01*
X142441395Y-108712000D01*
X141540841Y-107811446D01*
X141390673Y-107862035D01*
X141383068Y-107843629D01*
X141171650Y-107631841D01*
X141720446Y-107631841D01*
X142621000Y-108532395D01*
X143521554Y-107631841D01*
X143435148Y-107375357D01*
X142861664Y-107165542D01*
X142251540Y-107191161D01*
X141806852Y-107375357D01*
X141720446Y-107631841D01*
X141171650Y-107631841D01*
X140951643Y-107411449D01*
X140387670Y-107177267D01*
X139777009Y-107176735D01*
X139731834Y-107195401D01*
X139140717Y-106604283D01*
X138872906Y-106425337D01*
X138557000Y-106362500D01*
X136993933Y-106362500D01*
X135378764Y-104747330D01*
X135473325Y-104747413D01*
X136350229Y-104385084D01*
X137021726Y-103714758D01*
X137385585Y-102838487D01*
X137386413Y-101889675D01*
X137024084Y-101012771D01*
X136772752Y-100761000D01*
X144658950Y-100761000D01*
X144410274Y-101009242D01*
X144046415Y-101885513D01*
X144045587Y-102834325D01*
X144407916Y-103711229D01*
X145078242Y-104382726D01*
X145954513Y-104746585D01*
X146903325Y-104747413D01*
X147780229Y-104385084D01*
X148451726Y-103714758D01*
X148815585Y-102838487D01*
X148816413Y-101889675D01*
X148454084Y-101012771D01*
X148202752Y-100761000D01*
X149175000Y-100761000D01*
X149175000Y-141569146D01*
X148616638Y-141337293D01*
X147946303Y-141336708D01*
X147326771Y-141592694D01*
X146852360Y-142066278D01*
X146595293Y-142685362D01*
X146594708Y-143355697D01*
X146850694Y-143975229D01*
X146862298Y-143986854D01*
X146726009Y-143986735D01*
X146161629Y-144219932D01*
X145729449Y-144651357D01*
X145495267Y-145215330D01*
X145494735Y-145825991D01*
X145727932Y-146390371D01*
X146159357Y-146822551D01*
X146723330Y-147056733D01*
X147333991Y-147057265D01*
X147898371Y-146824068D01*
X148330551Y-146392643D01*
X148564733Y-145828670D01*
X148565265Y-145218009D01*
X148354148Y-144707065D01*
X148613697Y-144707292D01*
X149175000Y-144475366D01*
X149175000Y-149175000D01*
X140205627Y-149175000D01*
X140314371Y-149130068D01*
X140746551Y-148698643D01*
X140980733Y-148134670D01*
X140981265Y-147524009D01*
X140748068Y-146959629D01*
X140391223Y-146602159D01*
X141629446Y-146602159D01*
X141715852Y-146858643D01*
X142289336Y-147068458D01*
X142899460Y-147042839D01*
X143344148Y-146858643D01*
X143430554Y-146602159D01*
X142530000Y-145701605D01*
X141629446Y-146602159D01*
X140391223Y-146602159D01*
X140346818Y-146557677D01*
X140746551Y-146158643D01*
X140980733Y-145594670D01*
X140981265Y-144984009D01*
X140850806Y-144668274D01*
X140943362Y-144706707D01*
X141196101Y-144706928D01*
X141193357Y-144707852D01*
X140983542Y-145281336D01*
X141009161Y-145891460D01*
X141193357Y-146336148D01*
X141449841Y-146422554D01*
X142350395Y-145522000D01*
X142709605Y-145522000D01*
X143610159Y-146422554D01*
X143866643Y-146336148D01*
X144076458Y-145762664D01*
X144050839Y-145152540D01*
X143866643Y-144707852D01*
X143610159Y-144621446D01*
X142709605Y-145522000D01*
X142350395Y-145522000D01*
X142336253Y-145507858D01*
X142515858Y-145328253D01*
X142530000Y-145342395D01*
X143430554Y-144441841D01*
X143344148Y-144185357D01*
X142770664Y-143975542D01*
X142707152Y-143978209D01*
X142707640Y-143977722D01*
X142964707Y-143358638D01*
X142965292Y-142688303D01*
X142709306Y-142068771D01*
X142235722Y-141594360D01*
X141616638Y-141337293D01*
X140946303Y-141336708D01*
X140326771Y-141592694D01*
X139892081Y-142026626D01*
X139798090Y-141880559D01*
X139585890Y-141735569D01*
X139552510Y-141728809D01*
X139693699Y-141670327D01*
X139872327Y-141491698D01*
X139969000Y-141258309D01*
X139969000Y-141067750D01*
X139810250Y-140909000D01*
X138811000Y-140909000D01*
X138811000Y-140929000D01*
X138557000Y-140929000D01*
X138557000Y-140909000D01*
X137746568Y-140909000D01*
X137734000Y-140906500D01*
X129032000Y-140906500D01*
X128716095Y-140969337D01*
X128448283Y-141148283D01*
X128448281Y-141148286D01*
X128182066Y-141414500D01*
X127762440Y-141414500D01*
X127762440Y-140305691D01*
X129779000Y-140305691D01*
X129779000Y-140496250D01*
X129937750Y-140655000D01*
X130937000Y-140655000D01*
X130937000Y-139955750D01*
X131191000Y-139955750D01*
X131191000Y-140655000D01*
X132190250Y-140655000D01*
X132334000Y-140511250D01*
X132477750Y-140655000D01*
X133477000Y-140655000D01*
X133477000Y-139955750D01*
X133731000Y-139955750D01*
X133731000Y-140655000D01*
X134730250Y-140655000D01*
X134874000Y-140511250D01*
X135017750Y-140655000D01*
X136017000Y-140655000D01*
X136017000Y-139955750D01*
X136271000Y-139955750D01*
X136271000Y-140655000D01*
X137270250Y-140655000D01*
X137414000Y-140511250D01*
X137557750Y-140655000D01*
X138557000Y-140655000D01*
X138557000Y-139955750D01*
X138811000Y-139955750D01*
X138811000Y-140655000D01*
X139810250Y-140655000D01*
X139969000Y-140496250D01*
X139969000Y-140305691D01*
X139872327Y-140072302D01*
X139693699Y-139893673D01*
X139460310Y-139797000D01*
X138969750Y-139797000D01*
X138811000Y-139955750D01*
X138557000Y-139955750D01*
X138398250Y-139797000D01*
X137907690Y-139797000D01*
X137674301Y-139893673D01*
X137495673Y-140072302D01*
X137414000Y-140269478D01*
X137332327Y-140072302D01*
X137153699Y-139893673D01*
X136920310Y-139797000D01*
X136429750Y-139797000D01*
X136271000Y-139955750D01*
X136017000Y-139955750D01*
X135858250Y-139797000D01*
X135367690Y-139797000D01*
X135134301Y-139893673D01*
X134955673Y-140072302D01*
X134874000Y-140269478D01*
X134792327Y-140072302D01*
X134613699Y-139893673D01*
X134380310Y-139797000D01*
X133889750Y-139797000D01*
X133731000Y-139955750D01*
X133477000Y-139955750D01*
X133318250Y-139797000D01*
X132827690Y-139797000D01*
X132594301Y-139893673D01*
X132415673Y-140072302D01*
X132334000Y-140269478D01*
X132252327Y-140072302D01*
X132073699Y-139893673D01*
X131840310Y-139797000D01*
X131349750Y-139797000D01*
X131191000Y-139955750D01*
X130937000Y-139955750D01*
X130778250Y-139797000D01*
X130287690Y-139797000D01*
X130054301Y-139893673D01*
X129875673Y-140072302D01*
X129779000Y-140305691D01*
X127762440Y-140305691D01*
X127762440Y-137950000D01*
X127718162Y-137714683D01*
X127579090Y-137498559D01*
X127366890Y-137353569D01*
X127115000Y-137302560D01*
X125615000Y-137302560D01*
X125379683Y-137346838D01*
X125163559Y-137485910D01*
X125095266Y-137585860D01*
X125039090Y-137498559D01*
X124826890Y-137353569D01*
X124650500Y-137317849D01*
X124650500Y-112332159D01*
X135370446Y-112332159D01*
X135456852Y-112588643D01*
X136030336Y-112798458D01*
X136640460Y-112772839D01*
X137085148Y-112588643D01*
X137171554Y-112332159D01*
X136271000Y-111431605D01*
X135370446Y-112332159D01*
X124650500Y-112332159D01*
X124650500Y-111011336D01*
X134724542Y-111011336D01*
X134750161Y-111621460D01*
X134934357Y-112066148D01*
X135190841Y-112152554D01*
X136091395Y-111252000D01*
X135190841Y-110351446D01*
X134934357Y-110437852D01*
X134724542Y-111011336D01*
X124650500Y-111011336D01*
X124650500Y-108585005D01*
X124650501Y-108585000D01*
X124587663Y-108269095D01*
X124408717Y-108001283D01*
X124126901Y-107719467D01*
X126443138Y-107719467D01*
X126694375Y-108116169D01*
X127756446Y-108551227D01*
X128904162Y-108546730D01*
X129943625Y-108116169D01*
X130194862Y-107719467D01*
X128319000Y-105843605D01*
X126443138Y-107719467D01*
X124126901Y-107719467D01*
X122503717Y-106096283D01*
X122235906Y-105917337D01*
X121920000Y-105854500D01*
X120798835Y-105854500D01*
X120799223Y-105409519D01*
X120671930Y-105101446D01*
X125431773Y-105101446D01*
X125436270Y-106249162D01*
X125866831Y-107288625D01*
X126263533Y-107539862D01*
X128139395Y-105664000D01*
X126263533Y-103788138D01*
X125866831Y-104039375D01*
X125431773Y-105101446D01*
X120671930Y-105101446D01*
X120604005Y-104937057D01*
X120242845Y-104575265D01*
X119770724Y-104379223D01*
X119259519Y-104378777D01*
X118787057Y-104573995D01*
X118425265Y-104935155D01*
X118369104Y-105070406D01*
X118314005Y-104937057D01*
X117952845Y-104575265D01*
X117480724Y-104379223D01*
X116969519Y-104378777D01*
X116497057Y-104573995D01*
X116135265Y-104935155D01*
X116079104Y-105070406D01*
X116024005Y-104937057D01*
X115662845Y-104575265D01*
X115190724Y-104379223D01*
X114679519Y-104378777D01*
X114207057Y-104573995D01*
X113845265Y-104935155D01*
X113811390Y-105016734D01*
X113776547Y-105040016D01*
X113734005Y-104937057D01*
X113372845Y-104575265D01*
X112900724Y-104379223D01*
X112389519Y-104378777D01*
X111917057Y-104573995D01*
X111555265Y-104935155D01*
X111505891Y-105054060D01*
X111483611Y-105000271D01*
X111253016Y-104944590D01*
X110533605Y-105664000D01*
X110547748Y-105678142D01*
X110368142Y-105857748D01*
X110354000Y-105843605D01*
X109634590Y-106563016D01*
X109690271Y-106793611D01*
X109898495Y-106866071D01*
X109652283Y-107112283D01*
X109473337Y-107380094D01*
X109425561Y-107620283D01*
X109410500Y-107696000D01*
X109410500Y-109220000D01*
X109473337Y-109535906D01*
X109652283Y-109803717D01*
X110299500Y-110450934D01*
X110299500Y-137316766D01*
X110139683Y-137346838D01*
X109923559Y-137485910D01*
X109778569Y-137698110D01*
X109727560Y-137950000D01*
X109727560Y-141450000D01*
X109771838Y-141685317D01*
X109910910Y-141901441D01*
X110123110Y-142046431D01*
X110375000Y-142097440D01*
X111875000Y-142097440D01*
X112110317Y-142053162D01*
X112326441Y-141914090D01*
X112381478Y-141833541D01*
X112450910Y-141941441D01*
X112663110Y-142086431D01*
X112915000Y-142137440D01*
X114415000Y-142137440D01*
X114650317Y-142093162D01*
X114866441Y-141954090D01*
X114934734Y-141854140D01*
X114990910Y-141941441D01*
X115203110Y-142086431D01*
X115455000Y-142137440D01*
X116955000Y-142137440D01*
X117190317Y-142093162D01*
X117406441Y-141954090D01*
X117474734Y-141854140D01*
X117530910Y-141941441D01*
X117743110Y-142086431D01*
X117995000Y-142137440D01*
X119364360Y-142137440D01*
X119252337Y-142305094D01*
X119244102Y-142346492D01*
X119029683Y-142386838D01*
X118813559Y-142525910D01*
X118745266Y-142625860D01*
X118689090Y-142538559D01*
X118476890Y-142393569D01*
X118225000Y-142342560D01*
X116725000Y-142342560D01*
X116489683Y-142386838D01*
X116273559Y-142525910D01*
X116205266Y-142625860D01*
X116149090Y-142538559D01*
X115936890Y-142393569D01*
X115685000Y-142342560D01*
X114185000Y-142342560D01*
X113949683Y-142386838D01*
X113733559Y-142525910D01*
X113665266Y-142625860D01*
X113609090Y-142538559D01*
X113396890Y-142393569D01*
X113145000Y-142342560D01*
X111645000Y-142342560D01*
X111409683Y-142386838D01*
X111193559Y-142525910D01*
X111048569Y-142738110D01*
X110997560Y-142990000D01*
X110997560Y-146490000D01*
X111041838Y-146725317D01*
X111180910Y-146941441D01*
X111393110Y-147086431D01*
X111645000Y-147137440D01*
X112442006Y-147137440D01*
X113208281Y-147903714D01*
X113208283Y-147903717D01*
X113317920Y-147976974D01*
X113476094Y-148082663D01*
X113792000Y-148145500D01*
X128524000Y-148145500D01*
X128839906Y-148082663D01*
X129107717Y-147903717D01*
X129931201Y-147080233D01*
X129972283Y-147141717D01*
X130309056Y-147478490D01*
X130291267Y-147521330D01*
X130290735Y-148131991D01*
X130523932Y-148696371D01*
X130955357Y-149128551D01*
X131067219Y-149175000D01*
X108061097Y-149175000D01*
X108284709Y-148710791D01*
X108287358Y-148695026D01*
X108166217Y-148463000D01*
X106807000Y-148463000D01*
X106807000Y-148483000D01*
X106553000Y-148483000D01*
X106553000Y-148463000D01*
X104267000Y-148463000D01*
X104267000Y-148483000D01*
X104013000Y-148483000D01*
X104013000Y-148463000D01*
X102653783Y-148463000D01*
X102532642Y-148695026D01*
X102535291Y-148710791D01*
X102758903Y-149175000D01*
X100761000Y-149175000D01*
X100761000Y-145796000D01*
X102456655Y-145796000D01*
X102570729Y-146369489D01*
X102895585Y-146855670D01*
X103205069Y-147062461D01*
X102789268Y-147433964D01*
X102535291Y-147961209D01*
X102532642Y-147976974D01*
X102653783Y-148209000D01*
X104013000Y-148209000D01*
X104013000Y-148189000D01*
X104267000Y-148189000D01*
X104267000Y-148209000D01*
X106553000Y-148209000D01*
X106553000Y-148189000D01*
X106807000Y-148189000D01*
X106807000Y-148209000D01*
X108166217Y-148209000D01*
X108287358Y-147976974D01*
X108284709Y-147961209D01*
X108030732Y-147433964D01*
X107614931Y-147062461D01*
X107924415Y-146855670D01*
X108249271Y-146369489D01*
X108363345Y-145796000D01*
X108249271Y-145222511D01*
X107924415Y-144736330D01*
X107614931Y-144529539D01*
X108030732Y-144158036D01*
X108284709Y-143630791D01*
X108287358Y-143615026D01*
X108166217Y-143383000D01*
X106807000Y-143383000D01*
X106807000Y-143403000D01*
X106553000Y-143403000D01*
X106553000Y-143383000D01*
X104267000Y-143383000D01*
X104267000Y-143403000D01*
X104013000Y-143403000D01*
X104013000Y-143383000D01*
X102653783Y-143383000D01*
X102532642Y-143615026D01*
X102535291Y-143630791D01*
X102789268Y-144158036D01*
X103205069Y-144529539D01*
X102895585Y-144736330D01*
X102570729Y-145222511D01*
X102456655Y-145796000D01*
X100761000Y-145796000D01*
X100761000Y-141075026D01*
X102532642Y-141075026D01*
X102535291Y-141090791D01*
X102789268Y-141618036D01*
X103201108Y-141986000D01*
X102789268Y-142353964D01*
X102535291Y-142881209D01*
X102532642Y-142896974D01*
X102653783Y-143129000D01*
X104013000Y-143129000D01*
X104013000Y-140843000D01*
X104267000Y-140843000D01*
X104267000Y-143129000D01*
X106553000Y-143129000D01*
X106553000Y-140843000D01*
X106807000Y-140843000D01*
X106807000Y-143129000D01*
X108166217Y-143129000D01*
X108287358Y-142896974D01*
X108284709Y-142881209D01*
X108030732Y-142353964D01*
X107618892Y-141986000D01*
X108030732Y-141618036D01*
X108284709Y-141090791D01*
X108287358Y-141075026D01*
X108166217Y-140843000D01*
X106807000Y-140843000D01*
X106553000Y-140843000D01*
X104267000Y-140843000D01*
X104013000Y-140843000D01*
X102653783Y-140843000D01*
X102532642Y-141075026D01*
X100761000Y-141075026D01*
X100761000Y-135636000D01*
X102456655Y-135636000D01*
X102570729Y-136209489D01*
X102895585Y-136695670D01*
X103210366Y-136906000D01*
X102895585Y-137116330D01*
X102570729Y-137602511D01*
X102456655Y-138176000D01*
X102570729Y-138749489D01*
X102895585Y-139235670D01*
X103205069Y-139442461D01*
X102789268Y-139813964D01*
X102535291Y-140341209D01*
X102532642Y-140356974D01*
X102653783Y-140589000D01*
X104013000Y-140589000D01*
X104013000Y-140569000D01*
X104267000Y-140569000D01*
X104267000Y-140589000D01*
X106553000Y-140589000D01*
X106553000Y-140569000D01*
X106807000Y-140569000D01*
X106807000Y-140589000D01*
X108166217Y-140589000D01*
X108287358Y-140356974D01*
X108284709Y-140341209D01*
X108030732Y-139813964D01*
X107614931Y-139442461D01*
X107924415Y-139235670D01*
X108249271Y-138749489D01*
X108363345Y-138176000D01*
X108249271Y-137602511D01*
X107924415Y-137116330D01*
X107609634Y-136906000D01*
X107924415Y-136695670D01*
X108249271Y-136209489D01*
X108363345Y-135636000D01*
X108249271Y-135062511D01*
X107924415Y-134576330D01*
X107614931Y-134369539D01*
X108030732Y-133998036D01*
X108284709Y-133470791D01*
X108287358Y-133455026D01*
X108166217Y-133223000D01*
X106807000Y-133223000D01*
X106807000Y-133243000D01*
X106553000Y-133243000D01*
X106553000Y-133223000D01*
X104267000Y-133223000D01*
X104267000Y-133243000D01*
X104013000Y-133243000D01*
X104013000Y-133223000D01*
X102653783Y-133223000D01*
X102532642Y-133455026D01*
X102535291Y-133470791D01*
X102789268Y-133998036D01*
X103205069Y-134369539D01*
X102895585Y-134576330D01*
X102570729Y-135062511D01*
X102456655Y-135636000D01*
X100761000Y-135636000D01*
X100761000Y-130915026D01*
X102532642Y-130915026D01*
X102535291Y-130930791D01*
X102789268Y-131458036D01*
X103201108Y-131826000D01*
X102789268Y-132193964D01*
X102535291Y-132721209D01*
X102532642Y-132736974D01*
X102653783Y-132969000D01*
X104013000Y-132969000D01*
X104013000Y-130683000D01*
X104267000Y-130683000D01*
X104267000Y-132969000D01*
X106553000Y-132969000D01*
X106553000Y-130683000D01*
X106807000Y-130683000D01*
X106807000Y-132969000D01*
X108166217Y-132969000D01*
X108287358Y-132736974D01*
X108284709Y-132721209D01*
X108030732Y-132193964D01*
X107618892Y-131826000D01*
X108030732Y-131458036D01*
X108284709Y-130930791D01*
X108287358Y-130915026D01*
X108166217Y-130683000D01*
X106807000Y-130683000D01*
X106553000Y-130683000D01*
X104267000Y-130683000D01*
X104013000Y-130683000D01*
X102653783Y-130683000D01*
X102532642Y-130915026D01*
X100761000Y-130915026D01*
X100761000Y-125476000D01*
X102456655Y-125476000D01*
X102570729Y-126049489D01*
X102895585Y-126535670D01*
X103210366Y-126746000D01*
X102895585Y-126956330D01*
X102570729Y-127442511D01*
X102456655Y-128016000D01*
X102570729Y-128589489D01*
X102895585Y-129075670D01*
X103205069Y-129282461D01*
X102789268Y-129653964D01*
X102535291Y-130181209D01*
X102532642Y-130196974D01*
X102653783Y-130429000D01*
X104013000Y-130429000D01*
X104013000Y-130409000D01*
X104267000Y-130409000D01*
X104267000Y-130429000D01*
X106553000Y-130429000D01*
X106553000Y-130409000D01*
X106807000Y-130409000D01*
X106807000Y-130429000D01*
X108166217Y-130429000D01*
X108287358Y-130196974D01*
X108284709Y-130181209D01*
X108030732Y-129653964D01*
X107614931Y-129282461D01*
X107924415Y-129075670D01*
X108249271Y-128589489D01*
X108363345Y-128016000D01*
X108249271Y-127442511D01*
X107924415Y-126956330D01*
X107609634Y-126746000D01*
X107924415Y-126535670D01*
X108249271Y-126049489D01*
X108363345Y-125476000D01*
X108249271Y-124902511D01*
X107924415Y-124416330D01*
X107614931Y-124209539D01*
X108030732Y-123838036D01*
X108284709Y-123310791D01*
X108287358Y-123295026D01*
X108166217Y-123063000D01*
X106807000Y-123063000D01*
X106807000Y-123083000D01*
X106553000Y-123083000D01*
X106553000Y-123063000D01*
X104267000Y-123063000D01*
X104267000Y-123083000D01*
X104013000Y-123083000D01*
X104013000Y-123063000D01*
X102653783Y-123063000D01*
X102532642Y-123295026D01*
X102535291Y-123310791D01*
X102789268Y-123838036D01*
X103205069Y-124209539D01*
X102895585Y-124416330D01*
X102570729Y-124902511D01*
X102456655Y-125476000D01*
X100761000Y-125476000D01*
X100761000Y-120755026D01*
X102532642Y-120755026D01*
X102535291Y-120770791D01*
X102789268Y-121298036D01*
X103201108Y-121666000D01*
X102789268Y-122033964D01*
X102535291Y-122561209D01*
X102532642Y-122576974D01*
X102653783Y-122809000D01*
X104013000Y-122809000D01*
X104013000Y-120523000D01*
X104267000Y-120523000D01*
X104267000Y-122809000D01*
X106553000Y-122809000D01*
X106553000Y-120523000D01*
X106807000Y-120523000D01*
X106807000Y-122809000D01*
X108166217Y-122809000D01*
X108287358Y-122576974D01*
X108284709Y-122561209D01*
X108030732Y-122033964D01*
X107618892Y-121666000D01*
X108030732Y-121298036D01*
X108284709Y-120770791D01*
X108287358Y-120755026D01*
X108166217Y-120523000D01*
X106807000Y-120523000D01*
X106553000Y-120523000D01*
X104267000Y-120523000D01*
X104013000Y-120523000D01*
X102653783Y-120523000D01*
X102532642Y-120755026D01*
X100761000Y-120755026D01*
X100761000Y-117856000D01*
X102456655Y-117856000D01*
X102570729Y-118429489D01*
X102895585Y-118915670D01*
X102938670Y-118944459D01*
X102983880Y-119012120D01*
X103181086Y-119143889D01*
X102789268Y-119493964D01*
X102535291Y-120021209D01*
X102532642Y-120036974D01*
X102653783Y-120269000D01*
X104013000Y-120269000D01*
X104013000Y-120249000D01*
X104267000Y-120249000D01*
X104267000Y-120269000D01*
X106553000Y-120269000D01*
X106553000Y-120249000D01*
X106807000Y-120249000D01*
X106807000Y-120269000D01*
X108166217Y-120269000D01*
X108287358Y-120036974D01*
X108284709Y-120021209D01*
X108030732Y-119493964D01*
X107638914Y-119143889D01*
X107836120Y-119012120D01*
X107881330Y-118944459D01*
X107924415Y-118915670D01*
X108249271Y-118429489D01*
X108363345Y-117856000D01*
X108315000Y-117612953D01*
X108315000Y-116320041D01*
X108343440Y-116179600D01*
X108343440Y-114452400D01*
X108299162Y-114217083D01*
X108160090Y-114000959D01*
X107947890Y-113855969D01*
X107696000Y-113804960D01*
X107303188Y-113804960D01*
X106680000Y-113681000D01*
X104140005Y-113681000D01*
X104140000Y-113680999D01*
X103516811Y-113804960D01*
X103124000Y-113804960D01*
X102888683Y-113849238D01*
X102672559Y-113988310D01*
X102527569Y-114200510D01*
X102476560Y-114452400D01*
X102476560Y-116179600D01*
X102505000Y-116330745D01*
X102505000Y-117612953D01*
X102456655Y-117856000D01*
X100761000Y-117856000D01*
X100761000Y-107719467D01*
X101453138Y-107719467D01*
X101704375Y-108116169D01*
X102766446Y-108551227D01*
X103914162Y-108546730D01*
X104953625Y-108116169D01*
X105204862Y-107719467D01*
X103329000Y-105843605D01*
X101453138Y-107719467D01*
X100761000Y-107719467D01*
X100761000Y-107008985D01*
X100876831Y-107288625D01*
X101273533Y-107539862D01*
X103149395Y-105664000D01*
X103508605Y-105664000D01*
X105384467Y-107539862D01*
X105781169Y-107288625D01*
X106216227Y-106226554D01*
X106213314Y-105483078D01*
X109056378Y-105483078D01*
X109085917Y-105993428D01*
X109224389Y-106327729D01*
X109454984Y-106383410D01*
X110174395Y-105664000D01*
X109454984Y-104944590D01*
X109224389Y-105000271D01*
X109056378Y-105483078D01*
X106213314Y-105483078D01*
X106211730Y-105078838D01*
X106081728Y-104764984D01*
X109634590Y-104764984D01*
X110354000Y-105484395D01*
X111073410Y-104764984D01*
X111017729Y-104534389D01*
X110534922Y-104366378D01*
X110024572Y-104395917D01*
X109690271Y-104534389D01*
X109634590Y-104764984D01*
X106081728Y-104764984D01*
X105781169Y-104039375D01*
X105755339Y-104023016D01*
X110774590Y-104023016D01*
X110830271Y-104253611D01*
X111313078Y-104421622D01*
X111823428Y-104392083D01*
X112157729Y-104253611D01*
X112213410Y-104023016D01*
X111494000Y-103303605D01*
X110774590Y-104023016D01*
X105755339Y-104023016D01*
X105384467Y-103788138D01*
X103508605Y-105664000D01*
X103149395Y-105664000D01*
X101273533Y-103788138D01*
X100876831Y-104039375D01*
X100761000Y-104322144D01*
X100761000Y-103608533D01*
X101453138Y-103608533D01*
X103329000Y-105484395D01*
X105204862Y-103608533D01*
X104953625Y-103211831D01*
X104297541Y-102943078D01*
X110196378Y-102943078D01*
X110225917Y-103453428D01*
X110364389Y-103787729D01*
X110594984Y-103843410D01*
X111314395Y-103124000D01*
X110594984Y-102404590D01*
X110364389Y-102460271D01*
X110196378Y-102943078D01*
X104297541Y-102943078D01*
X103891554Y-102776773D01*
X102743838Y-102781270D01*
X101704375Y-103211831D01*
X101453138Y-103608533D01*
X100761000Y-103608533D01*
X100761000Y-102224984D01*
X110774590Y-102224984D01*
X111494000Y-102944395D01*
X112213410Y-102224984D01*
X112157729Y-101994389D01*
X111674922Y-101826378D01*
X111164572Y-101855917D01*
X110830271Y-101994389D01*
X110774590Y-102224984D01*
X100761000Y-102224984D01*
X100761000Y-100761000D01*
X114987567Y-100761000D01*
X113909458Y-101839108D01*
M02*
