M48
METRIC,TZ
T1C0.500
T2C0.635
T3C0.800
T4C0.900
T5C1.000
T6C1.016
T7C1.300
T8C3.000
T9C3.200
%
G90
G05
T1
X114935Y-144740
X117856Y-146304
X122555Y-144740
X124968Y-143256
X126365Y-139700
X127635Y-144780
X133096Y-143764
T2
X142748Y-119634
X146558Y-119634
T3
X110354Y-105664
X111494Y-103124
X111494Y-108204
X112644Y-105664
X113784Y-103124
X113784Y-108204
X114934Y-105664
X116074Y-103124
X116074Y-108204
X117224Y-105664
X118364Y-103124
X118364Y-108204
X119514Y-105664
X120654Y-103124
X120654Y-108204
T4
X136271Y-111252
X137541Y-108712
X138811Y-111252
X140081Y-108712
X141351Y-111252
X142621Y-108712
X143891Y-111252
X145161Y-108712
T5
X131826Y-145288
X131826Y-147828
X134366Y-145288
X134366Y-147828
X136906Y-145288
X136906Y-147828
X139446Y-145288
X139446Y-147828
X142530Y-145522
X147030Y-145522
T6
X104140Y-115316
X104140Y-117856
X104140Y-120396
X104140Y-122936
X104140Y-125476
X104140Y-128016
X104140Y-130556
X104140Y-133096
X104140Y-135636
X104140Y-138176
X104140Y-140716
X104140Y-143256
X104140Y-145796
X104140Y-148336
X106680Y-115316
X106680Y-117856
X106680Y-120396
X106680Y-122936
X106680Y-125476
X106680Y-128016
X106680Y-130556
X106680Y-133096
X106680Y-135636
X106680Y-138176
X106680Y-140716
X106680Y-143256
X106680Y-145796
X106680Y-148336
X144272Y-131572
X144272Y-134112
X144272Y-136652
X144272Y-139192
X146812Y-131572
X146812Y-134112
X146812Y-136652
X146812Y-139192
T7
X141280Y-143022
X148280Y-143022
T8
X103329Y-105664
X128319Y-105664
T9
X135001Y-102362
X146431Y-102362
T0
M30
