G04 #@! TF.FileFunction,Legend,Bot*
%FSLAX46Y46*%
G04 Gerber Fmt 4.6, Leading zero omitted, Abs format (unit mm)*
G04 Created by KiCad (PCBNEW 4.0.0-2.201512091501+6195~38~ubuntu14.04.1-stable) date Wed 16 Dec 2015 16:01:55 GMT*
%MOMM*%
G01*
G04 APERTURE LIST*
%ADD10C,0.100000*%
%ADD11C,0.120000*%
%ADD12C,0.110000*%
%ADD13C,0.150000*%
G04 APERTURE END LIST*
D10*
D11*
X140277810Y-102527714D02*
X140315905Y-102642000D01*
X140315905Y-102832476D01*
X140277810Y-102908666D01*
X140239714Y-102946762D01*
X140163524Y-102984857D01*
X140087333Y-102984857D01*
X140011143Y-102946762D01*
X139973048Y-102908666D01*
X139934952Y-102832476D01*
X139896857Y-102680095D01*
X139858762Y-102603904D01*
X139820667Y-102565809D01*
X139744476Y-102527714D01*
X139668286Y-102527714D01*
X139592095Y-102565809D01*
X139554000Y-102603904D01*
X139515905Y-102680095D01*
X139515905Y-102870571D01*
X139554000Y-102984857D01*
X140315905Y-103327714D02*
X139515905Y-103327714D01*
X139515905Y-103518190D01*
X139554000Y-103632476D01*
X139630190Y-103708667D01*
X139706381Y-103746762D01*
X139858762Y-103784857D01*
X139973048Y-103784857D01*
X140125429Y-103746762D01*
X140201619Y-103708667D01*
X140277810Y-103632476D01*
X140315905Y-103518190D01*
X140315905Y-103327714D01*
X140087333Y-104089619D02*
X140087333Y-104470571D01*
X140315905Y-104013428D02*
X139515905Y-104280095D01*
X140315905Y-104546762D01*
X140392095Y-104622952D02*
X140392095Y-105232476D01*
X139515905Y-105346762D02*
X139515905Y-105842000D01*
X139820667Y-105575333D01*
X139820667Y-105689619D01*
X139858762Y-105765809D01*
X139896857Y-105803905D01*
X139973048Y-105842000D01*
X140163524Y-105842000D01*
X140239714Y-105803905D01*
X140277810Y-105765809D01*
X140315905Y-105689619D01*
X140315905Y-105461047D01*
X140277810Y-105384857D01*
X140239714Y-105346762D01*
X139515905Y-106070571D02*
X140315905Y-106337238D01*
X139515905Y-106603905D01*
X139515905Y-106794381D02*
X139515905Y-107289619D01*
X139820667Y-107022952D01*
X139820667Y-107137238D01*
X139858762Y-107213428D01*
X139896857Y-107251524D01*
X139973048Y-107289619D01*
X140163524Y-107289619D01*
X140239714Y-107251524D01*
X140277810Y-107213428D01*
X140315905Y-107137238D01*
X140315905Y-106908666D01*
X140277810Y-106832476D01*
X140239714Y-106794381D01*
X145091143Y-105194381D02*
X145091143Y-105803905D01*
X145395905Y-105499143D02*
X144786381Y-105499143D01*
X144595905Y-106565810D02*
X144595905Y-106184857D01*
X144976857Y-106146762D01*
X144938762Y-106184857D01*
X144900667Y-106261048D01*
X144900667Y-106451524D01*
X144938762Y-106527714D01*
X144976857Y-106565810D01*
X145053048Y-106603905D01*
X145243524Y-106603905D01*
X145319714Y-106565810D01*
X145357810Y-106527714D01*
X145395905Y-106451524D01*
X145395905Y-106261048D01*
X145357810Y-106184857D01*
X145319714Y-106146762D01*
X144595905Y-106832476D02*
X145395905Y-107099143D01*
X144595905Y-107365810D01*
X144087810Y-112674381D02*
X144125905Y-112788667D01*
X144125905Y-112979143D01*
X144087810Y-113055333D01*
X144049714Y-113093429D01*
X143973524Y-113131524D01*
X143897333Y-113131524D01*
X143821143Y-113093429D01*
X143783048Y-113055333D01*
X143744952Y-112979143D01*
X143706857Y-112826762D01*
X143668762Y-112750571D01*
X143630667Y-112712476D01*
X143554476Y-112674381D01*
X143478286Y-112674381D01*
X143402095Y-112712476D01*
X143364000Y-112750571D01*
X143325905Y-112826762D01*
X143325905Y-113017238D01*
X143364000Y-113131524D01*
X144049714Y-113931524D02*
X144087810Y-113893429D01*
X144125905Y-113779143D01*
X144125905Y-113702953D01*
X144087810Y-113588667D01*
X144011619Y-113512476D01*
X143935429Y-113474381D01*
X143783048Y-113436286D01*
X143668762Y-113436286D01*
X143516381Y-113474381D01*
X143440190Y-113512476D01*
X143364000Y-113588667D01*
X143325905Y-113702953D01*
X143325905Y-113779143D01*
X143364000Y-113893429D01*
X143402095Y-113931524D01*
X144125905Y-114655334D02*
X144125905Y-114274381D01*
X143325905Y-114274381D01*
X144202095Y-114731524D02*
X144202095Y-115341048D01*
X143325905Y-115912477D02*
X143325905Y-115531524D01*
X143706857Y-115493429D01*
X143668762Y-115531524D01*
X143630667Y-115607715D01*
X143630667Y-115798191D01*
X143668762Y-115874381D01*
X143706857Y-115912477D01*
X143783048Y-115950572D01*
X143973524Y-115950572D01*
X144049714Y-115912477D01*
X144087810Y-115874381D01*
X144125905Y-115798191D01*
X144125905Y-115607715D01*
X144087810Y-115531524D01*
X144049714Y-115493429D01*
X143325905Y-116179143D02*
X144125905Y-116445810D01*
X143325905Y-116712477D01*
X141547810Y-112674381D02*
X141585905Y-112788667D01*
X141585905Y-112979143D01*
X141547810Y-113055333D01*
X141509714Y-113093429D01*
X141433524Y-113131524D01*
X141357333Y-113131524D01*
X141281143Y-113093429D01*
X141243048Y-113055333D01*
X141204952Y-112979143D01*
X141166857Y-112826762D01*
X141128762Y-112750571D01*
X141090667Y-112712476D01*
X141014476Y-112674381D01*
X140938286Y-112674381D01*
X140862095Y-112712476D01*
X140824000Y-112750571D01*
X140785905Y-112826762D01*
X140785905Y-113017238D01*
X140824000Y-113131524D01*
X141585905Y-113474381D02*
X140785905Y-113474381D01*
X140785905Y-113664857D01*
X140824000Y-113779143D01*
X140900190Y-113855334D01*
X140976381Y-113893429D01*
X141128762Y-113931524D01*
X141243048Y-113931524D01*
X141395429Y-113893429D01*
X141471619Y-113855334D01*
X141547810Y-113779143D01*
X141585905Y-113664857D01*
X141585905Y-113474381D01*
X141357333Y-114236286D02*
X141357333Y-114617238D01*
X141585905Y-114160095D02*
X140785905Y-114426762D01*
X141585905Y-114693429D01*
X141662095Y-114769619D02*
X141662095Y-115379143D01*
X140785905Y-115950572D02*
X140785905Y-115569619D01*
X141166857Y-115531524D01*
X141128762Y-115569619D01*
X141090667Y-115645810D01*
X141090667Y-115836286D01*
X141128762Y-115912476D01*
X141166857Y-115950572D01*
X141243048Y-115988667D01*
X141433524Y-115988667D01*
X141509714Y-115950572D01*
X141547810Y-115912476D01*
X141585905Y-115836286D01*
X141585905Y-115645810D01*
X141547810Y-115569619D01*
X141509714Y-115531524D01*
X140785905Y-116217238D02*
X141585905Y-116483905D01*
X140785905Y-116750572D01*
X142094000Y-105613429D02*
X142055905Y-105537238D01*
X142055905Y-105422953D01*
X142094000Y-105308667D01*
X142170190Y-105232476D01*
X142246381Y-105194381D01*
X142398762Y-105156286D01*
X142513048Y-105156286D01*
X142665429Y-105194381D01*
X142741619Y-105232476D01*
X142817810Y-105308667D01*
X142855905Y-105422953D01*
X142855905Y-105499143D01*
X142817810Y-105613429D01*
X142779714Y-105651524D01*
X142513048Y-105651524D01*
X142513048Y-105499143D01*
X142855905Y-105994381D02*
X142055905Y-105994381D01*
X142855905Y-106451524D01*
X142055905Y-106451524D01*
X142855905Y-106832476D02*
X142055905Y-106832476D01*
X142055905Y-107022952D01*
X142094000Y-107137238D01*
X142170190Y-107213429D01*
X142246381Y-107251524D01*
X142398762Y-107289619D01*
X142513048Y-107289619D01*
X142665429Y-107251524D01*
X142741619Y-107213429D01*
X142817810Y-107137238D01*
X142855905Y-107022952D01*
X142855905Y-106832476D01*
X135744000Y-113131524D02*
X135705905Y-113055333D01*
X135705905Y-112941048D01*
X135744000Y-112826762D01*
X135820190Y-112750571D01*
X135896381Y-112712476D01*
X136048762Y-112674381D01*
X136163048Y-112674381D01*
X136315429Y-112712476D01*
X136391619Y-112750571D01*
X136467810Y-112826762D01*
X136505905Y-112941048D01*
X136505905Y-113017238D01*
X136467810Y-113131524D01*
X136429714Y-113169619D01*
X136163048Y-113169619D01*
X136163048Y-113017238D01*
X136505905Y-113512476D02*
X135705905Y-113512476D01*
X136505905Y-113969619D01*
X135705905Y-113969619D01*
X136505905Y-114350571D02*
X135705905Y-114350571D01*
X135705905Y-114541047D01*
X135744000Y-114655333D01*
X135820190Y-114731524D01*
X135896381Y-114769619D01*
X136048762Y-114807714D01*
X136163048Y-114807714D01*
X136315429Y-114769619D01*
X136391619Y-114731524D01*
X136467810Y-114655333D01*
X136505905Y-114541047D01*
X136505905Y-114350571D01*
X137737810Y-102565809D02*
X137775905Y-102680095D01*
X137775905Y-102870571D01*
X137737810Y-102946761D01*
X137699714Y-102984857D01*
X137623524Y-103022952D01*
X137547333Y-103022952D01*
X137471143Y-102984857D01*
X137433048Y-102946761D01*
X137394952Y-102870571D01*
X137356857Y-102718190D01*
X137318762Y-102641999D01*
X137280667Y-102603904D01*
X137204476Y-102565809D01*
X137128286Y-102565809D01*
X137052095Y-102603904D01*
X137014000Y-102641999D01*
X136975905Y-102718190D01*
X136975905Y-102908666D01*
X137014000Y-103022952D01*
X137699714Y-103822952D02*
X137737810Y-103784857D01*
X137775905Y-103670571D01*
X137775905Y-103594381D01*
X137737810Y-103480095D01*
X137661619Y-103403904D01*
X137585429Y-103365809D01*
X137433048Y-103327714D01*
X137318762Y-103327714D01*
X137166381Y-103365809D01*
X137090190Y-103403904D01*
X137014000Y-103480095D01*
X136975905Y-103594381D01*
X136975905Y-103670571D01*
X137014000Y-103784857D01*
X137052095Y-103822952D01*
X137775905Y-104546762D02*
X137775905Y-104165809D01*
X136975905Y-104165809D01*
X137852095Y-104622952D02*
X137852095Y-105232476D01*
X136975905Y-105346762D02*
X136975905Y-105842000D01*
X137280667Y-105575333D01*
X137280667Y-105689619D01*
X137318762Y-105765809D01*
X137356857Y-105803905D01*
X137433048Y-105842000D01*
X137623524Y-105842000D01*
X137699714Y-105803905D01*
X137737810Y-105765809D01*
X137775905Y-105689619D01*
X137775905Y-105461047D01*
X137737810Y-105384857D01*
X137699714Y-105346762D01*
X136975905Y-106070571D02*
X137775905Y-106337238D01*
X136975905Y-106603905D01*
X136975905Y-106794381D02*
X136975905Y-107289619D01*
X137280667Y-107022952D01*
X137280667Y-107137238D01*
X137318762Y-107213428D01*
X137356857Y-107251524D01*
X137433048Y-107289619D01*
X137623524Y-107289619D01*
X137699714Y-107251524D01*
X137737810Y-107213428D01*
X137775905Y-107137238D01*
X137775905Y-106908666D01*
X137737810Y-106832476D01*
X137699714Y-106794381D01*
X138741143Y-112712476D02*
X138741143Y-113322000D01*
X139045905Y-113017238D02*
X138436381Y-113017238D01*
X138245905Y-113626762D02*
X138245905Y-114122000D01*
X138550667Y-113855333D01*
X138550667Y-113969619D01*
X138588762Y-114045809D01*
X138626857Y-114083905D01*
X138703048Y-114122000D01*
X138893524Y-114122000D01*
X138969714Y-114083905D01*
X139007810Y-114045809D01*
X139045905Y-113969619D01*
X139045905Y-113741047D01*
X139007810Y-113664857D01*
X138969714Y-113626762D01*
X138245905Y-114350571D02*
X139045905Y-114617238D01*
X138245905Y-114883905D01*
X138245905Y-115074381D02*
X138245905Y-115569619D01*
X138550667Y-115302952D01*
X138550667Y-115417238D01*
X138588762Y-115493428D01*
X138626857Y-115531524D01*
X138703048Y-115569619D01*
X138893524Y-115569619D01*
X138969714Y-115531524D01*
X139007810Y-115493428D01*
X139045905Y-115417238D01*
X139045905Y-115188666D01*
X139007810Y-115112476D01*
X138969714Y-115074381D01*
X109581905Y-111696476D02*
X108781905Y-111696476D01*
X108781905Y-111886952D01*
X108820000Y-112001238D01*
X108896190Y-112077429D01*
X108972381Y-112115524D01*
X109124762Y-112153619D01*
X109239048Y-112153619D01*
X109391429Y-112115524D01*
X109467619Y-112077429D01*
X109543810Y-112001238D01*
X109581905Y-111886952D01*
X109581905Y-111696476D01*
X108781905Y-112420286D02*
X108781905Y-112915524D01*
X109086667Y-112648857D01*
X109086667Y-112763143D01*
X109124762Y-112839333D01*
X109162857Y-112877429D01*
X109239048Y-112915524D01*
X109429524Y-112915524D01*
X109505714Y-112877429D01*
X109543810Y-112839333D01*
X109581905Y-112763143D01*
X109581905Y-112534571D01*
X109543810Y-112458381D01*
X109505714Y-112420286D01*
X109505714Y-113867905D02*
X109543810Y-113906000D01*
X109581905Y-113867905D01*
X109543810Y-113829810D01*
X109505714Y-113867905D01*
X109581905Y-113867905D01*
X109086667Y-113867905D02*
X109124762Y-113906000D01*
X109162857Y-113867905D01*
X109124762Y-113829810D01*
X109086667Y-113867905D01*
X109162857Y-113867905D01*
X109581905Y-115277429D02*
X109581905Y-114820286D01*
X109581905Y-115048857D02*
X108781905Y-115048857D01*
X108896190Y-114972667D01*
X108972381Y-114896476D01*
X109010476Y-114820286D01*
X110851905Y-111696476D02*
X110051905Y-111696476D01*
X110051905Y-111886952D01*
X110090000Y-112001238D01*
X110166190Y-112077429D01*
X110242381Y-112115524D01*
X110394762Y-112153619D01*
X110509048Y-112153619D01*
X110661429Y-112115524D01*
X110737619Y-112077429D01*
X110813810Y-112001238D01*
X110851905Y-111886952D01*
X110851905Y-111696476D01*
X110128095Y-112458381D02*
X110090000Y-112496476D01*
X110051905Y-112572667D01*
X110051905Y-112763143D01*
X110090000Y-112839333D01*
X110128095Y-112877429D01*
X110204286Y-112915524D01*
X110280476Y-112915524D01*
X110394762Y-112877429D01*
X110851905Y-112420286D01*
X110851905Y-112915524D01*
X110775714Y-113867905D02*
X110813810Y-113906000D01*
X110851905Y-113867905D01*
X110813810Y-113829810D01*
X110775714Y-113867905D01*
X110851905Y-113867905D01*
X110356667Y-113867905D02*
X110394762Y-113906000D01*
X110432857Y-113867905D01*
X110394762Y-113829810D01*
X110356667Y-113867905D01*
X110432857Y-113867905D01*
X110128095Y-114820286D02*
X110090000Y-114858381D01*
X110051905Y-114934572D01*
X110051905Y-115125048D01*
X110090000Y-115201238D01*
X110128095Y-115239334D01*
X110204286Y-115277429D01*
X110280476Y-115277429D01*
X110394762Y-115239334D01*
X110851905Y-114782191D01*
X110851905Y-115277429D01*
X118471905Y-111696476D02*
X117671905Y-111696476D01*
X118243333Y-111963143D01*
X117671905Y-112229810D01*
X118471905Y-112229810D01*
X118471905Y-112610762D02*
X117671905Y-112610762D01*
X118433810Y-112953619D02*
X118471905Y-113067905D01*
X118471905Y-113258381D01*
X118433810Y-113334571D01*
X118395714Y-113372667D01*
X118319524Y-113410762D01*
X118243333Y-113410762D01*
X118167143Y-113372667D01*
X118129048Y-113334571D01*
X118090952Y-113258381D01*
X118052857Y-113106000D01*
X118014762Y-113029809D01*
X117976667Y-112991714D01*
X117900476Y-112953619D01*
X117824286Y-112953619D01*
X117748095Y-112991714D01*
X117710000Y-113029809D01*
X117671905Y-113106000D01*
X117671905Y-113296476D01*
X117710000Y-113410762D01*
X117671905Y-113906000D02*
X117671905Y-114058381D01*
X117710000Y-114134572D01*
X117786190Y-114210762D01*
X117938571Y-114248857D01*
X118205238Y-114248857D01*
X118357619Y-114210762D01*
X118433810Y-114134572D01*
X118471905Y-114058381D01*
X118471905Y-113906000D01*
X118433810Y-113829810D01*
X118357619Y-113753619D01*
X118205238Y-113715524D01*
X117938571Y-113715524D01*
X117786190Y-113753619D01*
X117710000Y-113829810D01*
X117671905Y-113906000D01*
X118395714Y-115201238D02*
X118433810Y-115239333D01*
X118471905Y-115201238D01*
X118433810Y-115163143D01*
X118395714Y-115201238D01*
X118471905Y-115201238D01*
X117976667Y-115201238D02*
X118014762Y-115239333D01*
X118052857Y-115201238D01*
X118014762Y-115163143D01*
X117976667Y-115201238D01*
X118052857Y-115201238D01*
X118014762Y-116306000D02*
X117976667Y-116229809D01*
X117938571Y-116191714D01*
X117862381Y-116153619D01*
X117824286Y-116153619D01*
X117748095Y-116191714D01*
X117710000Y-116229809D01*
X117671905Y-116306000D01*
X117671905Y-116458381D01*
X117710000Y-116534571D01*
X117748095Y-116572667D01*
X117824286Y-116610762D01*
X117862381Y-116610762D01*
X117938571Y-116572667D01*
X117976667Y-116534571D01*
X118014762Y-116458381D01*
X118014762Y-116306000D01*
X118052857Y-116229809D01*
X118090952Y-116191714D01*
X118167143Y-116153619D01*
X118319524Y-116153619D01*
X118395714Y-116191714D01*
X118433810Y-116229809D01*
X118471905Y-116306000D01*
X118471905Y-116458381D01*
X118433810Y-116534571D01*
X118395714Y-116572667D01*
X118319524Y-116610762D01*
X118167143Y-116610762D01*
X118090952Y-116572667D01*
X118052857Y-116534571D01*
X118014762Y-116458381D01*
X111893333Y-111658381D02*
X111893333Y-112039333D01*
X112121905Y-111582190D02*
X111321905Y-111848857D01*
X112121905Y-112115524D01*
X111398095Y-112344095D02*
X111360000Y-112382190D01*
X111321905Y-112458381D01*
X111321905Y-112648857D01*
X111360000Y-112725047D01*
X111398095Y-112763143D01*
X111474286Y-112801238D01*
X111550476Y-112801238D01*
X111664762Y-112763143D01*
X112121905Y-112306000D01*
X112121905Y-112801238D01*
X112045714Y-113753619D02*
X112083810Y-113791714D01*
X112121905Y-113753619D01*
X112083810Y-113715524D01*
X112045714Y-113753619D01*
X112121905Y-113753619D01*
X111626667Y-113753619D02*
X111664762Y-113791714D01*
X111702857Y-113753619D01*
X111664762Y-113715524D01*
X111626667Y-113753619D01*
X111702857Y-113753619D01*
X111321905Y-114667905D02*
X111321905Y-115163143D01*
X111626667Y-114896476D01*
X111626667Y-115010762D01*
X111664762Y-115086952D01*
X111702857Y-115125048D01*
X111779048Y-115163143D01*
X111969524Y-115163143D01*
X112045714Y-115125048D01*
X112083810Y-115086952D01*
X112121905Y-115010762D01*
X112121905Y-114782190D01*
X112083810Y-114706000D01*
X112045714Y-114667905D01*
X113163333Y-111658381D02*
X113163333Y-112039333D01*
X113391905Y-111582190D02*
X112591905Y-111848857D01*
X113391905Y-112115524D01*
X113391905Y-112801238D02*
X113391905Y-112344095D01*
X113391905Y-112572666D02*
X112591905Y-112572666D01*
X112706190Y-112496476D01*
X112782381Y-112420285D01*
X112820476Y-112344095D01*
X113315714Y-113753619D02*
X113353810Y-113791714D01*
X113391905Y-113753619D01*
X113353810Y-113715524D01*
X113315714Y-113753619D01*
X113391905Y-113753619D01*
X112896667Y-113753619D02*
X112934762Y-113791714D01*
X112972857Y-113753619D01*
X112934762Y-113715524D01*
X112896667Y-113753619D01*
X112972857Y-113753619D01*
X112858571Y-115086952D02*
X113391905Y-115086952D01*
X112553810Y-114896476D02*
X113125238Y-114706000D01*
X113125238Y-115201238D01*
X114433333Y-111658381D02*
X114433333Y-112039333D01*
X114661905Y-111582190D02*
X113861905Y-111848857D01*
X114661905Y-112115524D01*
X113861905Y-112534571D02*
X113861905Y-112610762D01*
X113900000Y-112686952D01*
X113938095Y-112725047D01*
X114014286Y-112763143D01*
X114166667Y-112801238D01*
X114357143Y-112801238D01*
X114509524Y-112763143D01*
X114585714Y-112725047D01*
X114623810Y-112686952D01*
X114661905Y-112610762D01*
X114661905Y-112534571D01*
X114623810Y-112458381D01*
X114585714Y-112420285D01*
X114509524Y-112382190D01*
X114357143Y-112344095D01*
X114166667Y-112344095D01*
X114014286Y-112382190D01*
X113938095Y-112420285D01*
X113900000Y-112458381D01*
X113861905Y-112534571D01*
X114585714Y-113753619D02*
X114623810Y-113791714D01*
X114661905Y-113753619D01*
X114623810Y-113715524D01*
X114585714Y-113753619D01*
X114661905Y-113753619D01*
X114166667Y-113753619D02*
X114204762Y-113791714D01*
X114242857Y-113753619D01*
X114204762Y-113715524D01*
X114166667Y-113753619D01*
X114242857Y-113753619D01*
X113861905Y-115125048D02*
X113861905Y-114744095D01*
X114242857Y-114706000D01*
X114204762Y-114744095D01*
X114166667Y-114820286D01*
X114166667Y-115010762D01*
X114204762Y-115086952D01*
X114242857Y-115125048D01*
X114319048Y-115163143D01*
X114509524Y-115163143D01*
X114585714Y-115125048D01*
X114623810Y-115086952D01*
X114661905Y-115010762D01*
X114661905Y-114820286D01*
X114623810Y-114744095D01*
X114585714Y-114706000D01*
X115170000Y-112115524D02*
X115131905Y-112039333D01*
X115131905Y-111925048D01*
X115170000Y-111810762D01*
X115246190Y-111734571D01*
X115322381Y-111696476D01*
X115474762Y-111658381D01*
X115589048Y-111658381D01*
X115741429Y-111696476D01*
X115817619Y-111734571D01*
X115893810Y-111810762D01*
X115931905Y-111925048D01*
X115931905Y-112001238D01*
X115893810Y-112115524D01*
X115855714Y-112153619D01*
X115589048Y-112153619D01*
X115589048Y-112001238D01*
X115931905Y-112496476D02*
X115131905Y-112496476D01*
X115931905Y-112953619D01*
X115131905Y-112953619D01*
X115931905Y-113334571D02*
X115131905Y-113334571D01*
X115131905Y-113525047D01*
X115170000Y-113639333D01*
X115246190Y-113715524D01*
X115322381Y-113753619D01*
X115474762Y-113791714D01*
X115589048Y-113791714D01*
X115741429Y-113753619D01*
X115817619Y-113715524D01*
X115893810Y-113639333D01*
X115931905Y-113525047D01*
X115931905Y-113334571D01*
X115855714Y-114744095D02*
X115893810Y-114782190D01*
X115931905Y-114744095D01*
X115893810Y-114706000D01*
X115855714Y-114744095D01*
X115931905Y-114744095D01*
X115436667Y-114744095D02*
X115474762Y-114782190D01*
X115512857Y-114744095D01*
X115474762Y-114706000D01*
X115436667Y-114744095D01*
X115512857Y-114744095D01*
X115131905Y-116077428D02*
X115131905Y-115925047D01*
X115170000Y-115848857D01*
X115208095Y-115810762D01*
X115322381Y-115734571D01*
X115474762Y-115696476D01*
X115779524Y-115696476D01*
X115855714Y-115734571D01*
X115893810Y-115772666D01*
X115931905Y-115848857D01*
X115931905Y-116001238D01*
X115893810Y-116077428D01*
X115855714Y-116115524D01*
X115779524Y-116153619D01*
X115589048Y-116153619D01*
X115512857Y-116115524D01*
X115474762Y-116077428D01*
X115436667Y-116001238D01*
X115436667Y-115848857D01*
X115474762Y-115772666D01*
X115512857Y-115734571D01*
X115589048Y-115696476D01*
X117163810Y-111658381D02*
X117201905Y-111772667D01*
X117201905Y-111963143D01*
X117163810Y-112039333D01*
X117125714Y-112077429D01*
X117049524Y-112115524D01*
X116973333Y-112115524D01*
X116897143Y-112077429D01*
X116859048Y-112039333D01*
X116820952Y-111963143D01*
X116782857Y-111810762D01*
X116744762Y-111734571D01*
X116706667Y-111696476D01*
X116630476Y-111658381D01*
X116554286Y-111658381D01*
X116478095Y-111696476D01*
X116440000Y-111734571D01*
X116401905Y-111810762D01*
X116401905Y-112001238D01*
X116440000Y-112115524D01*
X117125714Y-112915524D02*
X117163810Y-112877429D01*
X117201905Y-112763143D01*
X117201905Y-112686953D01*
X117163810Y-112572667D01*
X117087619Y-112496476D01*
X117011429Y-112458381D01*
X116859048Y-112420286D01*
X116744762Y-112420286D01*
X116592381Y-112458381D01*
X116516190Y-112496476D01*
X116440000Y-112572667D01*
X116401905Y-112686953D01*
X116401905Y-112763143D01*
X116440000Y-112877429D01*
X116478095Y-112915524D01*
X117201905Y-113639334D02*
X117201905Y-113258381D01*
X116401905Y-113258381D01*
X117201905Y-113906000D02*
X116401905Y-113906000D01*
X117201905Y-114363143D02*
X116744762Y-114020286D01*
X116401905Y-114363143D02*
X116859048Y-113906000D01*
X117125714Y-115315524D02*
X117163810Y-115353619D01*
X117201905Y-115315524D01*
X117163810Y-115277429D01*
X117125714Y-115315524D01*
X117201905Y-115315524D01*
X116706667Y-115315524D02*
X116744762Y-115353619D01*
X116782857Y-115315524D01*
X116744762Y-115277429D01*
X116706667Y-115315524D01*
X116782857Y-115315524D01*
X116401905Y-116229810D02*
X116401905Y-116763143D01*
X117201905Y-116420286D01*
X121520000Y-112115524D02*
X121481905Y-112039333D01*
X121481905Y-111925048D01*
X121520000Y-111810762D01*
X121596190Y-111734571D01*
X121672381Y-111696476D01*
X121824762Y-111658381D01*
X121939048Y-111658381D01*
X122091429Y-111696476D01*
X122167619Y-111734571D01*
X122243810Y-111810762D01*
X122281905Y-111925048D01*
X122281905Y-112001238D01*
X122243810Y-112115524D01*
X122205714Y-112153619D01*
X121939048Y-112153619D01*
X121939048Y-112001238D01*
X122281905Y-112496476D02*
X121481905Y-112496476D01*
X122281905Y-112953619D01*
X121481905Y-112953619D01*
X122281905Y-113334571D02*
X121481905Y-113334571D01*
X121481905Y-113525047D01*
X121520000Y-113639333D01*
X121596190Y-113715524D01*
X121672381Y-113753619D01*
X121824762Y-113791714D01*
X121939048Y-113791714D01*
X122091429Y-113753619D01*
X122167619Y-113715524D01*
X122243810Y-113639333D01*
X122281905Y-113525047D01*
X122281905Y-113334571D01*
X122205714Y-114744095D02*
X122243810Y-114782190D01*
X122281905Y-114744095D01*
X122243810Y-114706000D01*
X122205714Y-114744095D01*
X122281905Y-114744095D01*
X121786667Y-114744095D02*
X121824762Y-114782190D01*
X121862857Y-114744095D01*
X121824762Y-114706000D01*
X121786667Y-114744095D01*
X121862857Y-114744095D01*
X122281905Y-116153619D02*
X122281905Y-115696476D01*
X122281905Y-115925047D02*
X121481905Y-115925047D01*
X121596190Y-115848857D01*
X121672381Y-115772666D01*
X121710476Y-115696476D01*
X122281905Y-116915524D02*
X122281905Y-116458381D01*
X122281905Y-116686952D02*
X121481905Y-116686952D01*
X121596190Y-116610762D01*
X121672381Y-116534571D01*
X121710476Y-116458381D01*
X126053810Y-111658381D02*
X126091905Y-111772667D01*
X126091905Y-111963143D01*
X126053810Y-112039333D01*
X126015714Y-112077429D01*
X125939524Y-112115524D01*
X125863333Y-112115524D01*
X125787143Y-112077429D01*
X125749048Y-112039333D01*
X125710952Y-111963143D01*
X125672857Y-111810762D01*
X125634762Y-111734571D01*
X125596667Y-111696476D01*
X125520476Y-111658381D01*
X125444286Y-111658381D01*
X125368095Y-111696476D01*
X125330000Y-111734571D01*
X125291905Y-111810762D01*
X125291905Y-112001238D01*
X125330000Y-112115524D01*
X126091905Y-112458381D02*
X125291905Y-112458381D01*
X125291905Y-112648857D01*
X125330000Y-112763143D01*
X125406190Y-112839334D01*
X125482381Y-112877429D01*
X125634762Y-112915524D01*
X125749048Y-112915524D01*
X125901429Y-112877429D01*
X125977619Y-112839334D01*
X126053810Y-112763143D01*
X126091905Y-112648857D01*
X126091905Y-112458381D01*
X125863333Y-113220286D02*
X125863333Y-113601238D01*
X126091905Y-113144095D02*
X125291905Y-113410762D01*
X126091905Y-113677429D01*
X126168095Y-113753619D02*
X126168095Y-114363143D01*
X125291905Y-114934572D02*
X125291905Y-114553619D01*
X125672857Y-114515524D01*
X125634762Y-114553619D01*
X125596667Y-114629810D01*
X125596667Y-114820286D01*
X125634762Y-114896476D01*
X125672857Y-114934572D01*
X125749048Y-114972667D01*
X125939524Y-114972667D01*
X126015714Y-114934572D01*
X126053810Y-114896476D01*
X126091905Y-114820286D01*
X126091905Y-114629810D01*
X126053810Y-114553619D01*
X126015714Y-114515524D01*
X125291905Y-115201238D02*
X126091905Y-115467905D01*
X125291905Y-115734572D01*
X126015714Y-116610762D02*
X126053810Y-116648857D01*
X126091905Y-116610762D01*
X126053810Y-116572667D01*
X126015714Y-116610762D01*
X126091905Y-116610762D01*
X125596667Y-116610762D02*
X125634762Y-116648857D01*
X125672857Y-116610762D01*
X125634762Y-116572667D01*
X125596667Y-116610762D01*
X125672857Y-116610762D01*
X126091905Y-118020286D02*
X126091905Y-117563143D01*
X126091905Y-117791714D02*
X125291905Y-117791714D01*
X125406190Y-117715524D01*
X125482381Y-117639333D01*
X125520476Y-117563143D01*
X125558571Y-118706000D02*
X126091905Y-118706000D01*
X125253810Y-118515524D02*
X125825238Y-118325048D01*
X125825238Y-118820286D01*
X124783810Y-111658381D02*
X124821905Y-111772667D01*
X124821905Y-111963143D01*
X124783810Y-112039333D01*
X124745714Y-112077429D01*
X124669524Y-112115524D01*
X124593333Y-112115524D01*
X124517143Y-112077429D01*
X124479048Y-112039333D01*
X124440952Y-111963143D01*
X124402857Y-111810762D01*
X124364762Y-111734571D01*
X124326667Y-111696476D01*
X124250476Y-111658381D01*
X124174286Y-111658381D01*
X124098095Y-111696476D01*
X124060000Y-111734571D01*
X124021905Y-111810762D01*
X124021905Y-112001238D01*
X124060000Y-112115524D01*
X124745714Y-112915524D02*
X124783810Y-112877429D01*
X124821905Y-112763143D01*
X124821905Y-112686953D01*
X124783810Y-112572667D01*
X124707619Y-112496476D01*
X124631429Y-112458381D01*
X124479048Y-112420286D01*
X124364762Y-112420286D01*
X124212381Y-112458381D01*
X124136190Y-112496476D01*
X124060000Y-112572667D01*
X124021905Y-112686953D01*
X124021905Y-112763143D01*
X124060000Y-112877429D01*
X124098095Y-112915524D01*
X124821905Y-113639334D02*
X124821905Y-113258381D01*
X124021905Y-113258381D01*
X124898095Y-113715524D02*
X124898095Y-114325048D01*
X124021905Y-114439334D02*
X124021905Y-114934572D01*
X124326667Y-114667905D01*
X124326667Y-114782191D01*
X124364762Y-114858381D01*
X124402857Y-114896477D01*
X124479048Y-114934572D01*
X124669524Y-114934572D01*
X124745714Y-114896477D01*
X124783810Y-114858381D01*
X124821905Y-114782191D01*
X124821905Y-114553619D01*
X124783810Y-114477429D01*
X124745714Y-114439334D01*
X124021905Y-115163143D02*
X124821905Y-115429810D01*
X124021905Y-115696477D01*
X124021905Y-115886953D02*
X124021905Y-116382191D01*
X124326667Y-116115524D01*
X124326667Y-116229810D01*
X124364762Y-116306000D01*
X124402857Y-116344096D01*
X124479048Y-116382191D01*
X124669524Y-116382191D01*
X124745714Y-116344096D01*
X124783810Y-116306000D01*
X124821905Y-116229810D01*
X124821905Y-116001238D01*
X124783810Y-115925048D01*
X124745714Y-115886953D01*
X124745714Y-117334572D02*
X124783810Y-117372667D01*
X124821905Y-117334572D01*
X124783810Y-117296477D01*
X124745714Y-117334572D01*
X124821905Y-117334572D01*
X124326667Y-117334572D02*
X124364762Y-117372667D01*
X124402857Y-117334572D01*
X124364762Y-117296477D01*
X124326667Y-117334572D01*
X124402857Y-117334572D01*
X124821905Y-118744096D02*
X124821905Y-118286953D01*
X124821905Y-118515524D02*
X124021905Y-118515524D01*
X124136190Y-118439334D01*
X124212381Y-118363143D01*
X124250476Y-118286953D01*
X124021905Y-119010763D02*
X124021905Y-119506001D01*
X124326667Y-119239334D01*
X124326667Y-119353620D01*
X124364762Y-119429810D01*
X124402857Y-119467906D01*
X124479048Y-119506001D01*
X124669524Y-119506001D01*
X124745714Y-119467906D01*
X124783810Y-119429810D01*
X124821905Y-119353620D01*
X124821905Y-119125048D01*
X124783810Y-119048858D01*
X124745714Y-119010763D01*
X123513810Y-111658381D02*
X123551905Y-111772667D01*
X123551905Y-111963143D01*
X123513810Y-112039333D01*
X123475714Y-112077429D01*
X123399524Y-112115524D01*
X123323333Y-112115524D01*
X123247143Y-112077429D01*
X123209048Y-112039333D01*
X123170952Y-111963143D01*
X123132857Y-111810762D01*
X123094762Y-111734571D01*
X123056667Y-111696476D01*
X122980476Y-111658381D01*
X122904286Y-111658381D01*
X122828095Y-111696476D01*
X122790000Y-111734571D01*
X122751905Y-111810762D01*
X122751905Y-112001238D01*
X122790000Y-112115524D01*
X123551905Y-112458381D02*
X122751905Y-112458381D01*
X122751905Y-112648857D01*
X122790000Y-112763143D01*
X122866190Y-112839334D01*
X122942381Y-112877429D01*
X123094762Y-112915524D01*
X123209048Y-112915524D01*
X123361429Y-112877429D01*
X123437619Y-112839334D01*
X123513810Y-112763143D01*
X123551905Y-112648857D01*
X123551905Y-112458381D01*
X123323333Y-113220286D02*
X123323333Y-113601238D01*
X123551905Y-113144095D02*
X122751905Y-113410762D01*
X123551905Y-113677429D01*
X123628095Y-113753619D02*
X123628095Y-114363143D01*
X122751905Y-114477429D02*
X122751905Y-114972667D01*
X123056667Y-114706000D01*
X123056667Y-114820286D01*
X123094762Y-114896476D01*
X123132857Y-114934572D01*
X123209048Y-114972667D01*
X123399524Y-114972667D01*
X123475714Y-114934572D01*
X123513810Y-114896476D01*
X123551905Y-114820286D01*
X123551905Y-114591714D01*
X123513810Y-114515524D01*
X123475714Y-114477429D01*
X122751905Y-115201238D02*
X123551905Y-115467905D01*
X122751905Y-115734572D01*
X122751905Y-115925048D02*
X122751905Y-116420286D01*
X123056667Y-116153619D01*
X123056667Y-116267905D01*
X123094762Y-116344095D01*
X123132857Y-116382191D01*
X123209048Y-116420286D01*
X123399524Y-116420286D01*
X123475714Y-116382191D01*
X123513810Y-116344095D01*
X123551905Y-116267905D01*
X123551905Y-116039333D01*
X123513810Y-115963143D01*
X123475714Y-115925048D01*
X123475714Y-117372667D02*
X123513810Y-117410762D01*
X123551905Y-117372667D01*
X123513810Y-117334572D01*
X123475714Y-117372667D01*
X123551905Y-117372667D01*
X123056667Y-117372667D02*
X123094762Y-117410762D01*
X123132857Y-117372667D01*
X123094762Y-117334572D01*
X123056667Y-117372667D01*
X123132857Y-117372667D01*
X123551905Y-118782191D02*
X123551905Y-118325048D01*
X123551905Y-118553619D02*
X122751905Y-118553619D01*
X122866190Y-118477429D01*
X122942381Y-118401238D01*
X122980476Y-118325048D01*
X122828095Y-119086953D02*
X122790000Y-119125048D01*
X122751905Y-119201239D01*
X122751905Y-119391715D01*
X122790000Y-119467905D01*
X122828095Y-119506001D01*
X122904286Y-119544096D01*
X122980476Y-119544096D01*
X123094762Y-119506001D01*
X123551905Y-119048858D01*
X123551905Y-119544096D01*
X119741905Y-111696476D02*
X118941905Y-111696476D01*
X119513333Y-111963143D01*
X118941905Y-112229810D01*
X119741905Y-112229810D01*
X118941905Y-112763143D02*
X118941905Y-112915524D01*
X118980000Y-112991715D01*
X119056190Y-113067905D01*
X119208571Y-113106000D01*
X119475238Y-113106000D01*
X119627619Y-113067905D01*
X119703810Y-112991715D01*
X119741905Y-112915524D01*
X119741905Y-112763143D01*
X119703810Y-112686953D01*
X119627619Y-112610762D01*
X119475238Y-112572667D01*
X119208571Y-112572667D01*
X119056190Y-112610762D01*
X118980000Y-112686953D01*
X118941905Y-112763143D01*
X119703810Y-113410762D02*
X119741905Y-113525048D01*
X119741905Y-113715524D01*
X119703810Y-113791714D01*
X119665714Y-113829810D01*
X119589524Y-113867905D01*
X119513333Y-113867905D01*
X119437143Y-113829810D01*
X119399048Y-113791714D01*
X119360952Y-113715524D01*
X119322857Y-113563143D01*
X119284762Y-113486952D01*
X119246667Y-113448857D01*
X119170476Y-113410762D01*
X119094286Y-113410762D01*
X119018095Y-113448857D01*
X118980000Y-113486952D01*
X118941905Y-113563143D01*
X118941905Y-113753619D01*
X118980000Y-113867905D01*
X119741905Y-114210762D02*
X118941905Y-114210762D01*
X119665714Y-115201238D02*
X119703810Y-115239333D01*
X119741905Y-115201238D01*
X119703810Y-115163143D01*
X119665714Y-115201238D01*
X119741905Y-115201238D01*
X119246667Y-115201238D02*
X119284762Y-115239333D01*
X119322857Y-115201238D01*
X119284762Y-115163143D01*
X119246667Y-115201238D01*
X119322857Y-115201238D01*
X119741905Y-116229809D02*
X119741905Y-116382190D01*
X119703810Y-116458381D01*
X119665714Y-116496476D01*
X119551429Y-116572667D01*
X119399048Y-116610762D01*
X119094286Y-116610762D01*
X119018095Y-116572667D01*
X118980000Y-116534571D01*
X118941905Y-116458381D01*
X118941905Y-116306000D01*
X118980000Y-116229809D01*
X119018095Y-116191714D01*
X119094286Y-116153619D01*
X119284762Y-116153619D01*
X119360952Y-116191714D01*
X119399048Y-116229809D01*
X119437143Y-116306000D01*
X119437143Y-116458381D01*
X119399048Y-116534571D01*
X119360952Y-116572667D01*
X119284762Y-116610762D01*
X120973810Y-111658381D02*
X121011905Y-111772667D01*
X121011905Y-111963143D01*
X120973810Y-112039333D01*
X120935714Y-112077429D01*
X120859524Y-112115524D01*
X120783333Y-112115524D01*
X120707143Y-112077429D01*
X120669048Y-112039333D01*
X120630952Y-111963143D01*
X120592857Y-111810762D01*
X120554762Y-111734571D01*
X120516667Y-111696476D01*
X120440476Y-111658381D01*
X120364286Y-111658381D01*
X120288095Y-111696476D01*
X120250000Y-111734571D01*
X120211905Y-111810762D01*
X120211905Y-112001238D01*
X120250000Y-112115524D01*
X120973810Y-112420286D02*
X121011905Y-112534572D01*
X121011905Y-112725048D01*
X120973810Y-112801238D01*
X120935714Y-112839334D01*
X120859524Y-112877429D01*
X120783333Y-112877429D01*
X120707143Y-112839334D01*
X120669048Y-112801238D01*
X120630952Y-112725048D01*
X120592857Y-112572667D01*
X120554762Y-112496476D01*
X120516667Y-112458381D01*
X120440476Y-112420286D01*
X120364286Y-112420286D01*
X120288095Y-112458381D01*
X120250000Y-112496476D01*
X120211905Y-112572667D01*
X120211905Y-112763143D01*
X120250000Y-112877429D01*
X120074000Y-111506000D02*
X120074000Y-113029810D01*
X120935714Y-113829810D02*
X120973810Y-113867905D01*
X121011905Y-113829810D01*
X120973810Y-113791715D01*
X120935714Y-113829810D01*
X121011905Y-113829810D01*
X120516667Y-113829810D02*
X120554762Y-113867905D01*
X120592857Y-113829810D01*
X120554762Y-113791715D01*
X120516667Y-113829810D01*
X120592857Y-113829810D01*
X121011905Y-115239334D02*
X121011905Y-114782191D01*
X121011905Y-115010762D02*
X120211905Y-115010762D01*
X120326190Y-114934572D01*
X120402381Y-114858381D01*
X120440476Y-114782191D01*
X120211905Y-115734572D02*
X120211905Y-115810763D01*
X120250000Y-115886953D01*
X120288095Y-115925048D01*
X120364286Y-115963144D01*
X120516667Y-116001239D01*
X120707143Y-116001239D01*
X120859524Y-115963144D01*
X120935714Y-115925048D01*
X120973810Y-115886953D01*
X121011905Y-115810763D01*
X121011905Y-115734572D01*
X120973810Y-115658382D01*
X120935714Y-115620286D01*
X120859524Y-115582191D01*
X120707143Y-115544096D01*
X120516667Y-115544096D01*
X120364286Y-115582191D01*
X120288095Y-115620286D01*
X120250000Y-115658382D01*
X120211905Y-115734572D01*
X127323810Y-111658381D02*
X127361905Y-111772667D01*
X127361905Y-111963143D01*
X127323810Y-112039333D01*
X127285714Y-112077429D01*
X127209524Y-112115524D01*
X127133333Y-112115524D01*
X127057143Y-112077429D01*
X127019048Y-112039333D01*
X126980952Y-111963143D01*
X126942857Y-111810762D01*
X126904762Y-111734571D01*
X126866667Y-111696476D01*
X126790476Y-111658381D01*
X126714286Y-111658381D01*
X126638095Y-111696476D01*
X126600000Y-111734571D01*
X126561905Y-111810762D01*
X126561905Y-112001238D01*
X126600000Y-112115524D01*
X127285714Y-112915524D02*
X127323810Y-112877429D01*
X127361905Y-112763143D01*
X127361905Y-112686953D01*
X127323810Y-112572667D01*
X127247619Y-112496476D01*
X127171429Y-112458381D01*
X127019048Y-112420286D01*
X126904762Y-112420286D01*
X126752381Y-112458381D01*
X126676190Y-112496476D01*
X126600000Y-112572667D01*
X126561905Y-112686953D01*
X126561905Y-112763143D01*
X126600000Y-112877429D01*
X126638095Y-112915524D01*
X127361905Y-113639334D02*
X127361905Y-113258381D01*
X126561905Y-113258381D01*
X127438095Y-113715524D02*
X127438095Y-114325048D01*
X126561905Y-114896477D02*
X126561905Y-114515524D01*
X126942857Y-114477429D01*
X126904762Y-114515524D01*
X126866667Y-114591715D01*
X126866667Y-114782191D01*
X126904762Y-114858381D01*
X126942857Y-114896477D01*
X127019048Y-114934572D01*
X127209524Y-114934572D01*
X127285714Y-114896477D01*
X127323810Y-114858381D01*
X127361905Y-114782191D01*
X127361905Y-114591715D01*
X127323810Y-114515524D01*
X127285714Y-114477429D01*
X126561905Y-115163143D02*
X127361905Y-115429810D01*
X126561905Y-115696477D01*
X127285714Y-116572667D02*
X127323810Y-116610762D01*
X127361905Y-116572667D01*
X127323810Y-116534572D01*
X127285714Y-116572667D01*
X127361905Y-116572667D01*
X126866667Y-116572667D02*
X126904762Y-116610762D01*
X126942857Y-116572667D01*
X126904762Y-116534572D01*
X126866667Y-116572667D01*
X126942857Y-116572667D01*
X127361905Y-117982191D02*
X127361905Y-117525048D01*
X127361905Y-117753619D02*
X126561905Y-117753619D01*
X126676190Y-117677429D01*
X126752381Y-117601238D01*
X126790476Y-117525048D01*
X126561905Y-118706001D02*
X126561905Y-118325048D01*
X126942857Y-118286953D01*
X126904762Y-118325048D01*
X126866667Y-118401239D01*
X126866667Y-118591715D01*
X126904762Y-118667905D01*
X126942857Y-118706001D01*
X127019048Y-118744096D01*
X127209524Y-118744096D01*
X127285714Y-118706001D01*
X127323810Y-118667905D01*
X127361905Y-118591715D01*
X127361905Y-118401239D01*
X127323810Y-118325048D01*
X127285714Y-118286953D01*
D12*
X142360667Y-139475333D02*
X142260667Y-139508667D01*
X142094000Y-139508667D01*
X142027333Y-139475333D01*
X141994000Y-139442000D01*
X141960667Y-139375333D01*
X141960667Y-139308667D01*
X141994000Y-139242000D01*
X142027333Y-139208667D01*
X142094000Y-139175333D01*
X142227333Y-139142000D01*
X142294000Y-139108667D01*
X142327333Y-139075333D01*
X142360667Y-139008667D01*
X142360667Y-138942000D01*
X142327333Y-138875333D01*
X142294000Y-138842000D01*
X142227333Y-138808667D01*
X142060667Y-138808667D01*
X141960667Y-138842000D01*
X141260666Y-139442000D02*
X141294000Y-139475333D01*
X141394000Y-139508667D01*
X141460666Y-139508667D01*
X141560666Y-139475333D01*
X141627333Y-139408667D01*
X141660666Y-139342000D01*
X141694000Y-139208667D01*
X141694000Y-139108667D01*
X141660666Y-138975333D01*
X141627333Y-138908667D01*
X141560666Y-138842000D01*
X141460666Y-138808667D01*
X141394000Y-138808667D01*
X141294000Y-138842000D01*
X141260666Y-138875333D01*
X140627333Y-139508667D02*
X140960666Y-139508667D01*
X140960666Y-138808667D01*
X140560666Y-139575333D02*
X140027333Y-139575333D01*
X139927333Y-138808667D02*
X139494000Y-138808667D01*
X139727333Y-139075333D01*
X139627333Y-139075333D01*
X139560666Y-139108667D01*
X139527333Y-139142000D01*
X139494000Y-139208667D01*
X139494000Y-139375333D01*
X139527333Y-139442000D01*
X139560666Y-139475333D01*
X139627333Y-139508667D01*
X139827333Y-139508667D01*
X139894000Y-139475333D01*
X139927333Y-139442000D01*
X139293999Y-138808667D02*
X139060666Y-139508667D01*
X138827333Y-138808667D01*
X138660666Y-138808667D02*
X138227333Y-138808667D01*
X138460666Y-139075333D01*
X138360666Y-139075333D01*
X138293999Y-139108667D01*
X138260666Y-139142000D01*
X138227333Y-139208667D01*
X138227333Y-139375333D01*
X138260666Y-139442000D01*
X138293999Y-139475333D01*
X138360666Y-139508667D01*
X138560666Y-139508667D01*
X138627333Y-139475333D01*
X138660666Y-139442000D01*
X142360667Y-136935333D02*
X142260667Y-136968667D01*
X142094000Y-136968667D01*
X142027333Y-136935333D01*
X141994000Y-136902000D01*
X141960667Y-136835333D01*
X141960667Y-136768667D01*
X141994000Y-136702000D01*
X142027333Y-136668667D01*
X142094000Y-136635333D01*
X142227333Y-136602000D01*
X142294000Y-136568667D01*
X142327333Y-136535333D01*
X142360667Y-136468667D01*
X142360667Y-136402000D01*
X142327333Y-136335333D01*
X142294000Y-136302000D01*
X142227333Y-136268667D01*
X142060667Y-136268667D01*
X141960667Y-136302000D01*
X141660666Y-136968667D02*
X141660666Y-136268667D01*
X141494000Y-136268667D01*
X141394000Y-136302000D01*
X141327333Y-136368667D01*
X141294000Y-136435333D01*
X141260666Y-136568667D01*
X141260666Y-136668667D01*
X141294000Y-136802000D01*
X141327333Y-136868667D01*
X141394000Y-136935333D01*
X141494000Y-136968667D01*
X141660666Y-136968667D01*
X140994000Y-136768667D02*
X140660666Y-136768667D01*
X141060666Y-136968667D02*
X140827333Y-136268667D01*
X140594000Y-136968667D01*
X140527333Y-137035333D02*
X139994000Y-137035333D01*
X139894000Y-136268667D02*
X139460667Y-136268667D01*
X139694000Y-136535333D01*
X139594000Y-136535333D01*
X139527333Y-136568667D01*
X139494000Y-136602000D01*
X139460667Y-136668667D01*
X139460667Y-136835333D01*
X139494000Y-136902000D01*
X139527333Y-136935333D01*
X139594000Y-136968667D01*
X139794000Y-136968667D01*
X139860667Y-136935333D01*
X139894000Y-136902000D01*
X139260666Y-136268667D02*
X139027333Y-136968667D01*
X138794000Y-136268667D01*
X138627333Y-136268667D02*
X138194000Y-136268667D01*
X138427333Y-136535333D01*
X138327333Y-136535333D01*
X138260666Y-136568667D01*
X138227333Y-136602000D01*
X138194000Y-136668667D01*
X138194000Y-136835333D01*
X138227333Y-136902000D01*
X138260666Y-136935333D01*
X138327333Y-136968667D01*
X138527333Y-136968667D01*
X138594000Y-136935333D01*
X138627333Y-136902000D01*
X142360667Y-134395333D02*
X142260667Y-134428667D01*
X142094000Y-134428667D01*
X142027333Y-134395333D01*
X141994000Y-134362000D01*
X141960667Y-134295333D01*
X141960667Y-134228667D01*
X141994000Y-134162000D01*
X142027333Y-134128667D01*
X142094000Y-134095333D01*
X142227333Y-134062000D01*
X142294000Y-134028667D01*
X142327333Y-133995333D01*
X142360667Y-133928667D01*
X142360667Y-133862000D01*
X142327333Y-133795333D01*
X142294000Y-133762000D01*
X142227333Y-133728667D01*
X142060667Y-133728667D01*
X141960667Y-133762000D01*
X141660666Y-134428667D02*
X141660666Y-133728667D01*
X141494000Y-133728667D01*
X141394000Y-133762000D01*
X141327333Y-133828667D01*
X141294000Y-133895333D01*
X141260666Y-134028667D01*
X141260666Y-134128667D01*
X141294000Y-134262000D01*
X141327333Y-134328667D01*
X141394000Y-134395333D01*
X141494000Y-134428667D01*
X141660666Y-134428667D01*
X140994000Y-134228667D02*
X140660666Y-134228667D01*
X141060666Y-134428667D02*
X140827333Y-133728667D01*
X140594000Y-134428667D01*
X140527333Y-134495333D02*
X139994000Y-134495333D01*
X139494000Y-133728667D02*
X139827333Y-133728667D01*
X139860667Y-134062000D01*
X139827333Y-134028667D01*
X139760667Y-133995333D01*
X139594000Y-133995333D01*
X139527333Y-134028667D01*
X139494000Y-134062000D01*
X139460667Y-134128667D01*
X139460667Y-134295333D01*
X139494000Y-134362000D01*
X139527333Y-134395333D01*
X139594000Y-134428667D01*
X139760667Y-134428667D01*
X139827333Y-134395333D01*
X139860667Y-134362000D01*
X139260666Y-133728667D02*
X139027333Y-134428667D01*
X138794000Y-133728667D01*
X142360667Y-131855333D02*
X142260667Y-131888667D01*
X142094000Y-131888667D01*
X142027333Y-131855333D01*
X141994000Y-131822000D01*
X141960667Y-131755333D01*
X141960667Y-131688667D01*
X141994000Y-131622000D01*
X142027333Y-131588667D01*
X142094000Y-131555333D01*
X142227333Y-131522000D01*
X142294000Y-131488667D01*
X142327333Y-131455333D01*
X142360667Y-131388667D01*
X142360667Y-131322000D01*
X142327333Y-131255333D01*
X142294000Y-131222000D01*
X142227333Y-131188667D01*
X142060667Y-131188667D01*
X141960667Y-131222000D01*
X141260666Y-131822000D02*
X141294000Y-131855333D01*
X141394000Y-131888667D01*
X141460666Y-131888667D01*
X141560666Y-131855333D01*
X141627333Y-131788667D01*
X141660666Y-131722000D01*
X141694000Y-131588667D01*
X141694000Y-131488667D01*
X141660666Y-131355333D01*
X141627333Y-131288667D01*
X141560666Y-131222000D01*
X141460666Y-131188667D01*
X141394000Y-131188667D01*
X141294000Y-131222000D01*
X141260666Y-131255333D01*
X140627333Y-131888667D02*
X140960666Y-131888667D01*
X140960666Y-131188667D01*
X140560666Y-131955333D02*
X140027333Y-131955333D01*
X139527333Y-131188667D02*
X139860666Y-131188667D01*
X139894000Y-131522000D01*
X139860666Y-131488667D01*
X139794000Y-131455333D01*
X139627333Y-131455333D01*
X139560666Y-131488667D01*
X139527333Y-131522000D01*
X139494000Y-131588667D01*
X139494000Y-131755333D01*
X139527333Y-131822000D01*
X139560666Y-131855333D01*
X139627333Y-131888667D01*
X139794000Y-131888667D01*
X139860666Y-131855333D01*
X139894000Y-131822000D01*
X139293999Y-131188667D02*
X139060666Y-131888667D01*
X138827333Y-131188667D01*
D10*
X140046000Y-143946143D02*
X139981714Y-143967571D01*
X139874571Y-143967571D01*
X139831714Y-143946143D01*
X139810285Y-143924714D01*
X139788857Y-143881857D01*
X139788857Y-143839000D01*
X139810285Y-143796143D01*
X139831714Y-143774714D01*
X139874571Y-143753286D01*
X139960285Y-143731857D01*
X140003143Y-143710429D01*
X140024571Y-143689000D01*
X140046000Y-143646143D01*
X140046000Y-143603286D01*
X140024571Y-143560429D01*
X140003143Y-143539000D01*
X139960285Y-143517571D01*
X139853143Y-143517571D01*
X139788857Y-143539000D01*
X139638857Y-143517571D02*
X139531714Y-143967571D01*
X139446000Y-143646143D01*
X139360286Y-143967571D01*
X139253143Y-143517571D01*
X138888857Y-143667571D02*
X138888857Y-143967571D01*
X138996000Y-143496143D02*
X139103143Y-143817571D01*
X138824571Y-143817571D01*
X137506000Y-143946143D02*
X137441714Y-143967571D01*
X137334571Y-143967571D01*
X137291714Y-143946143D01*
X137270285Y-143924714D01*
X137248857Y-143881857D01*
X137248857Y-143839000D01*
X137270285Y-143796143D01*
X137291714Y-143774714D01*
X137334571Y-143753286D01*
X137420285Y-143731857D01*
X137463143Y-143710429D01*
X137484571Y-143689000D01*
X137506000Y-143646143D01*
X137506000Y-143603286D01*
X137484571Y-143560429D01*
X137463143Y-143539000D01*
X137420285Y-143517571D01*
X137313143Y-143517571D01*
X137248857Y-143539000D01*
X137098857Y-143517571D02*
X136991714Y-143967571D01*
X136906000Y-143646143D01*
X136820286Y-143967571D01*
X136713143Y-143517571D01*
X136584571Y-143517571D02*
X136306000Y-143517571D01*
X136456000Y-143689000D01*
X136391714Y-143689000D01*
X136348857Y-143710429D01*
X136327428Y-143731857D01*
X136306000Y-143774714D01*
X136306000Y-143881857D01*
X136327428Y-143924714D01*
X136348857Y-143946143D01*
X136391714Y-143967571D01*
X136520286Y-143967571D01*
X136563143Y-143946143D01*
X136584571Y-143924714D01*
X134966000Y-143946143D02*
X134901714Y-143967571D01*
X134794571Y-143967571D01*
X134751714Y-143946143D01*
X134730285Y-143924714D01*
X134708857Y-143881857D01*
X134708857Y-143839000D01*
X134730285Y-143796143D01*
X134751714Y-143774714D01*
X134794571Y-143753286D01*
X134880285Y-143731857D01*
X134923143Y-143710429D01*
X134944571Y-143689000D01*
X134966000Y-143646143D01*
X134966000Y-143603286D01*
X134944571Y-143560429D01*
X134923143Y-143539000D01*
X134880285Y-143517571D01*
X134773143Y-143517571D01*
X134708857Y-143539000D01*
X134558857Y-143517571D02*
X134451714Y-143967571D01*
X134366000Y-143646143D01*
X134280286Y-143967571D01*
X134173143Y-143517571D01*
X134023143Y-143560429D02*
X134001714Y-143539000D01*
X133958857Y-143517571D01*
X133851714Y-143517571D01*
X133808857Y-143539000D01*
X133787428Y-143560429D01*
X133766000Y-143603286D01*
X133766000Y-143646143D01*
X133787428Y-143710429D01*
X134044571Y-143967571D01*
X133766000Y-143967571D01*
X132426000Y-143946143D02*
X132361714Y-143967571D01*
X132254571Y-143967571D01*
X132211714Y-143946143D01*
X132190285Y-143924714D01*
X132168857Y-143881857D01*
X132168857Y-143839000D01*
X132190285Y-143796143D01*
X132211714Y-143774714D01*
X132254571Y-143753286D01*
X132340285Y-143731857D01*
X132383143Y-143710429D01*
X132404571Y-143689000D01*
X132426000Y-143646143D01*
X132426000Y-143603286D01*
X132404571Y-143560429D01*
X132383143Y-143539000D01*
X132340285Y-143517571D01*
X132233143Y-143517571D01*
X132168857Y-143539000D01*
X132018857Y-143517571D02*
X131911714Y-143967571D01*
X131826000Y-143646143D01*
X131740286Y-143967571D01*
X131633143Y-143517571D01*
X131226000Y-143967571D02*
X131483143Y-143967571D01*
X131354571Y-143967571D02*
X131354571Y-143517571D01*
X131397428Y-143581857D01*
X131440286Y-143624714D01*
X131483143Y-143646143D01*
D12*
X145646666Y-148398667D02*
X145880000Y-148065333D01*
X146046666Y-148398667D02*
X146046666Y-147698667D01*
X145780000Y-147698667D01*
X145713333Y-147732000D01*
X145680000Y-147765333D01*
X145646666Y-147832000D01*
X145646666Y-147932000D01*
X145680000Y-147998667D01*
X145713333Y-148032000D01*
X145780000Y-148065333D01*
X146046666Y-148065333D01*
X145080000Y-148365333D02*
X145146666Y-148398667D01*
X145280000Y-148398667D01*
X145346666Y-148365333D01*
X145380000Y-148298667D01*
X145380000Y-148032000D01*
X145346666Y-147965333D01*
X145280000Y-147932000D01*
X145146666Y-147932000D01*
X145080000Y-147965333D01*
X145046666Y-148032000D01*
X145046666Y-148098667D01*
X145380000Y-148165333D01*
X144780000Y-148365333D02*
X144713333Y-148398667D01*
X144580000Y-148398667D01*
X144513333Y-148365333D01*
X144480000Y-148298667D01*
X144480000Y-148265333D01*
X144513333Y-148198667D01*
X144580000Y-148165333D01*
X144680000Y-148165333D01*
X144746666Y-148132000D01*
X144780000Y-148065333D01*
X144780000Y-148032000D01*
X144746666Y-147965333D01*
X144680000Y-147932000D01*
X144580000Y-147932000D01*
X144513333Y-147965333D01*
X143913333Y-148365333D02*
X143979999Y-148398667D01*
X144113333Y-148398667D01*
X144179999Y-148365333D01*
X144213333Y-148298667D01*
X144213333Y-148032000D01*
X144179999Y-147965333D01*
X144113333Y-147932000D01*
X143979999Y-147932000D01*
X143913333Y-147965333D01*
X143879999Y-148032000D01*
X143879999Y-148098667D01*
X144213333Y-148165333D01*
X143679999Y-147932000D02*
X143413333Y-147932000D01*
X143579999Y-147698667D02*
X143579999Y-148298667D01*
X143546666Y-148365333D01*
X143479999Y-148398667D01*
X143413333Y-148398667D01*
X101537333Y-125912666D02*
X101504000Y-125946000D01*
X101470667Y-126012666D01*
X101470667Y-126179333D01*
X101504000Y-126246000D01*
X101537333Y-126279333D01*
X101604000Y-126312666D01*
X101670667Y-126312666D01*
X101770667Y-126279333D01*
X102170667Y-125879333D01*
X102170667Y-126312666D01*
X101470667Y-126512667D02*
X102170667Y-126746000D01*
X101470667Y-126979333D01*
X101470667Y-127546000D02*
X101470667Y-127212667D01*
X101804000Y-127179333D01*
X101770667Y-127212667D01*
X101737333Y-127279333D01*
X101737333Y-127446000D01*
X101770667Y-127512667D01*
X101804000Y-127546000D01*
X101870667Y-127579333D01*
X102037333Y-127579333D01*
X102104000Y-127546000D01*
X102137333Y-127512667D01*
X102170667Y-127446000D01*
X102170667Y-127279333D01*
X102137333Y-127212667D01*
X102104000Y-127179333D01*
X101470667Y-136772667D02*
X101470667Y-136439334D01*
X101804000Y-136406000D01*
X101770667Y-136439334D01*
X101737333Y-136506000D01*
X101737333Y-136672667D01*
X101770667Y-136739334D01*
X101804000Y-136772667D01*
X101870667Y-136806000D01*
X102037333Y-136806000D01*
X102104000Y-136772667D01*
X102137333Y-136739334D01*
X102170667Y-136672667D01*
X102170667Y-136506000D01*
X102137333Y-136439334D01*
X102104000Y-136406000D01*
X101470667Y-137006001D02*
X102170667Y-137239334D01*
X101470667Y-137472667D01*
X101470667Y-144929333D02*
X101470667Y-145362666D01*
X101737333Y-145129333D01*
X101737333Y-145229333D01*
X101770667Y-145296000D01*
X101804000Y-145329333D01*
X101870667Y-145362666D01*
X102037333Y-145362666D01*
X102104000Y-145329333D01*
X102137333Y-145296000D01*
X102170667Y-145229333D01*
X102170667Y-145029333D01*
X102137333Y-144962666D01*
X102104000Y-144929333D01*
X101470667Y-145562667D02*
X102170667Y-145796000D01*
X101470667Y-146029333D01*
X101470667Y-146196000D02*
X101470667Y-146629333D01*
X101737333Y-146396000D01*
X101737333Y-146496000D01*
X101770667Y-146562667D01*
X101804000Y-146596000D01*
X101870667Y-146629333D01*
X102037333Y-146629333D01*
X102104000Y-146596000D01*
X102137333Y-146562667D01*
X102170667Y-146496000D01*
X102170667Y-146296000D01*
X102137333Y-146229333D01*
X102104000Y-146196000D01*
X101504000Y-147802667D02*
X101470667Y-147736001D01*
X101470667Y-147636001D01*
X101504000Y-147536001D01*
X101570667Y-147469334D01*
X101637333Y-147436001D01*
X101770667Y-147402667D01*
X101870667Y-147402667D01*
X102004000Y-147436001D01*
X102070667Y-147469334D01*
X102137333Y-147536001D01*
X102170667Y-147636001D01*
X102170667Y-147702667D01*
X102137333Y-147802667D01*
X102104000Y-147836001D01*
X101870667Y-147836001D01*
X101870667Y-147702667D01*
X102170667Y-148136001D02*
X101470667Y-148136001D01*
X102170667Y-148536001D01*
X101470667Y-148536001D01*
X102170667Y-148869334D02*
X101470667Y-148869334D01*
X101470667Y-149036000D01*
X101504000Y-149136000D01*
X101570667Y-149202667D01*
X101637333Y-149236000D01*
X101770667Y-149269334D01*
X101870667Y-149269334D01*
X102004000Y-149236000D01*
X102070667Y-149202667D01*
X102137333Y-149136000D01*
X102170667Y-149036000D01*
X102170667Y-148869334D01*
X101504000Y-141452667D02*
X101470667Y-141386001D01*
X101470667Y-141286001D01*
X101504000Y-141186001D01*
X101570667Y-141119334D01*
X101637333Y-141086001D01*
X101770667Y-141052667D01*
X101870667Y-141052667D01*
X102004000Y-141086001D01*
X102070667Y-141119334D01*
X102137333Y-141186001D01*
X102170667Y-141286001D01*
X102170667Y-141352667D01*
X102137333Y-141452667D01*
X102104000Y-141486001D01*
X101870667Y-141486001D01*
X101870667Y-141352667D01*
X102170667Y-141786001D02*
X101470667Y-141786001D01*
X102170667Y-142186001D01*
X101470667Y-142186001D01*
X102170667Y-142519334D02*
X101470667Y-142519334D01*
X101470667Y-142686000D01*
X101504000Y-142786000D01*
X101570667Y-142852667D01*
X101637333Y-142886000D01*
X101770667Y-142919334D01*
X101870667Y-142919334D01*
X102004000Y-142886000D01*
X102070667Y-142852667D01*
X102137333Y-142786000D01*
X102170667Y-142686000D01*
X102170667Y-142519334D01*
X101504000Y-131292667D02*
X101470667Y-131226001D01*
X101470667Y-131126001D01*
X101504000Y-131026001D01*
X101570667Y-130959334D01*
X101637333Y-130926001D01*
X101770667Y-130892667D01*
X101870667Y-130892667D01*
X102004000Y-130926001D01*
X102070667Y-130959334D01*
X102137333Y-131026001D01*
X102170667Y-131126001D01*
X102170667Y-131192667D01*
X102137333Y-131292667D01*
X102104000Y-131326001D01*
X101870667Y-131326001D01*
X101870667Y-131192667D01*
X102170667Y-131626001D02*
X101470667Y-131626001D01*
X102170667Y-132026001D01*
X101470667Y-132026001D01*
X102170667Y-132359334D02*
X101470667Y-132359334D01*
X101470667Y-132526000D01*
X101504000Y-132626000D01*
X101570667Y-132692667D01*
X101637333Y-132726000D01*
X101770667Y-132759334D01*
X101870667Y-132759334D01*
X102004000Y-132726000D01*
X102070667Y-132692667D01*
X102137333Y-132626000D01*
X102170667Y-132526000D01*
X102170667Y-132359334D01*
X101504000Y-121132667D02*
X101470667Y-121066001D01*
X101470667Y-120966001D01*
X101504000Y-120866001D01*
X101570667Y-120799334D01*
X101637333Y-120766001D01*
X101770667Y-120732667D01*
X101870667Y-120732667D01*
X102004000Y-120766001D01*
X102070667Y-120799334D01*
X102137333Y-120866001D01*
X102170667Y-120966001D01*
X102170667Y-121032667D01*
X102137333Y-121132667D01*
X102104000Y-121166001D01*
X101870667Y-121166001D01*
X101870667Y-121032667D01*
X102170667Y-121466001D02*
X101470667Y-121466001D01*
X102170667Y-121866001D01*
X101470667Y-121866001D01*
X102170667Y-122199334D02*
X101470667Y-122199334D01*
X101470667Y-122366000D01*
X101504000Y-122466000D01*
X101570667Y-122532667D01*
X101637333Y-122566000D01*
X101770667Y-122599334D01*
X101870667Y-122599334D01*
X102004000Y-122566000D01*
X102070667Y-122532667D01*
X102137333Y-122466000D01*
X102170667Y-122366000D01*
X102170667Y-122199334D01*
X102170667Y-116152666D02*
X102170667Y-115752666D01*
X102170667Y-115952666D02*
X101470667Y-115952666D01*
X101570667Y-115886000D01*
X101637333Y-115819333D01*
X101670667Y-115752666D01*
X101537333Y-116419333D02*
X101504000Y-116452667D01*
X101470667Y-116519333D01*
X101470667Y-116686000D01*
X101504000Y-116752667D01*
X101537333Y-116786000D01*
X101604000Y-116819333D01*
X101670667Y-116819333D01*
X101770667Y-116786000D01*
X102170667Y-116386000D01*
X102170667Y-116819333D01*
X101470667Y-117019334D02*
X102170667Y-117252667D01*
X101470667Y-117486000D01*
D11*
X149459905Y-131439142D02*
X148659905Y-131439142D01*
X148736095Y-131781999D02*
X148698000Y-131820094D01*
X148659905Y-131896285D01*
X148659905Y-132086761D01*
X148698000Y-132162951D01*
X148736095Y-132201047D01*
X148812286Y-132239142D01*
X148888476Y-132239142D01*
X149002762Y-132201047D01*
X149459905Y-131743904D01*
X149459905Y-132239142D01*
X149383714Y-133039142D02*
X149421810Y-133001047D01*
X149459905Y-132886761D01*
X149459905Y-132810571D01*
X149421810Y-132696285D01*
X149345619Y-132620094D01*
X149269429Y-132581999D01*
X149117048Y-132543904D01*
X149002762Y-132543904D01*
X148850381Y-132581999D01*
X148774190Y-132620094D01*
X148698000Y-132696285D01*
X148659905Y-132810571D01*
X148659905Y-132886761D01*
X148698000Y-133001047D01*
X148736095Y-133039142D01*
X149040857Y-133991523D02*
X149040857Y-134258190D01*
X149459905Y-134372476D02*
X149459905Y-133991523D01*
X148659905Y-133991523D01*
X148659905Y-134372476D01*
X149459905Y-134639143D02*
X148926571Y-135058190D01*
X148926571Y-134639143D02*
X149459905Y-135058190D01*
X148926571Y-135248666D02*
X148926571Y-135553428D01*
X148659905Y-135362952D02*
X149345619Y-135362952D01*
X149421810Y-135401047D01*
X149459905Y-135477238D01*
X149459905Y-135553428D01*
X149421810Y-136124857D02*
X149459905Y-136048667D01*
X149459905Y-135896286D01*
X149421810Y-135820095D01*
X149345619Y-135782000D01*
X149040857Y-135782000D01*
X148964667Y-135820095D01*
X148926571Y-135896286D01*
X148926571Y-136048667D01*
X148964667Y-136124857D01*
X149040857Y-136162952D01*
X149117048Y-136162952D01*
X149193238Y-135782000D01*
X148926571Y-136505809D02*
X149459905Y-136505809D01*
X149002762Y-136505809D02*
X148964667Y-136543904D01*
X148926571Y-136620095D01*
X148926571Y-136734381D01*
X148964667Y-136810571D01*
X149040857Y-136848666D01*
X149459905Y-136848666D01*
X149421810Y-137191524D02*
X149459905Y-137267714D01*
X149459905Y-137420095D01*
X149421810Y-137496286D01*
X149345619Y-137534381D01*
X149307524Y-137534381D01*
X149231333Y-137496286D01*
X149193238Y-137420095D01*
X149193238Y-137305810D01*
X149155143Y-137229619D01*
X149078952Y-137191524D01*
X149040857Y-137191524D01*
X148964667Y-137229619D01*
X148926571Y-137305810D01*
X148926571Y-137420095D01*
X148964667Y-137496286D01*
X149459905Y-137877238D02*
X148926571Y-137877238D01*
X148659905Y-137877238D02*
X148698000Y-137839143D01*
X148736095Y-137877238D01*
X148698000Y-137915333D01*
X148659905Y-137877238D01*
X148736095Y-137877238D01*
X149459905Y-138372476D02*
X149421810Y-138296285D01*
X149383714Y-138258190D01*
X149307524Y-138220095D01*
X149078952Y-138220095D01*
X149002762Y-138258190D01*
X148964667Y-138296285D01*
X148926571Y-138372476D01*
X148926571Y-138486762D01*
X148964667Y-138562952D01*
X149002762Y-138601047D01*
X149078952Y-138639143D01*
X149307524Y-138639143D01*
X149383714Y-138601047D01*
X149421810Y-138562952D01*
X149459905Y-138486762D01*
X149459905Y-138372476D01*
X148926571Y-138982000D02*
X149459905Y-138982000D01*
X149002762Y-138982000D02*
X148964667Y-139020095D01*
X148926571Y-139096286D01*
X148926571Y-139210572D01*
X148964667Y-139286762D01*
X149040857Y-139324857D01*
X149459905Y-139324857D01*
D13*
X105410000Y-116586000D02*
X105410000Y-149606000D01*
X105410000Y-149606000D02*
X102870000Y-149606000D01*
X102870000Y-149606000D02*
X102870000Y-116586000D01*
X102590000Y-113766000D02*
X102590000Y-115316000D01*
X102870000Y-116586000D02*
X105410000Y-116586000D01*
X105690000Y-115316000D02*
X105690000Y-113766000D01*
X105690000Y-113766000D02*
X102590000Y-113766000D01*
X148082000Y-132842000D02*
X148082000Y-140462000D01*
X145542000Y-132842000D02*
X145542000Y-140462000D01*
X145262000Y-130022000D02*
X145262000Y-131572000D01*
X148082000Y-140462000D02*
X145542000Y-140462000D01*
X145542000Y-132842000D02*
X148082000Y-132842000D01*
X148362000Y-131572000D02*
X148362000Y-130022000D01*
X148362000Y-130022000D02*
X145262000Y-130022000D01*
X104878095Y-113228381D02*
X104878095Y-112228381D01*
X104497142Y-112228381D01*
X104401904Y-112276000D01*
X104354285Y-112323619D01*
X104306666Y-112418857D01*
X104306666Y-112561714D01*
X104354285Y-112656952D01*
X104401904Y-112704571D01*
X104497142Y-112752190D01*
X104878095Y-112752190D01*
X103354285Y-113228381D02*
X103925714Y-113228381D01*
X103640000Y-113228381D02*
X103640000Y-112228381D01*
X103735238Y-112371238D01*
X103830476Y-112466476D01*
X103925714Y-112514095D01*
X147550095Y-129484381D02*
X147550095Y-128484381D01*
X147169142Y-128484381D01*
X147073904Y-128532000D01*
X147026285Y-128579619D01*
X146978666Y-128674857D01*
X146978666Y-128817714D01*
X147026285Y-128912952D01*
X147073904Y-128960571D01*
X147169142Y-129008190D01*
X147550095Y-129008190D01*
X146121523Y-128817714D02*
X146121523Y-129484381D01*
X146359619Y-128436762D02*
X146597714Y-129151048D01*
X145978666Y-129151048D01*
M02*
