G04 #@! TF.FileFunction,Soldermask,Top*
%FSLAX46Y46*%
G04 Gerber Fmt 4.6, Leading zero omitted, Abs format (unit mm)*
G04 Created by KiCad (PCBNEW 4.0.0-2.201512091501+6195~38~ubuntu14.04.1-stable) date Wed 16 Dec 2015 16:01:55 GMT*
%MOMM*%
G01*
G04 APERTURE LIST*
%ADD10C,0.100000*%
%ADD11C,1.800000*%
%ADD12C,3.500000*%
%ADD13R,1.300000X0.700000*%
%ADD14C,2.100000*%
%ADD15C,1.300000*%
%ADD16C,4.500000*%
%ADD17R,2.032000X1.727200*%
%ADD18O,2.032000X1.727200*%
%ADD19R,1.500000X3.500000*%
G04 APERTURE END LIST*
D10*
D11*
X142621000Y-108712000D03*
X140081000Y-108712000D03*
X145161000Y-108712000D03*
X137541000Y-108712000D03*
X138811000Y-111252000D03*
X136271000Y-111252000D03*
X141351000Y-111252000D03*
X143891000Y-111252000D03*
D12*
X135001000Y-102362000D03*
X146431000Y-102362000D03*
D13*
X131064000Y-142682000D03*
X131064000Y-140782000D03*
X133604000Y-142682000D03*
X133604000Y-140782000D03*
X136144000Y-142682000D03*
X136144000Y-140782000D03*
X138684000Y-142682000D03*
X138684000Y-140782000D03*
D11*
X142530000Y-145522000D03*
X147030000Y-145522000D03*
D14*
X141280000Y-143022000D03*
X148280000Y-143022000D03*
D11*
X136906000Y-147828000D03*
X139446000Y-147828000D03*
X134366000Y-147828000D03*
X131826000Y-147828000D03*
X139446000Y-145288000D03*
X136906000Y-145288000D03*
X134366000Y-145288000D03*
X131826000Y-145288000D03*
D15*
X120654000Y-103124000D03*
X118364000Y-103124000D03*
X116074000Y-103124000D03*
X113784000Y-103124000D03*
X111494000Y-103124000D03*
X119514000Y-105664000D03*
X117224000Y-105664000D03*
X114934000Y-105664000D03*
X112644000Y-105664000D03*
X110354000Y-105664000D03*
X120654000Y-108204000D03*
X118364000Y-108204000D03*
X116074000Y-108204000D03*
X113784000Y-108204000D03*
X111494000Y-108204000D03*
D16*
X103329000Y-105664000D03*
X128319000Y-105664000D03*
D17*
X104140000Y-115316000D03*
D18*
X104140000Y-117856000D03*
X104140000Y-120396000D03*
X104140000Y-122936000D03*
X104140000Y-125476000D03*
X104140000Y-128016000D03*
X104140000Y-130556000D03*
X104140000Y-133096000D03*
X104140000Y-135636000D03*
X104140000Y-138176000D03*
X104140000Y-140716000D03*
X104140000Y-143256000D03*
X104140000Y-145796000D03*
X104140000Y-148336000D03*
D17*
X106680000Y-115316000D03*
D18*
X106680000Y-117856000D03*
X106680000Y-120396000D03*
X106680000Y-122936000D03*
X106680000Y-125476000D03*
X106680000Y-128016000D03*
X106680000Y-130556000D03*
X106680000Y-133096000D03*
X106680000Y-135636000D03*
X106680000Y-138176000D03*
X106680000Y-140716000D03*
X106680000Y-143256000D03*
X106680000Y-145796000D03*
X106680000Y-148336000D03*
D19*
X111125000Y-139700000D03*
X112395000Y-144740000D03*
X113665000Y-139740000D03*
X114935000Y-144740000D03*
X116205000Y-139740000D03*
X117475000Y-144740000D03*
X118745000Y-139740000D03*
X120015000Y-144740000D03*
X121285000Y-139700000D03*
X122555000Y-144740000D03*
X123825000Y-139700000D03*
X125095000Y-144780000D03*
X126365000Y-139700000D03*
X127635000Y-144780000D03*
D17*
X146812000Y-131572000D03*
D18*
X146812000Y-134112000D03*
X146812000Y-136652000D03*
X146812000Y-139192000D03*
D17*
X144272000Y-131572000D03*
D18*
X144272000Y-134112000D03*
X144272000Y-136652000D03*
X144272000Y-139192000D03*
M02*
