G04 #@! TF.FileFunction,Copper,L2,Bot,Signal*
%FSLAX46Y46*%
G04 Gerber Fmt 4.6, Leading zero omitted, Abs format (unit mm)*
G04 Created by KiCad (PCBNEW 4.0.0-2.201512091501+6195~38~ubuntu14.04.1-stable) date Wed 16 Dec 2015 16:01:55 GMT*
%MOMM*%
G01*
G04 APERTURE LIST*
%ADD10C,0.100000*%
%ADD11C,1.800000*%
%ADD12C,3.500000*%
%ADD13C,2.100000*%
%ADD14C,1.300000*%
%ADD15C,4.500000*%
%ADD16R,2.032000X1.727200*%
%ADD17O,2.032000X1.727200*%
%ADD18C,0.889000*%
%ADD19C,1.000000*%
%ADD20C,1.016000*%
%ADD21C,2.000000*%
%ADD22C,0.254000*%
%ADD23C,0.762000*%
%ADD24C,0.381000*%
G04 APERTURE END LIST*
D10*
D11*
X142621000Y-108712000D03*
X140081000Y-108712000D03*
X145161000Y-108712000D03*
X137541000Y-108712000D03*
X138811000Y-111252000D03*
X136271000Y-111252000D03*
X141351000Y-111252000D03*
X143891000Y-111252000D03*
D12*
X135001000Y-102362000D03*
X146431000Y-102362000D03*
D11*
X142530000Y-145522000D03*
X147030000Y-145522000D03*
D13*
X141280000Y-143022000D03*
X148280000Y-143022000D03*
D11*
X136906000Y-147828000D03*
X139446000Y-147828000D03*
X134366000Y-147828000D03*
X131826000Y-147828000D03*
X139446000Y-145288000D03*
X136906000Y-145288000D03*
X134366000Y-145288000D03*
X131826000Y-145288000D03*
D14*
X120654000Y-103124000D03*
X118364000Y-103124000D03*
X116074000Y-103124000D03*
X113784000Y-103124000D03*
X111494000Y-103124000D03*
X119514000Y-105664000D03*
X117224000Y-105664000D03*
X114934000Y-105664000D03*
X112644000Y-105664000D03*
X110354000Y-105664000D03*
X120654000Y-108204000D03*
X118364000Y-108204000D03*
X116074000Y-108204000D03*
X113784000Y-108204000D03*
X111494000Y-108204000D03*
D15*
X103329000Y-105664000D03*
X128319000Y-105664000D03*
D16*
X104140000Y-115316000D03*
D17*
X104140000Y-117856000D03*
X104140000Y-120396000D03*
X104140000Y-122936000D03*
X104140000Y-125476000D03*
X104140000Y-128016000D03*
X104140000Y-130556000D03*
X104140000Y-133096000D03*
X104140000Y-135636000D03*
X104140000Y-138176000D03*
X104140000Y-140716000D03*
X104140000Y-143256000D03*
X104140000Y-145796000D03*
X104140000Y-148336000D03*
D16*
X106680000Y-115316000D03*
D17*
X106680000Y-117856000D03*
X106680000Y-120396000D03*
X106680000Y-122936000D03*
X106680000Y-125476000D03*
X106680000Y-128016000D03*
X106680000Y-130556000D03*
X106680000Y-133096000D03*
X106680000Y-135636000D03*
X106680000Y-138176000D03*
X106680000Y-140716000D03*
X106680000Y-143256000D03*
X106680000Y-145796000D03*
X106680000Y-148336000D03*
D16*
X146812000Y-131572000D03*
D17*
X146812000Y-134112000D03*
X146812000Y-136652000D03*
X146812000Y-139192000D03*
D16*
X144272000Y-131572000D03*
D17*
X144272000Y-134112000D03*
X144272000Y-136652000D03*
X144272000Y-139192000D03*
D18*
X142748000Y-119634000D03*
X146558000Y-119634000D03*
D19*
X133096000Y-143764000D03*
X114935000Y-144740000D03*
X117856000Y-146304000D03*
X122555000Y-144740000D03*
X124968000Y-143256000D03*
X126365000Y-139700000D03*
X127635000Y-144780000D03*
D20*
X108712000Y-114300000D02*
X107696000Y-113284000D01*
X107696000Y-104648000D02*
X110744000Y-101600000D01*
X107696000Y-113284000D02*
X107696000Y-104648000D01*
X145161000Y-108712000D02*
X145161000Y-107569000D01*
X108712000Y-133604000D02*
X106680000Y-135636000D01*
X108712000Y-114300000D02*
X108712000Y-133604000D01*
X130048000Y-101600000D02*
X110744000Y-101600000D01*
X134112000Y-105664000D02*
X130048000Y-101600000D01*
X143256000Y-105664000D02*
X134112000Y-105664000D01*
X145161000Y-107569000D02*
X143256000Y-105664000D01*
D21*
X104140000Y-135636000D02*
X106680000Y-138176000D01*
X104140000Y-135636000D02*
X104140000Y-138176000D01*
X104140000Y-138176000D02*
X106680000Y-138176000D01*
X106680000Y-135636000D02*
X106680000Y-138176000D01*
X104140000Y-135636000D02*
X106680000Y-135636000D01*
D22*
X106680000Y-122936000D02*
X106934000Y-122682000D01*
X106680000Y-120396000D02*
X106934000Y-120142000D01*
D20*
X106934000Y-133096000D02*
X106680000Y-133096000D01*
D21*
X104140000Y-125476000D02*
X106680000Y-128016000D01*
X106680000Y-128016000D02*
X104140000Y-128016000D01*
X104140000Y-128016000D02*
X104140000Y-125476000D01*
X104140000Y-125476000D02*
X106680000Y-125476000D01*
X106680000Y-125476000D02*
X106680000Y-128016000D01*
D20*
X108966000Y-105156000D02*
X108966000Y-112776000D01*
D23*
X109728000Y-104394000D02*
X121158000Y-104394000D01*
D20*
X137033000Y-113030000D02*
X130302000Y-113030000D01*
X130302000Y-113030000D02*
X121666000Y-104394000D01*
X121666000Y-104394000D02*
X121158000Y-104394000D01*
X138811000Y-111252000D02*
X137033000Y-113030000D01*
X109728000Y-104394000D02*
X108966000Y-105156000D01*
X108712000Y-143764000D02*
X106680000Y-145796000D01*
X108712000Y-135636000D02*
X108712000Y-143764000D01*
X109982000Y-134366000D02*
X108712000Y-135636000D01*
X109982000Y-113792000D02*
X109982000Y-134366000D01*
X108966000Y-112776000D02*
X109982000Y-113792000D01*
D24*
X138176000Y-146304000D02*
X138176000Y-148336000D01*
X110236000Y-149352000D02*
X106680000Y-145796000D01*
X137160000Y-149352000D02*
X110236000Y-149352000D01*
X138176000Y-148336000D02*
X137160000Y-149352000D01*
D20*
X139446000Y-145288000D02*
X139192000Y-145288000D01*
X139192000Y-145288000D02*
X138176000Y-146304000D01*
X137160000Y-145288000D02*
X138176000Y-146304000D01*
X136906000Y-145288000D02*
X137160000Y-145288000D01*
X131826000Y-145288000D02*
X134366000Y-145288000D01*
X134366000Y-145288000D02*
X136906000Y-145288000D01*
X136906000Y-145288000D02*
X139446000Y-145288000D01*
D21*
X106680000Y-145796000D02*
X104140000Y-145796000D01*
D24*
X131064000Y-143764000D02*
X128016000Y-146812000D01*
X133096000Y-143764000D02*
X131064000Y-143764000D01*
X118832000Y-144740000D02*
X114935000Y-144740000D01*
X120904000Y-146812000D02*
X118832000Y-144740000D01*
X128016000Y-146812000D02*
X120904000Y-146812000D01*
X130556000Y-146558000D02*
X129286000Y-147828000D01*
X119380000Y-147828000D02*
X117856000Y-146304000D01*
X129286000Y-147828000D02*
X119380000Y-147828000D01*
X135636000Y-146558000D02*
X136906000Y-147828000D01*
X130556000Y-146558000D02*
X135636000Y-146558000D01*
X147030000Y-145522000D02*
X142732000Y-141224000D01*
X132588000Y-141224000D02*
X142732000Y-141224000D01*
X128016000Y-145796000D02*
X132588000Y-141224000D01*
X123611000Y-145796000D02*
X128016000Y-145796000D01*
X123611000Y-145796000D02*
X122555000Y-144740000D01*
X123444000Y-141732000D02*
X115316000Y-141732000D01*
X114808000Y-141224000D02*
X114808000Y-133096000D01*
X115316000Y-141732000D02*
X114808000Y-141224000D01*
X114808000Y-133096000D02*
X114808000Y-109728000D01*
X114808000Y-109728000D02*
X113784000Y-108704000D01*
X113784000Y-108704000D02*
X113784000Y-108204000D01*
X124968000Y-143256000D02*
X123444000Y-141732000D01*
X116074000Y-108204000D02*
X116074000Y-108454000D01*
X116074000Y-108454000D02*
X117348000Y-109728000D01*
X117348000Y-109728000D02*
X117348000Y-130683000D01*
X117348000Y-130683000D02*
X117348000Y-130556000D01*
X117348000Y-130556000D02*
X117348000Y-130683000D01*
X117348000Y-130683000D02*
X126365000Y-139700000D01*
X122936000Y-142748000D02*
X113284000Y-142748000D01*
X113284000Y-142748000D02*
X112268000Y-141732000D01*
X112268000Y-141732000D02*
X112268000Y-132080000D01*
X111494000Y-108954000D02*
X112268000Y-109728000D01*
X111494000Y-108954000D02*
X111494000Y-108204000D01*
X112268000Y-132080000D02*
X112268000Y-109728000D01*
X124968000Y-144780000D02*
X122936000Y-142748000D01*
X124968000Y-144780000D02*
X127635000Y-144780000D01*
X120908000Y-102870000D02*
X120654000Y-103124000D01*
X129794000Y-102870000D02*
X120908000Y-102870000D01*
X143891000Y-111252000D02*
X142621000Y-109982000D01*
X142621000Y-109982000D02*
X136906000Y-109982000D01*
X136906000Y-109982000D02*
X129794000Y-102870000D01*
X144272000Y-111633000D02*
X143891000Y-111252000D01*
X144272000Y-131572000D02*
X144272000Y-111633000D01*
X146812000Y-131572000D02*
X144272000Y-131572000D01*
X146812000Y-134112000D02*
X144272000Y-134112000D01*
X141351000Y-131191000D02*
X141351000Y-111252000D01*
X144272000Y-134112000D02*
X141351000Y-131191000D01*
X148336000Y-137668000D02*
X146812000Y-139192000D01*
X143129000Y-107188000D02*
X143891000Y-107950000D01*
X143891000Y-109347000D02*
X148336000Y-113792000D01*
X143891000Y-107950000D02*
X143891000Y-109347000D01*
X137541000Y-108712000D02*
X139065000Y-107188000D01*
X139065000Y-107188000D02*
X143129000Y-107188000D01*
X146812000Y-139192000D02*
X144272000Y-139192000D01*
X148336000Y-113792000D02*
X148336000Y-137668000D01*
D22*
G36*
X145513056Y-145172490D02*
X145495267Y-145215330D01*
X145494735Y-145825991D01*
X145727932Y-146390371D01*
X146159357Y-146822551D01*
X146723330Y-147056733D01*
X147333991Y-147057265D01*
X147898371Y-146824068D01*
X148330551Y-146392643D01*
X148564733Y-145828670D01*
X148565265Y-145218009D01*
X148354148Y-144707065D01*
X148613697Y-144707292D01*
X149175000Y-144475366D01*
X149175000Y-149175000D01*
X140205627Y-149175000D01*
X140314371Y-149130068D01*
X140746551Y-148698643D01*
X140980733Y-148134670D01*
X140981265Y-147524009D01*
X140748068Y-146959629D01*
X140391223Y-146602159D01*
X141629446Y-146602159D01*
X141715852Y-146858643D01*
X142289336Y-147068458D01*
X142899460Y-147042839D01*
X143344148Y-146858643D01*
X143430554Y-146602159D01*
X142530000Y-145701605D01*
X141629446Y-146602159D01*
X140391223Y-146602159D01*
X140346818Y-146557677D01*
X140746551Y-146158643D01*
X140980733Y-145594670D01*
X140981265Y-144984009D01*
X140850806Y-144668274D01*
X140943362Y-144706707D01*
X141196101Y-144706928D01*
X141193357Y-144707852D01*
X140983542Y-145281336D01*
X141009161Y-145891460D01*
X141193357Y-146336148D01*
X141449841Y-146422554D01*
X142350395Y-145522000D01*
X142709605Y-145522000D01*
X143610159Y-146422554D01*
X143866643Y-146336148D01*
X144076458Y-145762664D01*
X144050839Y-145152540D01*
X143866643Y-144707852D01*
X143610159Y-144621446D01*
X142709605Y-145522000D01*
X142350395Y-145522000D01*
X142336253Y-145507858D01*
X142515858Y-145328253D01*
X142530000Y-145342395D01*
X143430554Y-144441841D01*
X143344148Y-144185357D01*
X142770664Y-143975542D01*
X142707152Y-143978209D01*
X142707640Y-143977722D01*
X142964707Y-143358638D01*
X142965292Y-142688303D01*
X142920525Y-142579959D01*
X145513056Y-145172490D01*
X145513056Y-145172490D01*
G37*
X145513056Y-145172490D02*
X145495267Y-145215330D01*
X145494735Y-145825991D01*
X145727932Y-146390371D01*
X146159357Y-146822551D01*
X146723330Y-147056733D01*
X147333991Y-147057265D01*
X147898371Y-146824068D01*
X148330551Y-146392643D01*
X148564733Y-145828670D01*
X148565265Y-145218009D01*
X148354148Y-144707065D01*
X148613697Y-144707292D01*
X149175000Y-144475366D01*
X149175000Y-149175000D01*
X140205627Y-149175000D01*
X140314371Y-149130068D01*
X140746551Y-148698643D01*
X140980733Y-148134670D01*
X140981265Y-147524009D01*
X140748068Y-146959629D01*
X140391223Y-146602159D01*
X141629446Y-146602159D01*
X141715852Y-146858643D01*
X142289336Y-147068458D01*
X142899460Y-147042839D01*
X143344148Y-146858643D01*
X143430554Y-146602159D01*
X142530000Y-145701605D01*
X141629446Y-146602159D01*
X140391223Y-146602159D01*
X140346818Y-146557677D01*
X140746551Y-146158643D01*
X140980733Y-145594670D01*
X140981265Y-144984009D01*
X140850806Y-144668274D01*
X140943362Y-144706707D01*
X141196101Y-144706928D01*
X141193357Y-144707852D01*
X140983542Y-145281336D01*
X141009161Y-145891460D01*
X141193357Y-146336148D01*
X141449841Y-146422554D01*
X142350395Y-145522000D01*
X142709605Y-145522000D01*
X143610159Y-146422554D01*
X143866643Y-146336148D01*
X144076458Y-145762664D01*
X144050839Y-145152540D01*
X143866643Y-144707852D01*
X143610159Y-144621446D01*
X142709605Y-145522000D01*
X142350395Y-145522000D01*
X142336253Y-145507858D01*
X142515858Y-145328253D01*
X142530000Y-145342395D01*
X143430554Y-144441841D01*
X143344148Y-144185357D01*
X142770664Y-143975542D01*
X142707152Y-143978209D01*
X142707640Y-143977722D01*
X142964707Y-143358638D01*
X142965292Y-142688303D01*
X142920525Y-142579959D01*
X145513056Y-145172490D01*
G36*
X109935777Y-100791777D02*
X106887777Y-103839777D01*
X106640006Y-104210593D01*
X106553000Y-104648000D01*
X106553000Y-113284000D01*
X106640006Y-113721407D01*
X106695834Y-113804960D01*
X105664000Y-113804960D01*
X105428683Y-113849238D01*
X105412901Y-113859393D01*
X105407890Y-113855969D01*
X105156000Y-113804960D01*
X103124000Y-113804960D01*
X102888683Y-113849238D01*
X102672559Y-113988310D01*
X102527569Y-114200510D01*
X102476560Y-114452400D01*
X102476560Y-116179600D01*
X102520838Y-116414917D01*
X102659910Y-116631041D01*
X102872110Y-116776031D01*
X102913439Y-116784400D01*
X102895585Y-116796330D01*
X102570729Y-117282511D01*
X102456655Y-117856000D01*
X102570729Y-118429489D01*
X102895585Y-118915670D01*
X103205069Y-119122461D01*
X102789268Y-119493964D01*
X102535291Y-120021209D01*
X102532642Y-120036974D01*
X102653783Y-120269000D01*
X104013000Y-120269000D01*
X104013000Y-120249000D01*
X104267000Y-120249000D01*
X104267000Y-120269000D01*
X106553000Y-120269000D01*
X106553000Y-120249000D01*
X106807000Y-120249000D01*
X106807000Y-120269000D01*
X106827000Y-120269000D01*
X106827000Y-120523000D01*
X106807000Y-120523000D01*
X106807000Y-122809000D01*
X106827000Y-122809000D01*
X106827000Y-123063000D01*
X106807000Y-123063000D01*
X106807000Y-123083000D01*
X106553000Y-123083000D01*
X106553000Y-123063000D01*
X104267000Y-123063000D01*
X104267000Y-123083000D01*
X104013000Y-123083000D01*
X104013000Y-123063000D01*
X102653783Y-123063000D01*
X102532642Y-123295026D01*
X102535291Y-123310791D01*
X102789268Y-123838036D01*
X103181086Y-124188111D01*
X102983880Y-124319880D01*
X102938670Y-124387541D01*
X102895585Y-124416330D01*
X102570729Y-124902511D01*
X102456655Y-125476000D01*
X102505000Y-125719047D01*
X102505000Y-127772953D01*
X102456655Y-128016000D01*
X102570729Y-128589489D01*
X102895585Y-129075670D01*
X102938670Y-129104459D01*
X102983880Y-129172120D01*
X103181086Y-129303889D01*
X102789268Y-129653964D01*
X102535291Y-130181209D01*
X102532642Y-130196974D01*
X102653783Y-130429000D01*
X104013000Y-130429000D01*
X104013000Y-130409000D01*
X104267000Y-130409000D01*
X104267000Y-130429000D01*
X106553000Y-130429000D01*
X106553000Y-130409000D01*
X106807000Y-130409000D01*
X106807000Y-130429000D01*
X106827000Y-130429000D01*
X106827000Y-130683000D01*
X106807000Y-130683000D01*
X106807000Y-132969000D01*
X106827000Y-132969000D01*
X106827000Y-133223000D01*
X106807000Y-133223000D01*
X106807000Y-133243000D01*
X106553000Y-133243000D01*
X106553000Y-133223000D01*
X104267000Y-133223000D01*
X104267000Y-133243000D01*
X104013000Y-133243000D01*
X104013000Y-133223000D01*
X102653783Y-133223000D01*
X102532642Y-133455026D01*
X102535291Y-133470791D01*
X102789268Y-133998036D01*
X103181086Y-134348111D01*
X102983880Y-134479880D01*
X102938670Y-134547541D01*
X102895585Y-134576330D01*
X102570729Y-135062511D01*
X102456655Y-135636000D01*
X102505000Y-135879047D01*
X102505000Y-137932953D01*
X102456655Y-138176000D01*
X102570729Y-138749489D01*
X102895585Y-139235670D01*
X102938670Y-139264459D01*
X102983880Y-139332120D01*
X103181086Y-139463889D01*
X102789268Y-139813964D01*
X102535291Y-140341209D01*
X102532642Y-140356974D01*
X102653783Y-140589000D01*
X104013000Y-140589000D01*
X104013000Y-140569000D01*
X104267000Y-140569000D01*
X104267000Y-140589000D01*
X106553000Y-140589000D01*
X106553000Y-140569000D01*
X106807000Y-140569000D01*
X106807000Y-140589000D01*
X106827000Y-140589000D01*
X106827000Y-140843000D01*
X106807000Y-140843000D01*
X106807000Y-143129000D01*
X106827000Y-143129000D01*
X106827000Y-143383000D01*
X106807000Y-143383000D01*
X106807000Y-143403000D01*
X106553000Y-143403000D01*
X106553000Y-143383000D01*
X104267000Y-143383000D01*
X104267000Y-143403000D01*
X104013000Y-143403000D01*
X104013000Y-143383000D01*
X102653783Y-143383000D01*
X102532642Y-143615026D01*
X102535291Y-143630791D01*
X102789268Y-144158036D01*
X103181086Y-144508111D01*
X102983880Y-144639880D01*
X102938670Y-144707541D01*
X102895585Y-144736330D01*
X102570729Y-145222511D01*
X102456655Y-145796000D01*
X102570729Y-146369489D01*
X102895585Y-146855670D01*
X102938670Y-146884459D01*
X102983880Y-146952120D01*
X103181086Y-147083889D01*
X102789268Y-147433964D01*
X102535291Y-147961209D01*
X102532642Y-147976974D01*
X102653783Y-148209000D01*
X104013000Y-148209000D01*
X104013000Y-148189000D01*
X104267000Y-148189000D01*
X104267000Y-148209000D01*
X106553000Y-148209000D01*
X106553000Y-148189000D01*
X106807000Y-148189000D01*
X106807000Y-148209000D01*
X106827000Y-148209000D01*
X106827000Y-148463000D01*
X106807000Y-148463000D01*
X106807000Y-148483000D01*
X106553000Y-148483000D01*
X106553000Y-148463000D01*
X104267000Y-148463000D01*
X104267000Y-148483000D01*
X104013000Y-148483000D01*
X104013000Y-148463000D01*
X102653783Y-148463000D01*
X102532642Y-148695026D01*
X102535291Y-148710791D01*
X102758903Y-149175000D01*
X100761000Y-149175000D01*
X100761000Y-141075026D01*
X102532642Y-141075026D01*
X102535291Y-141090791D01*
X102789268Y-141618036D01*
X103201108Y-141986000D01*
X102789268Y-142353964D01*
X102535291Y-142881209D01*
X102532642Y-142896974D01*
X102653783Y-143129000D01*
X104013000Y-143129000D01*
X104013000Y-140843000D01*
X104267000Y-140843000D01*
X104267000Y-143129000D01*
X106553000Y-143129000D01*
X106553000Y-140843000D01*
X104267000Y-140843000D01*
X104013000Y-140843000D01*
X102653783Y-140843000D01*
X102532642Y-141075026D01*
X100761000Y-141075026D01*
X100761000Y-130915026D01*
X102532642Y-130915026D01*
X102535291Y-130930791D01*
X102789268Y-131458036D01*
X103201108Y-131826000D01*
X102789268Y-132193964D01*
X102535291Y-132721209D01*
X102532642Y-132736974D01*
X102653783Y-132969000D01*
X104013000Y-132969000D01*
X104013000Y-130683000D01*
X104267000Y-130683000D01*
X104267000Y-132969000D01*
X106553000Y-132969000D01*
X106553000Y-130683000D01*
X104267000Y-130683000D01*
X104013000Y-130683000D01*
X102653783Y-130683000D01*
X102532642Y-130915026D01*
X100761000Y-130915026D01*
X100761000Y-120755026D01*
X102532642Y-120755026D01*
X102535291Y-120770791D01*
X102789268Y-121298036D01*
X103201108Y-121666000D01*
X102789268Y-122033964D01*
X102535291Y-122561209D01*
X102532642Y-122576974D01*
X102653783Y-122809000D01*
X104013000Y-122809000D01*
X104013000Y-120523000D01*
X104267000Y-120523000D01*
X104267000Y-122809000D01*
X106553000Y-122809000D01*
X106553000Y-120523000D01*
X104267000Y-120523000D01*
X104013000Y-120523000D01*
X102653783Y-120523000D01*
X102532642Y-120755026D01*
X100761000Y-120755026D01*
X100761000Y-107719467D01*
X101453138Y-107719467D01*
X101704375Y-108116169D01*
X102766446Y-108551227D01*
X103914162Y-108546730D01*
X104953625Y-108116169D01*
X105204862Y-107719467D01*
X103329000Y-105843605D01*
X101453138Y-107719467D01*
X100761000Y-107719467D01*
X100761000Y-107008985D01*
X100876831Y-107288625D01*
X101273533Y-107539862D01*
X103149395Y-105664000D01*
X103508605Y-105664000D01*
X105384467Y-107539862D01*
X105781169Y-107288625D01*
X106216227Y-106226554D01*
X106211730Y-105078838D01*
X105781169Y-104039375D01*
X105384467Y-103788138D01*
X103508605Y-105664000D01*
X103149395Y-105664000D01*
X101273533Y-103788138D01*
X100876831Y-104039375D01*
X100761000Y-104322144D01*
X100761000Y-103608533D01*
X101453138Y-103608533D01*
X103329000Y-105484395D01*
X105204862Y-103608533D01*
X104953625Y-103211831D01*
X103891554Y-102776773D01*
X102743838Y-102781270D01*
X101704375Y-103211831D01*
X101453138Y-103608533D01*
X100761000Y-103608533D01*
X100761000Y-100761000D01*
X109981838Y-100761000D01*
X109935777Y-100791777D01*
X109935777Y-100791777D01*
G37*
X109935777Y-100791777D02*
X106887777Y-103839777D01*
X106640006Y-104210593D01*
X106553000Y-104648000D01*
X106553000Y-113284000D01*
X106640006Y-113721407D01*
X106695834Y-113804960D01*
X105664000Y-113804960D01*
X105428683Y-113849238D01*
X105412901Y-113859393D01*
X105407890Y-113855969D01*
X105156000Y-113804960D01*
X103124000Y-113804960D01*
X102888683Y-113849238D01*
X102672559Y-113988310D01*
X102527569Y-114200510D01*
X102476560Y-114452400D01*
X102476560Y-116179600D01*
X102520838Y-116414917D01*
X102659910Y-116631041D01*
X102872110Y-116776031D01*
X102913439Y-116784400D01*
X102895585Y-116796330D01*
X102570729Y-117282511D01*
X102456655Y-117856000D01*
X102570729Y-118429489D01*
X102895585Y-118915670D01*
X103205069Y-119122461D01*
X102789268Y-119493964D01*
X102535291Y-120021209D01*
X102532642Y-120036974D01*
X102653783Y-120269000D01*
X104013000Y-120269000D01*
X104013000Y-120249000D01*
X104267000Y-120249000D01*
X104267000Y-120269000D01*
X106553000Y-120269000D01*
X106553000Y-120249000D01*
X106807000Y-120249000D01*
X106807000Y-120269000D01*
X106827000Y-120269000D01*
X106827000Y-120523000D01*
X106807000Y-120523000D01*
X106807000Y-122809000D01*
X106827000Y-122809000D01*
X106827000Y-123063000D01*
X106807000Y-123063000D01*
X106807000Y-123083000D01*
X106553000Y-123083000D01*
X106553000Y-123063000D01*
X104267000Y-123063000D01*
X104267000Y-123083000D01*
X104013000Y-123083000D01*
X104013000Y-123063000D01*
X102653783Y-123063000D01*
X102532642Y-123295026D01*
X102535291Y-123310791D01*
X102789268Y-123838036D01*
X103181086Y-124188111D01*
X102983880Y-124319880D01*
X102938670Y-124387541D01*
X102895585Y-124416330D01*
X102570729Y-124902511D01*
X102456655Y-125476000D01*
X102505000Y-125719047D01*
X102505000Y-127772953D01*
X102456655Y-128016000D01*
X102570729Y-128589489D01*
X102895585Y-129075670D01*
X102938670Y-129104459D01*
X102983880Y-129172120D01*
X103181086Y-129303889D01*
X102789268Y-129653964D01*
X102535291Y-130181209D01*
X102532642Y-130196974D01*
X102653783Y-130429000D01*
X104013000Y-130429000D01*
X104013000Y-130409000D01*
X104267000Y-130409000D01*
X104267000Y-130429000D01*
X106553000Y-130429000D01*
X106553000Y-130409000D01*
X106807000Y-130409000D01*
X106807000Y-130429000D01*
X106827000Y-130429000D01*
X106827000Y-130683000D01*
X106807000Y-130683000D01*
X106807000Y-132969000D01*
X106827000Y-132969000D01*
X106827000Y-133223000D01*
X106807000Y-133223000D01*
X106807000Y-133243000D01*
X106553000Y-133243000D01*
X106553000Y-133223000D01*
X104267000Y-133223000D01*
X104267000Y-133243000D01*
X104013000Y-133243000D01*
X104013000Y-133223000D01*
X102653783Y-133223000D01*
X102532642Y-133455026D01*
X102535291Y-133470791D01*
X102789268Y-133998036D01*
X103181086Y-134348111D01*
X102983880Y-134479880D01*
X102938670Y-134547541D01*
X102895585Y-134576330D01*
X102570729Y-135062511D01*
X102456655Y-135636000D01*
X102505000Y-135879047D01*
X102505000Y-137932953D01*
X102456655Y-138176000D01*
X102570729Y-138749489D01*
X102895585Y-139235670D01*
X102938670Y-139264459D01*
X102983880Y-139332120D01*
X103181086Y-139463889D01*
X102789268Y-139813964D01*
X102535291Y-140341209D01*
X102532642Y-140356974D01*
X102653783Y-140589000D01*
X104013000Y-140589000D01*
X104013000Y-140569000D01*
X104267000Y-140569000D01*
X104267000Y-140589000D01*
X106553000Y-140589000D01*
X106553000Y-140569000D01*
X106807000Y-140569000D01*
X106807000Y-140589000D01*
X106827000Y-140589000D01*
X106827000Y-140843000D01*
X106807000Y-140843000D01*
X106807000Y-143129000D01*
X106827000Y-143129000D01*
X106827000Y-143383000D01*
X106807000Y-143383000D01*
X106807000Y-143403000D01*
X106553000Y-143403000D01*
X106553000Y-143383000D01*
X104267000Y-143383000D01*
X104267000Y-143403000D01*
X104013000Y-143403000D01*
X104013000Y-143383000D01*
X102653783Y-143383000D01*
X102532642Y-143615026D01*
X102535291Y-143630791D01*
X102789268Y-144158036D01*
X103181086Y-144508111D01*
X102983880Y-144639880D01*
X102938670Y-144707541D01*
X102895585Y-144736330D01*
X102570729Y-145222511D01*
X102456655Y-145796000D01*
X102570729Y-146369489D01*
X102895585Y-146855670D01*
X102938670Y-146884459D01*
X102983880Y-146952120D01*
X103181086Y-147083889D01*
X102789268Y-147433964D01*
X102535291Y-147961209D01*
X102532642Y-147976974D01*
X102653783Y-148209000D01*
X104013000Y-148209000D01*
X104013000Y-148189000D01*
X104267000Y-148189000D01*
X104267000Y-148209000D01*
X106553000Y-148209000D01*
X106553000Y-148189000D01*
X106807000Y-148189000D01*
X106807000Y-148209000D01*
X106827000Y-148209000D01*
X106827000Y-148463000D01*
X106807000Y-148463000D01*
X106807000Y-148483000D01*
X106553000Y-148483000D01*
X106553000Y-148463000D01*
X104267000Y-148463000D01*
X104267000Y-148483000D01*
X104013000Y-148483000D01*
X104013000Y-148463000D01*
X102653783Y-148463000D01*
X102532642Y-148695026D01*
X102535291Y-148710791D01*
X102758903Y-149175000D01*
X100761000Y-149175000D01*
X100761000Y-141075026D01*
X102532642Y-141075026D01*
X102535291Y-141090791D01*
X102789268Y-141618036D01*
X103201108Y-141986000D01*
X102789268Y-142353964D01*
X102535291Y-142881209D01*
X102532642Y-142896974D01*
X102653783Y-143129000D01*
X104013000Y-143129000D01*
X104013000Y-140843000D01*
X104267000Y-140843000D01*
X104267000Y-143129000D01*
X106553000Y-143129000D01*
X106553000Y-140843000D01*
X104267000Y-140843000D01*
X104013000Y-140843000D01*
X102653783Y-140843000D01*
X102532642Y-141075026D01*
X100761000Y-141075026D01*
X100761000Y-130915026D01*
X102532642Y-130915026D01*
X102535291Y-130930791D01*
X102789268Y-131458036D01*
X103201108Y-131826000D01*
X102789268Y-132193964D01*
X102535291Y-132721209D01*
X102532642Y-132736974D01*
X102653783Y-132969000D01*
X104013000Y-132969000D01*
X104013000Y-130683000D01*
X104267000Y-130683000D01*
X104267000Y-132969000D01*
X106553000Y-132969000D01*
X106553000Y-130683000D01*
X104267000Y-130683000D01*
X104013000Y-130683000D01*
X102653783Y-130683000D01*
X102532642Y-130915026D01*
X100761000Y-130915026D01*
X100761000Y-120755026D01*
X102532642Y-120755026D01*
X102535291Y-120770791D01*
X102789268Y-121298036D01*
X103201108Y-121666000D01*
X102789268Y-122033964D01*
X102535291Y-122561209D01*
X102532642Y-122576974D01*
X102653783Y-122809000D01*
X104013000Y-122809000D01*
X104013000Y-120523000D01*
X104267000Y-120523000D01*
X104267000Y-122809000D01*
X106553000Y-122809000D01*
X106553000Y-120523000D01*
X104267000Y-120523000D01*
X104013000Y-120523000D01*
X102653783Y-120523000D01*
X102532642Y-120755026D01*
X100761000Y-120755026D01*
X100761000Y-107719467D01*
X101453138Y-107719467D01*
X101704375Y-108116169D01*
X102766446Y-108551227D01*
X103914162Y-108546730D01*
X104953625Y-108116169D01*
X105204862Y-107719467D01*
X103329000Y-105843605D01*
X101453138Y-107719467D01*
X100761000Y-107719467D01*
X100761000Y-107008985D01*
X100876831Y-107288625D01*
X101273533Y-107539862D01*
X103149395Y-105664000D01*
X103508605Y-105664000D01*
X105384467Y-107539862D01*
X105781169Y-107288625D01*
X106216227Y-106226554D01*
X106211730Y-105078838D01*
X105781169Y-104039375D01*
X105384467Y-103788138D01*
X103508605Y-105664000D01*
X103149395Y-105664000D01*
X101273533Y-103788138D01*
X100876831Y-104039375D01*
X100761000Y-104322144D01*
X100761000Y-103608533D01*
X101453138Y-103608533D01*
X103329000Y-105484395D01*
X105204862Y-103608533D01*
X104953625Y-103211831D01*
X103891554Y-102776773D01*
X102743838Y-102781270D01*
X101704375Y-103211831D01*
X101453138Y-103608533D01*
X100761000Y-103608533D01*
X100761000Y-100761000D01*
X109981838Y-100761000D01*
X109935777Y-100791777D01*
G36*
X144410274Y-101009242D02*
X144046415Y-101885513D01*
X144045587Y-102834325D01*
X144407916Y-103711229D01*
X145078242Y-104382726D01*
X145954513Y-104746585D01*
X146903325Y-104747413D01*
X147780229Y-104385084D01*
X148451726Y-103714758D01*
X148815585Y-102838487D01*
X148816413Y-101889675D01*
X148454084Y-101012771D01*
X148202752Y-100761000D01*
X149175000Y-100761000D01*
X149175000Y-141569146D01*
X148616638Y-141337293D01*
X147946303Y-141336708D01*
X147326771Y-141592694D01*
X146852360Y-142066278D01*
X146595293Y-142685362D01*
X146594708Y-143355697D01*
X146850694Y-143975229D01*
X146862298Y-143986854D01*
X146726009Y-143986735D01*
X146680835Y-144005401D01*
X143315717Y-140640283D01*
X143047906Y-140461337D01*
X142732000Y-140398500D01*
X132588000Y-140398500D01*
X132272095Y-140461337D01*
X132004283Y-140640283D01*
X132004281Y-140640286D01*
X128552249Y-144092317D01*
X128278765Y-143818355D01*
X127861756Y-143645197D01*
X127410225Y-143644803D01*
X126992914Y-143817233D01*
X126855407Y-143954500D01*
X125874814Y-143954500D01*
X125929645Y-143899765D01*
X126102803Y-143482756D01*
X126103197Y-143031225D01*
X125930767Y-142613914D01*
X125611765Y-142294355D01*
X125194756Y-142121197D01*
X125000461Y-142121027D01*
X124027717Y-141148283D01*
X123759906Y-140969337D01*
X123444000Y-140906500D01*
X115657933Y-140906500D01*
X115633500Y-140882066D01*
X115633500Y-109728005D01*
X115633501Y-109728000D01*
X115570663Y-109412095D01*
X115546878Y-109376498D01*
X115817276Y-109488777D01*
X115941451Y-109488885D01*
X116522500Y-110069934D01*
X116522500Y-130683000D01*
X116585337Y-130998906D01*
X116764283Y-131266717D01*
X125229971Y-139732404D01*
X125229803Y-139924775D01*
X125402233Y-140342086D01*
X125721235Y-140661645D01*
X126138244Y-140834803D01*
X126589775Y-140835197D01*
X127007086Y-140662767D01*
X127326645Y-140343765D01*
X127499803Y-139926756D01*
X127500197Y-139475225D01*
X127327767Y-139057914D01*
X127008765Y-138738355D01*
X126591756Y-138565197D01*
X126397461Y-138565027D01*
X118173500Y-130341066D01*
X118173500Y-109728000D01*
X118135651Y-109537717D01*
X118125919Y-109488793D01*
X118618481Y-109489223D01*
X119090943Y-109294005D01*
X119452735Y-108932845D01*
X119508896Y-108797594D01*
X119563995Y-108930943D01*
X119925155Y-109292735D01*
X120397276Y-109488777D01*
X120908481Y-109489223D01*
X121380943Y-109294005D01*
X121742735Y-108932845D01*
X121938777Y-108460724D01*
X121939223Y-107949519D01*
X121744005Y-107477057D01*
X121382845Y-107115265D01*
X120910724Y-106919223D01*
X120399519Y-106918777D01*
X119927057Y-107113995D01*
X119565265Y-107475155D01*
X119509104Y-107610406D01*
X119454005Y-107477057D01*
X119092845Y-107115265D01*
X118620724Y-106919223D01*
X118109519Y-106918777D01*
X117637057Y-107113995D01*
X117275265Y-107475155D01*
X117219104Y-107610406D01*
X117164005Y-107477057D01*
X116802845Y-107115265D01*
X116330724Y-106919223D01*
X115819519Y-106918777D01*
X115347057Y-107113995D01*
X114985265Y-107475155D01*
X114929104Y-107610406D01*
X114874005Y-107477057D01*
X114512845Y-107115265D01*
X114040724Y-106919223D01*
X113529519Y-106918777D01*
X113057057Y-107113995D01*
X112695265Y-107475155D01*
X112639104Y-107610406D01*
X112584005Y-107477057D01*
X112222845Y-107115265D01*
X111750724Y-106919223D01*
X111239519Y-106918777D01*
X110767057Y-107113995D01*
X110405265Y-107475155D01*
X110209223Y-107947276D01*
X110208777Y-108458481D01*
X110403995Y-108930943D01*
X110728593Y-109256109D01*
X110731337Y-109269906D01*
X110910283Y-109537717D01*
X111442500Y-110069933D01*
X111442500Y-141732000D01*
X111505337Y-142047906D01*
X111684283Y-142315717D01*
X112700283Y-143331717D01*
X112968094Y-143510663D01*
X113284000Y-143573501D01*
X113284005Y-143573500D01*
X122594066Y-143573500D01*
X122625627Y-143605061D01*
X122330225Y-143604803D01*
X121912914Y-143777233D01*
X121593355Y-144096235D01*
X121420197Y-144513244D01*
X121419803Y-144964775D01*
X121592233Y-145382086D01*
X121911235Y-145701645D01*
X122328244Y-145874803D01*
X122522539Y-145874973D01*
X122634067Y-145986500D01*
X121245933Y-145986500D01*
X119415717Y-144156283D01*
X119147906Y-143977337D01*
X118832000Y-143914500D01*
X115714673Y-143914500D01*
X115578765Y-143778355D01*
X115161756Y-143605197D01*
X114710225Y-143604803D01*
X114292914Y-143777233D01*
X113973355Y-144096235D01*
X113800197Y-144513244D01*
X113799803Y-144964775D01*
X113972233Y-145382086D01*
X114291235Y-145701645D01*
X114708244Y-145874803D01*
X115159775Y-145875197D01*
X115577086Y-145702767D01*
X115714593Y-145565500D01*
X116989255Y-145565500D01*
X116894355Y-145660235D01*
X116721197Y-146077244D01*
X116720803Y-146528775D01*
X116893233Y-146946086D01*
X117212235Y-147265645D01*
X117629244Y-147438803D01*
X117823539Y-147438973D01*
X118796281Y-148411714D01*
X118796283Y-148411717D01*
X118968068Y-148526500D01*
X110577933Y-148526500D01*
X108277750Y-146226316D01*
X108363345Y-145796000D01*
X108352246Y-145740200D01*
X109520223Y-144572223D01*
X109767994Y-144201407D01*
X109855000Y-143764000D01*
X109855000Y-136109446D01*
X110790223Y-135174223D01*
X111037994Y-134803407D01*
X111125000Y-134366000D01*
X111125000Y-113792000D01*
X111037994Y-113354593D01*
X110790223Y-112983777D01*
X110109000Y-112302554D01*
X110109000Y-106939324D01*
X110173078Y-106961622D01*
X110683428Y-106932083D01*
X111017729Y-106793611D01*
X111073410Y-106563016D01*
X110354000Y-105843605D01*
X110339858Y-105857748D01*
X110160253Y-105678143D01*
X110174395Y-105664000D01*
X110160252Y-105649858D01*
X110339858Y-105470252D01*
X110354000Y-105484395D01*
X110368143Y-105470253D01*
X110547748Y-105649858D01*
X110533605Y-105664000D01*
X111253016Y-106383410D01*
X111483611Y-106327729D01*
X111503847Y-106269577D01*
X111553995Y-106390943D01*
X111915155Y-106752735D01*
X112387276Y-106948777D01*
X112898481Y-106949223D01*
X113370943Y-106754005D01*
X113732735Y-106392845D01*
X113788896Y-106257594D01*
X113843995Y-106390943D01*
X114205155Y-106752735D01*
X114677276Y-106948777D01*
X115188481Y-106949223D01*
X115660943Y-106754005D01*
X116022735Y-106392845D01*
X116078896Y-106257594D01*
X116133995Y-106390943D01*
X116495155Y-106752735D01*
X116967276Y-106948777D01*
X117478481Y-106949223D01*
X117950943Y-106754005D01*
X118312735Y-106392845D01*
X118368896Y-106257594D01*
X118423995Y-106390943D01*
X118785155Y-106752735D01*
X119257276Y-106948777D01*
X119768481Y-106949223D01*
X120240943Y-106754005D01*
X120602735Y-106392845D01*
X120798777Y-105920724D01*
X120799174Y-105465625D01*
X121158000Y-105537000D01*
X121192554Y-105537000D01*
X129493777Y-113838223D01*
X129864593Y-114085994D01*
X130302000Y-114173000D01*
X137033000Y-114173000D01*
X137470407Y-114085994D01*
X137841223Y-113838223D01*
X138892375Y-112787071D01*
X139114991Y-112787265D01*
X139679371Y-112554068D01*
X140081323Y-112152818D01*
X140480357Y-112552551D01*
X140525500Y-112571296D01*
X140525500Y-131191000D01*
X140588337Y-131506906D01*
X140767283Y-131774717D01*
X142674250Y-133681684D01*
X142588655Y-134112000D01*
X142702729Y-134685489D01*
X143027585Y-135171670D01*
X143342366Y-135382000D01*
X143027585Y-135592330D01*
X142702729Y-136078511D01*
X142588655Y-136652000D01*
X142702729Y-137225489D01*
X143027585Y-137711670D01*
X143342366Y-137922000D01*
X143027585Y-138132330D01*
X142702729Y-138618511D01*
X142588655Y-139192000D01*
X142702729Y-139765489D01*
X143027585Y-140251670D01*
X143513766Y-140576526D01*
X144087255Y-140690600D01*
X144456745Y-140690600D01*
X145030234Y-140576526D01*
X145516415Y-140251670D01*
X145542000Y-140213379D01*
X145567585Y-140251670D01*
X146053766Y-140576526D01*
X146627255Y-140690600D01*
X146996745Y-140690600D01*
X147570234Y-140576526D01*
X148056415Y-140251670D01*
X148381271Y-139765489D01*
X148495345Y-139192000D01*
X148409750Y-138761684D01*
X148919714Y-138251719D01*
X148919717Y-138251717D01*
X149098663Y-137983905D01*
X149161500Y-137668000D01*
X149161500Y-113792000D01*
X149120171Y-113584223D01*
X149098663Y-113476094D01*
X148943586Y-113244006D01*
X148919717Y-113208283D01*
X148919714Y-113208281D01*
X145814348Y-110102914D01*
X146029371Y-110014068D01*
X146461551Y-109582643D01*
X146695733Y-109018670D01*
X146696265Y-108408009D01*
X146463068Y-107843629D01*
X146304000Y-107684283D01*
X146304000Y-107569000D01*
X146216994Y-107131593D01*
X145969223Y-106760777D01*
X144064223Y-104855777D01*
X143693407Y-104608006D01*
X143256000Y-104521000D01*
X136021287Y-104521000D01*
X136350229Y-104385084D01*
X137021726Y-103714758D01*
X137385585Y-102838487D01*
X137386413Y-101889675D01*
X137024084Y-101012771D01*
X136772752Y-100761000D01*
X144658950Y-100761000D01*
X144410274Y-101009242D01*
X144410274Y-101009242D01*
G37*
X144410274Y-101009242D02*
X144046415Y-101885513D01*
X144045587Y-102834325D01*
X144407916Y-103711229D01*
X145078242Y-104382726D01*
X145954513Y-104746585D01*
X146903325Y-104747413D01*
X147780229Y-104385084D01*
X148451726Y-103714758D01*
X148815585Y-102838487D01*
X148816413Y-101889675D01*
X148454084Y-101012771D01*
X148202752Y-100761000D01*
X149175000Y-100761000D01*
X149175000Y-141569146D01*
X148616638Y-141337293D01*
X147946303Y-141336708D01*
X147326771Y-141592694D01*
X146852360Y-142066278D01*
X146595293Y-142685362D01*
X146594708Y-143355697D01*
X146850694Y-143975229D01*
X146862298Y-143986854D01*
X146726009Y-143986735D01*
X146680835Y-144005401D01*
X143315717Y-140640283D01*
X143047906Y-140461337D01*
X142732000Y-140398500D01*
X132588000Y-140398500D01*
X132272095Y-140461337D01*
X132004283Y-140640283D01*
X132004281Y-140640286D01*
X128552249Y-144092317D01*
X128278765Y-143818355D01*
X127861756Y-143645197D01*
X127410225Y-143644803D01*
X126992914Y-143817233D01*
X126855407Y-143954500D01*
X125874814Y-143954500D01*
X125929645Y-143899765D01*
X126102803Y-143482756D01*
X126103197Y-143031225D01*
X125930767Y-142613914D01*
X125611765Y-142294355D01*
X125194756Y-142121197D01*
X125000461Y-142121027D01*
X124027717Y-141148283D01*
X123759906Y-140969337D01*
X123444000Y-140906500D01*
X115657933Y-140906500D01*
X115633500Y-140882066D01*
X115633500Y-109728005D01*
X115633501Y-109728000D01*
X115570663Y-109412095D01*
X115546878Y-109376498D01*
X115817276Y-109488777D01*
X115941451Y-109488885D01*
X116522500Y-110069934D01*
X116522500Y-130683000D01*
X116585337Y-130998906D01*
X116764283Y-131266717D01*
X125229971Y-139732404D01*
X125229803Y-139924775D01*
X125402233Y-140342086D01*
X125721235Y-140661645D01*
X126138244Y-140834803D01*
X126589775Y-140835197D01*
X127007086Y-140662767D01*
X127326645Y-140343765D01*
X127499803Y-139926756D01*
X127500197Y-139475225D01*
X127327767Y-139057914D01*
X127008765Y-138738355D01*
X126591756Y-138565197D01*
X126397461Y-138565027D01*
X118173500Y-130341066D01*
X118173500Y-109728000D01*
X118135651Y-109537717D01*
X118125919Y-109488793D01*
X118618481Y-109489223D01*
X119090943Y-109294005D01*
X119452735Y-108932845D01*
X119508896Y-108797594D01*
X119563995Y-108930943D01*
X119925155Y-109292735D01*
X120397276Y-109488777D01*
X120908481Y-109489223D01*
X121380943Y-109294005D01*
X121742735Y-108932845D01*
X121938777Y-108460724D01*
X121939223Y-107949519D01*
X121744005Y-107477057D01*
X121382845Y-107115265D01*
X120910724Y-106919223D01*
X120399519Y-106918777D01*
X119927057Y-107113995D01*
X119565265Y-107475155D01*
X119509104Y-107610406D01*
X119454005Y-107477057D01*
X119092845Y-107115265D01*
X118620724Y-106919223D01*
X118109519Y-106918777D01*
X117637057Y-107113995D01*
X117275265Y-107475155D01*
X117219104Y-107610406D01*
X117164005Y-107477057D01*
X116802845Y-107115265D01*
X116330724Y-106919223D01*
X115819519Y-106918777D01*
X115347057Y-107113995D01*
X114985265Y-107475155D01*
X114929104Y-107610406D01*
X114874005Y-107477057D01*
X114512845Y-107115265D01*
X114040724Y-106919223D01*
X113529519Y-106918777D01*
X113057057Y-107113995D01*
X112695265Y-107475155D01*
X112639104Y-107610406D01*
X112584005Y-107477057D01*
X112222845Y-107115265D01*
X111750724Y-106919223D01*
X111239519Y-106918777D01*
X110767057Y-107113995D01*
X110405265Y-107475155D01*
X110209223Y-107947276D01*
X110208777Y-108458481D01*
X110403995Y-108930943D01*
X110728593Y-109256109D01*
X110731337Y-109269906D01*
X110910283Y-109537717D01*
X111442500Y-110069933D01*
X111442500Y-141732000D01*
X111505337Y-142047906D01*
X111684283Y-142315717D01*
X112700283Y-143331717D01*
X112968094Y-143510663D01*
X113284000Y-143573501D01*
X113284005Y-143573500D01*
X122594066Y-143573500D01*
X122625627Y-143605061D01*
X122330225Y-143604803D01*
X121912914Y-143777233D01*
X121593355Y-144096235D01*
X121420197Y-144513244D01*
X121419803Y-144964775D01*
X121592233Y-145382086D01*
X121911235Y-145701645D01*
X122328244Y-145874803D01*
X122522539Y-145874973D01*
X122634067Y-145986500D01*
X121245933Y-145986500D01*
X119415717Y-144156283D01*
X119147906Y-143977337D01*
X118832000Y-143914500D01*
X115714673Y-143914500D01*
X115578765Y-143778355D01*
X115161756Y-143605197D01*
X114710225Y-143604803D01*
X114292914Y-143777233D01*
X113973355Y-144096235D01*
X113800197Y-144513244D01*
X113799803Y-144964775D01*
X113972233Y-145382086D01*
X114291235Y-145701645D01*
X114708244Y-145874803D01*
X115159775Y-145875197D01*
X115577086Y-145702767D01*
X115714593Y-145565500D01*
X116989255Y-145565500D01*
X116894355Y-145660235D01*
X116721197Y-146077244D01*
X116720803Y-146528775D01*
X116893233Y-146946086D01*
X117212235Y-147265645D01*
X117629244Y-147438803D01*
X117823539Y-147438973D01*
X118796281Y-148411714D01*
X118796283Y-148411717D01*
X118968068Y-148526500D01*
X110577933Y-148526500D01*
X108277750Y-146226316D01*
X108363345Y-145796000D01*
X108352246Y-145740200D01*
X109520223Y-144572223D01*
X109767994Y-144201407D01*
X109855000Y-143764000D01*
X109855000Y-136109446D01*
X110790223Y-135174223D01*
X111037994Y-134803407D01*
X111125000Y-134366000D01*
X111125000Y-113792000D01*
X111037994Y-113354593D01*
X110790223Y-112983777D01*
X110109000Y-112302554D01*
X110109000Y-106939324D01*
X110173078Y-106961622D01*
X110683428Y-106932083D01*
X111017729Y-106793611D01*
X111073410Y-106563016D01*
X110354000Y-105843605D01*
X110339858Y-105857748D01*
X110160253Y-105678143D01*
X110174395Y-105664000D01*
X110160252Y-105649858D01*
X110339858Y-105470252D01*
X110354000Y-105484395D01*
X110368143Y-105470253D01*
X110547748Y-105649858D01*
X110533605Y-105664000D01*
X111253016Y-106383410D01*
X111483611Y-106327729D01*
X111503847Y-106269577D01*
X111553995Y-106390943D01*
X111915155Y-106752735D01*
X112387276Y-106948777D01*
X112898481Y-106949223D01*
X113370943Y-106754005D01*
X113732735Y-106392845D01*
X113788896Y-106257594D01*
X113843995Y-106390943D01*
X114205155Y-106752735D01*
X114677276Y-106948777D01*
X115188481Y-106949223D01*
X115660943Y-106754005D01*
X116022735Y-106392845D01*
X116078896Y-106257594D01*
X116133995Y-106390943D01*
X116495155Y-106752735D01*
X116967276Y-106948777D01*
X117478481Y-106949223D01*
X117950943Y-106754005D01*
X118312735Y-106392845D01*
X118368896Y-106257594D01*
X118423995Y-106390943D01*
X118785155Y-106752735D01*
X119257276Y-106948777D01*
X119768481Y-106949223D01*
X120240943Y-106754005D01*
X120602735Y-106392845D01*
X120798777Y-105920724D01*
X120799174Y-105465625D01*
X121158000Y-105537000D01*
X121192554Y-105537000D01*
X129493777Y-113838223D01*
X129864593Y-114085994D01*
X130302000Y-114173000D01*
X137033000Y-114173000D01*
X137470407Y-114085994D01*
X137841223Y-113838223D01*
X138892375Y-112787071D01*
X139114991Y-112787265D01*
X139679371Y-112554068D01*
X140081323Y-112152818D01*
X140480357Y-112552551D01*
X140525500Y-112571296D01*
X140525500Y-131191000D01*
X140588337Y-131506906D01*
X140767283Y-131774717D01*
X142674250Y-133681684D01*
X142588655Y-134112000D01*
X142702729Y-134685489D01*
X143027585Y-135171670D01*
X143342366Y-135382000D01*
X143027585Y-135592330D01*
X142702729Y-136078511D01*
X142588655Y-136652000D01*
X142702729Y-137225489D01*
X143027585Y-137711670D01*
X143342366Y-137922000D01*
X143027585Y-138132330D01*
X142702729Y-138618511D01*
X142588655Y-139192000D01*
X142702729Y-139765489D01*
X143027585Y-140251670D01*
X143513766Y-140576526D01*
X144087255Y-140690600D01*
X144456745Y-140690600D01*
X145030234Y-140576526D01*
X145516415Y-140251670D01*
X145542000Y-140213379D01*
X145567585Y-140251670D01*
X146053766Y-140576526D01*
X146627255Y-140690600D01*
X146996745Y-140690600D01*
X147570234Y-140576526D01*
X148056415Y-140251670D01*
X148381271Y-139765489D01*
X148495345Y-139192000D01*
X148409750Y-138761684D01*
X148919714Y-138251719D01*
X148919717Y-138251717D01*
X149098663Y-137983905D01*
X149161500Y-137668000D01*
X149161500Y-113792000D01*
X149120171Y-113584223D01*
X149098663Y-113476094D01*
X148943586Y-113244006D01*
X148919717Y-113208283D01*
X148919714Y-113208281D01*
X145814348Y-110102914D01*
X146029371Y-110014068D01*
X146461551Y-109582643D01*
X146695733Y-109018670D01*
X146696265Y-108408009D01*
X146463068Y-107843629D01*
X146304000Y-107684283D01*
X146304000Y-107569000D01*
X146216994Y-107131593D01*
X145969223Y-106760777D01*
X144064223Y-104855777D01*
X143693407Y-104608006D01*
X143256000Y-104521000D01*
X136021287Y-104521000D01*
X136350229Y-104385084D01*
X137021726Y-103714758D01*
X137385585Y-102838487D01*
X137386413Y-101889675D01*
X137024084Y-101012771D01*
X136772752Y-100761000D01*
X144658950Y-100761000D01*
X144410274Y-101009242D01*
G36*
X143020357Y-112552551D02*
X143446500Y-112729501D01*
X143446500Y-130060960D01*
X143256000Y-130060960D01*
X143020683Y-130105238D01*
X142804559Y-130244310D01*
X142659569Y-130456510D01*
X142608560Y-130708400D01*
X142608560Y-131281126D01*
X142176500Y-130849066D01*
X142176500Y-112571782D01*
X142219371Y-112554068D01*
X142621323Y-112152818D01*
X143020357Y-112552551D01*
X143020357Y-112552551D01*
G37*
X143020357Y-112552551D02*
X143446500Y-112729501D01*
X143446500Y-130060960D01*
X143256000Y-130060960D01*
X143020683Y-130105238D01*
X142804559Y-130244310D01*
X142659569Y-130456510D01*
X142608560Y-130708400D01*
X142608560Y-131281126D01*
X142176500Y-130849066D01*
X142176500Y-112571782D01*
X142219371Y-112554068D01*
X142621323Y-112152818D01*
X143020357Y-112552551D01*
G36*
X147510500Y-114133933D02*
X147510500Y-130060960D01*
X145796000Y-130060960D01*
X145560683Y-130105238D01*
X145544901Y-130115393D01*
X145539890Y-130111969D01*
X145288000Y-130060960D01*
X145097500Y-130060960D01*
X145097500Y-112216530D01*
X145191551Y-112122643D01*
X145281819Y-111905253D01*
X147510500Y-114133933D01*
X147510500Y-114133933D01*
G37*
X147510500Y-114133933D02*
X147510500Y-130060960D01*
X145796000Y-130060960D01*
X145560683Y-130105238D01*
X145544901Y-130115393D01*
X145539890Y-130111969D01*
X145288000Y-130060960D01*
X145097500Y-130060960D01*
X145097500Y-112216530D01*
X145191551Y-112122643D01*
X145281819Y-111905253D01*
X147510500Y-114133933D01*
G36*
X135608930Y-109852364D02*
X135456852Y-109915357D01*
X135370446Y-110171841D01*
X136271000Y-111072395D01*
X136285143Y-111058253D01*
X136464748Y-111237858D01*
X136450605Y-111252000D01*
X136464748Y-111266143D01*
X136285143Y-111445748D01*
X136271000Y-111431605D01*
X136256858Y-111445748D01*
X136077253Y-111266143D01*
X136091395Y-111252000D01*
X135190841Y-110351446D01*
X134934357Y-110437852D01*
X134724542Y-111011336D01*
X134750161Y-111621460D01*
X134860151Y-111887000D01*
X130775446Y-111887000D01*
X127219878Y-108331432D01*
X127756446Y-108551227D01*
X128904162Y-108546730D01*
X129943625Y-108116169D01*
X130194862Y-107719467D01*
X128319000Y-105843605D01*
X128304858Y-105857748D01*
X128125253Y-105678143D01*
X128139395Y-105664000D01*
X128125253Y-105649858D01*
X128304858Y-105470253D01*
X128319000Y-105484395D01*
X128333143Y-105470253D01*
X128512748Y-105649858D01*
X128498605Y-105664000D01*
X130374467Y-107539862D01*
X130771169Y-107288625D01*
X131206227Y-106226554D01*
X131203171Y-105446605D01*
X135608930Y-109852364D01*
X135608930Y-109852364D01*
G37*
X135608930Y-109852364D02*
X135456852Y-109915357D01*
X135370446Y-110171841D01*
X136271000Y-111072395D01*
X136285143Y-111058253D01*
X136464748Y-111237858D01*
X136450605Y-111252000D01*
X136464748Y-111266143D01*
X136285143Y-111445748D01*
X136271000Y-111431605D01*
X136256858Y-111445748D01*
X136077253Y-111266143D01*
X136091395Y-111252000D01*
X135190841Y-110351446D01*
X134934357Y-110437852D01*
X134724542Y-111011336D01*
X134750161Y-111621460D01*
X134860151Y-111887000D01*
X130775446Y-111887000D01*
X127219878Y-108331432D01*
X127756446Y-108551227D01*
X128904162Y-108546730D01*
X129943625Y-108116169D01*
X130194862Y-107719467D01*
X128319000Y-105843605D01*
X128304858Y-105857748D01*
X128125253Y-105678143D01*
X128139395Y-105664000D01*
X128125253Y-105649858D01*
X128304858Y-105470253D01*
X128319000Y-105484395D01*
X128333143Y-105470253D01*
X128512748Y-105649858D01*
X128498605Y-105664000D01*
X130374467Y-107539862D01*
X130771169Y-107288625D01*
X131206227Y-106226554D01*
X131203171Y-105446605D01*
X135608930Y-109852364D01*
G36*
X142814748Y-108697858D02*
X142800605Y-108712000D01*
X142814748Y-108726143D01*
X142635143Y-108905748D01*
X142621000Y-108891605D01*
X142606858Y-108905748D01*
X142427253Y-108726143D01*
X142441395Y-108712000D01*
X142427253Y-108697858D01*
X142606858Y-108518253D01*
X142621000Y-108532395D01*
X142635143Y-108518253D01*
X142814748Y-108697858D01*
X142814748Y-108697858D01*
G37*
X142814748Y-108697858D02*
X142800605Y-108712000D01*
X142814748Y-108726143D01*
X142635143Y-108905748D01*
X142621000Y-108891605D01*
X142606858Y-108905748D01*
X142427253Y-108726143D01*
X142441395Y-108712000D01*
X142427253Y-108697858D01*
X142606858Y-108518253D01*
X142621000Y-108532395D01*
X142635143Y-108518253D01*
X142814748Y-108697858D01*
G36*
X111687748Y-103109858D02*
X111673605Y-103124000D01*
X111687748Y-103138143D01*
X111508143Y-103317748D01*
X111494000Y-103303605D01*
X111479858Y-103317748D01*
X111300253Y-103138143D01*
X111314395Y-103124000D01*
X111300252Y-103109858D01*
X111479858Y-102930253D01*
X111494000Y-102944395D01*
X111508143Y-102930253D01*
X111687748Y-103109858D01*
X111687748Y-103109858D01*
G37*
X111687748Y-103109858D02*
X111673605Y-103124000D01*
X111687748Y-103138143D01*
X111508143Y-103317748D01*
X111494000Y-103303605D01*
X111479858Y-103317748D01*
X111300253Y-103138143D01*
X111314395Y-103124000D01*
X111300252Y-103109858D01*
X111479858Y-102930253D01*
X111494000Y-102944395D01*
X111508143Y-102930253D01*
X111687748Y-103109858D01*
M02*
